G04 ================== begin FILE IDENTIFICATION RECORD ==================*
G04 Layout Name:  cmsis_dap_receive.brd*
G04 Film Name:    SILKSCREEN_BOTTOM*
G04 File Format:  Gerber RS274X*
G04 File Origin:  Cadence Allegro -unreleased*
G04 Origin Date:  Mon May 18 05:33:54 2020*
G04 *
G04 Layer:  REF DES/SILKSCREEN_BOTTOM*
G04 Layer:  PACKAGE GEOMETRY/SILKSCREEN_BOTTOM*
G04 Layer:  DRAWING FORMAT/OUTLINE*
G04 Layer:  BOARD GEOMETRY/OUTLINE*
G04 Layer:  BOARD GEOMETRY/SILKSCREEN_BOTTOM*
G04 Layer:  BOARD GEOMETRY/DESIGN_OUTLINE*
G04 Layer:  BOARD GEOMETRY/CUTOUT*
G04 *
G04 Offset:    (0.0000 0.0000)*
G04 Mirror:    No*
G04 Mode:      Positive*
G04 Rotation:  0*
G04 FullContactRelief:  No*
G04 UndefLineWidth:     0.1500*
G04 ================== end FILE IDENTIFICATION RECORD ====================*
%FSLAX25Y25*MOMM*%
%IR0*IPPOS*OFA0.00000B0.00000*MIA0B0*SFA1.00000B1.00000*%
%ADD10C,.1*%
%ADD11C,.2*%
%ADD12C,.1501*%
%ADD13C,.1016*%
%ADD14C,.127*%
%ADD15C,.1524*%
%ADD16C,.15*%
G75*
%LPD*%
G75*
G36*
G01X-749300Y848360D02*
Y574040D01*
X-784860D01*
Y848360D01*
X-749300D01*
G37*
G36*
G01X1548060Y-17780D02*
G03I-11360J0D01*
G37*
G54D10*
G01X-815340Y640080D02*
Y599440D01*
G01X-795020Y619760D02*
X-835660D01*
G54D11*
G01X-2013900Y-166060D02*
X-2143900D01*
Y-286060D01*
X-2013900D01*
G01X-1973900Y-166060D02*
X-1843900D01*
G01D02*
Y-286060D01*
X-1973900D01*
G01X-1741100Y-186740D02*
X-1735100Y-182240D01*
X-1728100Y-179240D01*
X-1720100D01*
X-1711100Y-183740D01*
X-1704100Y-191240D01*
X-1699100Y-200240D01*
X-1695100Y-215240D01*
X-1694100Y-228740D01*
X-1696100Y-242240D01*
X-1699100Y-251240D01*
X-1705100Y-260240D01*
X-1712100Y-266240D01*
X-1719100Y-269240D01*
X-1726100D01*
X-1733100Y-266240D01*
X-1739100Y-261740D01*
X-1744100Y-255740D01*
G01X-1789100Y-269240D02*
X-1796100Y-267740D01*
X-1804100Y-263240D01*
X-1809100Y-255740D01*
X-1811100Y-245240D01*
X-1809100Y-234740D01*
X-1803100Y-225740D01*
X-1794100Y-221240D01*
X-1784100D01*
X-1778100Y-218240D01*
X-1773100Y-210740D01*
X-1771100Y-200240D01*
X-1774100Y-189740D01*
X-1781100Y-182240D01*
X-1789100Y-179240D01*
X-1797100Y-182240D01*
X-1804100Y-189740D01*
X-1807100Y-200240D01*
X-1805100Y-210740D01*
X-1800100Y-218240D01*
X-1794100Y-221240D01*
X-1784100D01*
X-1775100Y-225740D01*
X-1769100Y-234740D01*
X-1767100Y-245240D01*
X-1769100Y-255740D01*
X-1774100Y-263240D01*
X-1782100Y-267740D01*
X-1789100Y-269240D01*
G01X-1230700Y656640D02*
X-1236700Y652140D01*
X-1243700Y649140D01*
X-1251700D01*
X-1260700Y653640D01*
X-1267700Y661140D01*
X-1272700Y670140D01*
X-1276700Y685140D01*
X-1277700Y698640D01*
X-1275700Y712140D01*
X-1272700Y721140D01*
X-1266700Y730140D01*
X-1259700Y736140D01*
X-1252700Y739140D01*
X-1245700D01*
X-1238700Y736140D01*
X-1232700Y731640D01*
X-1227700Y725640D01*
G01X-1201700Y664140D02*
X-1195700Y655140D01*
X-1188700Y650640D01*
X-1180700Y649140D01*
X-1170700Y652140D01*
X-1163700Y659640D01*
X-1161700Y668640D01*
X-1162700Y677640D01*
X-1166700Y685140D01*
X-1186700Y700140D01*
X-1195700Y710640D01*
X-1201700Y725640D01*
X-1203700Y739140D01*
X-1161700D01*
G01X-436060Y114780D02*
Y204780D01*
X-461060D01*
X-469060Y200280D01*
X-474060Y194280D01*
X-476060Y182280D01*
X-474060Y170280D01*
X-468060Y162780D01*
X-461060Y158280D01*
X-436060D01*
G01X-461060D02*
X-476060Y114780D01*
G01X-507060Y152280D02*
X-514060Y162780D01*
X-520060Y168780D01*
X-528060Y171780D01*
X-535060Y168780D01*
X-540060Y162780D01*
X-544060Y153780D01*
X-545060Y143280D01*
X-544060Y134280D01*
X-540060Y125280D01*
X-534060Y117780D01*
X-527060Y114780D01*
X-519060Y117780D01*
X-512060Y126780D01*
X-508060Y140280D01*
X-507060Y155280D01*
X-509060Y174780D01*
X-512060Y185280D01*
X-517060Y195780D01*
X-524060Y203280D01*
X-531060Y204780D01*
X-538060Y201780D01*
X-543060Y194280D01*
G01X-246060Y204780D02*
X-376060D01*
Y84780D01*
X-246060D01*
G01X-945200Y648660D02*
X-815200D01*
Y768660D01*
X-945200D01*
G01X-985200Y648660D02*
X-1115200D01*
G01D02*
Y768660D01*
X-985200D01*
G01X488000Y-428300D02*
X358000D01*
G01D02*
Y-308300D01*
X488000D01*
G01X-76060Y204780D02*
Y84780D01*
X-206060D01*
G01X228920Y768660D02*
X98920D01*
Y648660D01*
X228920D01*
G01X268920Y768660D02*
X398920D01*
G01D02*
Y648660D01*
X268920D01*
G01X-206060Y204780D02*
X-76060D01*
G01X1246300Y137700D02*
X1250800Y131700D01*
X1253800Y124700D01*
Y116700D01*
X1249300Y107700D01*
X1241800Y100700D01*
X1232800Y95700D01*
X1217800Y91700D01*
X1204300Y90700D01*
X1190800Y92700D01*
X1181800Y95700D01*
X1172800Y101700D01*
X1166800Y108700D01*
X1163800Y115700D01*
Y122700D01*
X1166800Y129700D01*
X1171300Y135700D01*
X1177300Y140700D01*
G01X1163800Y183700D02*
X1183300Y185700D01*
X1199800Y188700D01*
X1214800Y192700D01*
X1231300Y197700D01*
X1253800Y205700D01*
Y165700D01*
G01Y-94300D02*
Y35700D01*
X1133800D01*
Y-94300D01*
G01X1253800Y-264300D02*
X1133800D01*
Y-134300D01*
G01X718000Y-338300D02*
Y-428300D01*
X743000D01*
X751000Y-423800D01*
X756000Y-417800D01*
X758000Y-405800D01*
X756000Y-393800D01*
X750000Y-386300D01*
X743000Y-381800D01*
X718000D01*
G01X743000D02*
X758000Y-338300D01*
G01X808000D02*
Y-428300D01*
X796000Y-410300D01*
G01Y-338300D02*
X820000D01*
G01X528000Y-428300D02*
X658000D01*
Y-308300D01*
X528000D01*
G01X519500Y750520D02*
X525500Y755020D01*
X532500Y758020D01*
X540500D01*
X549500Y753520D01*
X556500Y746020D01*
X561500Y737020D01*
X565500Y722020D01*
X566500Y708520D01*
X564500Y695020D01*
X561500Y686020D01*
X555500Y677020D01*
X548500Y671020D01*
X541500Y668020D01*
X534500D01*
X527500Y671020D01*
X521500Y675520D01*
X516500Y681520D01*
G01X471500Y668020D02*
Y758020D01*
X483500Y740020D01*
G01Y668020D02*
X459500D01*
G01X1653700Y-838200D02*
Y-748200D01*
X1628700D01*
X1620700Y-752700D01*
X1615700Y-758700D01*
X1613700Y-770700D01*
X1615700Y-782700D01*
X1621700Y-790200D01*
X1628700Y-794700D01*
X1653700D01*
G01X1628700D02*
X1613700Y-838200D01*
G01X1565700D02*
X1563700Y-818700D01*
X1560700Y-802200D01*
X1556700Y-787200D01*
X1551700Y-770700D01*
X1543700Y-748200D01*
X1583700D01*
G01X1557340Y-610560D02*
X1427340D01*
Y-730560D01*
X1557340D01*
G01X1597340Y-610560D02*
X1727340D01*
G01D02*
Y-730560D01*
X1597340D01*
G01X1253800Y-134300D02*
Y-264300D01*
G54D12*
G01X2456180Y-76530D02*
X2501690D01*
X2511220Y-79240D01*
X2517560Y-84650D01*
X2519680Y-91410D01*
X2517560Y-98180D01*
X2511220Y-103590D01*
X2501690Y-106300D01*
X2456180D01*
G01X2466760Y-134340D02*
X2460410Y-138400D01*
X2457240Y-143140D01*
X2456180Y-148550D01*
X2458300Y-155310D01*
X2463590Y-160050D01*
X2469940Y-161400D01*
X2476290Y-160730D01*
X2481580Y-158020D01*
X2492160Y-144490D01*
X2499570Y-138400D01*
X2510160Y-134340D01*
X2519680Y-132990D01*
Y-161400D01*
G54D13*
G01X-685800Y929640D02*
Y906780D01*
X-697650Y878840D01*
G01X-673950D02*
X-685800Y906780D01*
G01X-635000Y929640D02*
Y878840D01*
X-642110Y889000D01*
G01Y929640D02*
X-627890D01*
G01X107020Y411480D02*
Y462280D01*
X95170D01*
X90420Y459740D01*
X86870Y456350D01*
X83900Y451270D01*
X81530Y445350D01*
X80940Y436880D01*
X81530Y428410D01*
X83900Y422490D01*
X86870Y417410D01*
X90420Y414020D01*
X95170Y411480D01*
X107020D01*
G01X54440Y453810D02*
X50880Y458890D01*
X46740Y461430D01*
X41990Y462280D01*
X36070Y460590D01*
X31920Y456350D01*
X30730Y451270D01*
X31330Y446190D01*
X33700Y441960D01*
X45550Y433490D01*
X50880Y427570D01*
X54440Y419100D01*
X55630Y411480D01*
X30730D01*
G01X942000Y-782320D02*
Y-833120D01*
X953850D01*
X958600Y-830580D01*
X962150Y-827190D01*
X965120Y-822110D01*
X967490Y-816190D01*
X968080Y-807720D01*
X967490Y-799250D01*
X965120Y-793330D01*
X962150Y-788250D01*
X958600Y-784860D01*
X953850Y-782320D01*
X942000D01*
G01X992800Y-792480D02*
X996360Y-786550D01*
X1001100Y-783170D01*
X1006430Y-782320D01*
X1011170Y-783170D01*
X1015920Y-787400D01*
X1018880Y-792480D01*
X1019470Y-797560D01*
X1018290Y-803490D01*
X1014140Y-807720D01*
X1009990Y-809410D01*
X1004650D01*
G01X1009990D02*
X1013540Y-811950D01*
X1016510Y-816190D01*
X1017690Y-821270D01*
X1016510Y-826350D01*
X1013540Y-830580D01*
X1008210Y-833120D01*
X1002880Y-832270D01*
X997540Y-828890D01*
G54D14*
G01X-2279940Y-301320D02*
G03Y-501320I230000J-100000D01*
G01X-1839940D02*
X-2279940D01*
G01X-1839940Y-301320D02*
X-2279940D01*
G01X-1839940D02*
G02Y-501320I-237500J-100000D01*
G01X-381000Y497840D02*
X-66040D01*
Y365760D01*
X-381000D01*
Y497840D01*
G01X-749300Y574040D02*
X63500D01*
Y848360D01*
X-749300D01*
Y574040D01*
G01X-45720Y431800D02*
X5080D01*
G01X-20320Y406400D02*
Y457200D01*
G01X1013460Y-670560D02*
X962660D01*
G01X988060Y-645160D02*
Y-695960D01*
G01X1348740Y-736600D02*
X1033780D01*
Y-604520D01*
X1348740D01*
Y-736600D01*
G01X1075680Y2520D02*
G03X915680I-80000J-315000D01*
G01X1075680Y-317480D02*
G02X915680I-80000J315000D01*
G01Y2520D02*
Y-317480D01*
G01X1075680D02*
Y2520D01*
G01X1475740Y2540D02*
Y-271780D01*
X1557020D01*
Y2540D01*
X1475740D01*
G01X1348740Y22860D02*
X1328420D01*
Y-292100D01*
X1704340D01*
Y22860D01*
X1348740D01*
G01X1389400Y240020D02*
G03Y80020I315000J-80000D01*
G01X1709400Y240020D02*
G02Y80020I-315000J-80000D01*
G01X1389400D02*
X1709400D01*
G01Y240020D02*
X1389400D01*
G54D15*
G01X-1699260Y-375710D02*
X-1691640Y-371260D01*
X-1682750Y-368300D01*
X-1672590D01*
X-1661160Y-372750D01*
X-1652270Y-380150D01*
X-1645920Y-389040D01*
X-1640840Y-403860D01*
X-1639570Y-417200D01*
X-1642110Y-430530D01*
X-1645920Y-439420D01*
X-1653540Y-448310D01*
X-1662430Y-454240D01*
X-1671320Y-457200D01*
X-1680210D01*
X-1689100Y-454240D01*
X-1696720Y-449790D01*
X-1703070Y-443870D01*
G01X-1728470Y-446830D02*
X-1737360Y-454240D01*
X-1747520Y-457200D01*
X-1757680Y-454240D01*
X-1766570Y-445350D01*
X-1772920Y-432010D01*
X-1775460Y-418680D01*
Y-402380D01*
X-1772920Y-389040D01*
X-1766570Y-377190D01*
X-1758950Y-371260D01*
X-1750060Y-368300D01*
X-1739900Y-371260D01*
X-1732280Y-377190D01*
X-1727200Y-386080D01*
X-1724660Y-397940D01*
X-1727200Y-408300D01*
X-1733550Y-418680D01*
X-1741170Y-424600D01*
X-1750060Y-426090D01*
X-1760220Y-423120D01*
X-1767840Y-415710D01*
X-1775460Y-402380D01*
G01X-317500Y553720D02*
X-294640Y518160D01*
G01X-248920Y510540D02*
X-317500Y556260D01*
X-274320Y548640D01*
G01X-251460Y556260D02*
X-228600Y520700D01*
G01X-182880Y513080D02*
X-251460Y558800D01*
X-208280Y551180D01*
G01X1150620Y-751840D02*
X1219200Y-797560D01*
X1176020Y-789940D01*
G01X1051770Y-436880D02*
X1056220Y-444500D01*
X1059180Y-453390D01*
Y-463550D01*
X1054730Y-474980D01*
X1047330Y-483870D01*
X1038440Y-490220D01*
X1023620Y-495300D01*
X1010280Y-496570D01*
X996950Y-494030D01*
X988060Y-490220D01*
X979170Y-482600D01*
X973240Y-473710D01*
X970280Y-464820D01*
Y-455930D01*
X973240Y-447040D01*
X977690Y-439420D01*
X983610Y-433070D01*
G01X1007320Y-410210D02*
X1017690Y-401320D01*
X1023620Y-393700D01*
X1026580Y-383540D01*
X1023620Y-374650D01*
X1017690Y-368300D01*
X1008800Y-363220D01*
X998430Y-361950D01*
X989540Y-363220D01*
X980650Y-368300D01*
X973240Y-375920D01*
X970280Y-384810D01*
X973240Y-394970D01*
X982130Y-403860D01*
X995470Y-408940D01*
X1010280Y-410210D01*
X1029540Y-407670D01*
X1039920Y-403860D01*
X1050290Y-397510D01*
X1057700Y-388620D01*
X1059180Y-379730D01*
X1056220Y-370840D01*
X1048810Y-364490D01*
G01X1285240Y-792480D02*
X1262380Y-756920D01*
G01X1216660Y-749300D02*
X1285240Y-795020D01*
X1242060Y-787400D01*
G01X1219200Y-795020D02*
X1196340Y-759460D01*
G01X1592580Y376130D02*
X1600200Y380580D01*
X1609090Y383540D01*
X1619250D01*
X1630680Y379090D01*
X1639570Y371690D01*
X1645920Y362800D01*
X1651000Y347980D01*
X1652270Y334640D01*
X1649730Y321310D01*
X1645920Y312420D01*
X1638300Y303530D01*
X1629410Y297600D01*
X1620520Y294640D01*
X1611630D01*
X1602740Y297600D01*
X1595120Y302050D01*
X1588770Y307970D01*
G01X1526540Y294640D02*
Y383540D01*
X1573530Y319830D01*
X1510030D01*
G54D16*
G01X-2400000Y-900000D02*
Y900000D01*
X2400000D01*
Y-900000D01*
X-2400000D01*
M02*
