G04 ================== begin FILE IDENTIFICATION RECORD ==================*
G04 Layout Name:  cmsis_dap_receive.brd*
G04 Film Name:    SILKSCREEN_TOP*
G04 File Format:  Gerber RS274X*
G04 File Origin:  Cadence Allegro -unreleased*
G04 Origin Date:  Mon May 18 05:33:54 2020*
G04 *
G04 Layer:  REF DES/SILKSCREEN_TOP*
G04 Layer:  PACKAGE GEOMETRY/SILKSCREEN_TOP*
G04 Layer:  DRAWING FORMAT/OUTLINE*
G04 Layer:  BOARD GEOMETRY/OUTLINE*
G04 Layer:  BOARD GEOMETRY/SILKSCREEN_TOP*
G04 Layer:  BOARD GEOMETRY/DESIGN_OUTLINE*
G04 Layer:  BOARD GEOMETRY/CUTOUT*
G04 *
G04 Offset:    (0.0000 0.0000)*
G04 Mirror:    No*
G04 Mode:      Positive*
G04 Rotation:  0*
G04 FullContactRelief:  No*
G04 UndefLineWidth:     0.1500*
G04 ================== end FILE IDENTIFICATION RECORD ====================*
%FSLAX25Y25*MOMM*%
%IR0*IPPOS*OFA0.00000B0.00000*MIA0B0*SFA1.00000B1.00000*%
%ADD10C,.127*%
%ADD11C,.254*%
%ADD12C,.15*%
G75*
%LPD*%
G75*
G54D10*
G01X-383540Y-444500D02*
Y-383540D01*
G01X-868680Y50800D02*
X-927100D01*
G01X-632460Y-411480D02*
Y-378460D01*
G01X-27940Y381000D02*
Y-203200D01*
X-688340D01*
Y457200D01*
X-104140D01*
X-27940Y381000D01*
G01X-866140Y302260D02*
X-904240D01*
G01X-535940Y635000D02*
Y690880D01*
G01X147320Y2540D02*
X205740D01*
G01X-132080Y-378460D02*
Y-414020D01*
G01X-10160Y594360D02*
Y520700D01*
X-53340Y563880D01*
X-10160Y607060D01*
Y594360D01*
G01X185420Y251460D02*
X149860D01*
G01X-281940Y635000D02*
Y668020D01*
G54D11*
G01X-883920Y-548640D02*
X132080D01*
Y-802640D01*
X-883920D01*
Y-548640D01*
G54D12*
G01X-2400000Y-900000D02*
Y900000D01*
X2400000D01*
Y-900000D01*
X-2400000D01*
G01X-1036560Y-507620D02*
Y492380D01*
X-2336560D01*
Y-507620D01*
X-1036560D01*
G01X250190Y-527480D02*
X298450Y-612140D01*
G01Y-527480D02*
X250190Y-612140D01*
G01X403860Y-527480D02*
Y-612140D01*
G01Y-493610D02*
X400640Y-491490D01*
Y-487260D01*
X403860Y-485140D01*
X407080Y-487260D01*
Y-491490D01*
X403860Y-493610D01*
G01X506050Y-612140D02*
Y-527480D01*
G01Y-548640D02*
X512490Y-538060D01*
X522140Y-529590D01*
X535010Y-527480D01*
X546270Y-529590D01*
X555920Y-538060D01*
X560750Y-552870D01*
Y-612140D01*
G01X633980Y-654470D02*
Y-527480D01*
G01Y-546520D02*
X642030Y-535940D01*
X650070Y-529590D01*
X662940Y-527480D01*
X674200Y-529590D01*
X685460Y-540170D01*
X690290Y-554990D01*
X691900Y-569810D01*
X690290Y-584630D01*
X685460Y-599440D01*
X675810Y-607910D01*
X662940Y-612140D01*
X651680Y-610020D01*
X640420Y-603680D01*
X633980Y-595210D01*
G01X768350Y-554990D02*
X819830D01*
X815000Y-540170D01*
X806960Y-531710D01*
X795700Y-527480D01*
X784440Y-529590D01*
X774780Y-535940D01*
X768350Y-550760D01*
X765130Y-563460D01*
Y-576160D01*
X768350Y-588860D01*
X776390Y-601560D01*
X786050Y-610020D01*
X797310Y-612140D01*
X808570Y-607910D01*
X819830Y-595210D01*
G01X894670Y-612140D02*
Y-527480D01*
G01Y-548640D02*
X901110Y-538060D01*
X910760Y-529590D01*
X923630Y-527480D01*
X934890Y-529590D01*
X944540Y-538060D01*
X949370Y-552870D01*
Y-612140D01*
G01X1029040Y-643890D02*
X1040300Y-652360D01*
X1053170Y-654470D01*
X1064430Y-652360D01*
X1074080Y-641770D01*
X1080520Y-626960D01*
Y-527480D01*
G01Y-544410D02*
X1074080Y-535940D01*
X1064430Y-529590D01*
X1053170Y-527480D01*
X1040300Y-531710D01*
X1032260Y-540170D01*
X1025820Y-554990D01*
X1022600Y-569810D01*
X1024210Y-582510D01*
X1030650Y-597330D01*
X1040300Y-607910D01*
X1053170Y-612140D01*
X1062820Y-610020D01*
X1074080Y-601560D01*
X1080520Y-593090D01*
G01X282490Y-737020D02*
X288330Y-729150D01*
X295150Y-725210D01*
X302940Y-723900D01*
X312670Y-726520D01*
X319490Y-733090D01*
X321440Y-740960D01*
X320460Y-748840D01*
X316570Y-755400D01*
X297100Y-768520D01*
X288330Y-777710D01*
X282490Y-790830D01*
X280540Y-802640D01*
X321440D01*
G01X379730Y-723900D02*
X371940Y-726520D01*
X366100Y-733090D01*
X362200Y-740960D01*
X359280Y-751460D01*
X358310Y-763270D01*
X359280Y-775080D01*
X362200Y-785580D01*
X366100Y-793460D01*
X371940Y-800020D01*
X379730Y-802640D01*
X387520Y-800020D01*
X393360Y-793460D01*
X397260Y-785580D01*
X400180Y-775080D01*
X401150Y-763270D01*
X400180Y-751460D01*
X397260Y-740960D01*
X393360Y-733090D01*
X387520Y-726520D01*
X379730Y-723900D01*
G01X439970Y-737020D02*
X445810Y-729150D01*
X452630Y-725210D01*
X460420Y-723900D01*
X470150Y-726520D01*
X476970Y-733090D01*
X478920Y-740960D01*
X477940Y-748840D01*
X474050Y-755400D01*
X454580Y-768520D01*
X445810Y-777710D01*
X439970Y-790830D01*
X438020Y-802640D01*
X478920D01*
G01X537210Y-723900D02*
X529420Y-726520D01*
X523580Y-733090D01*
X519680Y-740960D01*
X516760Y-751460D01*
X515790Y-763270D01*
X516760Y-775080D01*
X519680Y-785580D01*
X523580Y-793460D01*
X529420Y-800020D01*
X537210Y-802640D01*
X545000Y-800020D01*
X550840Y-793460D01*
X554740Y-785580D01*
X557660Y-775080D01*
X558630Y-763270D01*
X557660Y-751460D01*
X554740Y-740960D01*
X550840Y-733090D01*
X545000Y-726520D01*
X537210Y-723900D01*
G01X603290Y-776390D02*
X628610D01*
G01X694690Y-723900D02*
X686900Y-726520D01*
X681060Y-733090D01*
X677160Y-740960D01*
X674240Y-751460D01*
X673270Y-763270D01*
X674240Y-775080D01*
X677160Y-785580D01*
X681060Y-793460D01*
X686900Y-800020D01*
X694690Y-802640D01*
X702480Y-800020D01*
X708320Y-793460D01*
X712220Y-785580D01*
X715140Y-775080D01*
X716110Y-763270D01*
X715140Y-751460D01*
X712220Y-740960D01*
X708320Y-733090D01*
X702480Y-726520D01*
X694690Y-723900D01*
G01X752010Y-790830D02*
X757850Y-797390D01*
X764670Y-801330D01*
X773430Y-802640D01*
X782190Y-800020D01*
X789010Y-794770D01*
X793880Y-785580D01*
X794850Y-775080D01*
X792900Y-764580D01*
X788030Y-758020D01*
X781220Y-752770D01*
X774400Y-751460D01*
X767590Y-752770D01*
X758830Y-758020D01*
X761750Y-723900D01*
X788030D01*
G01X839510Y-776390D02*
X864830D01*
G01X930910Y-802640D02*
Y-723900D01*
X919230Y-739650D01*
G01Y-802640D02*
X942590D01*
G01X1007700D02*
X1009650Y-785580D01*
X1012570Y-771150D01*
X1016470Y-758020D01*
X1021330Y-743590D01*
X1029120Y-723900D01*
X990180D01*
G01X261880Y490500D02*
Y-109500D01*
X611880D01*
Y490500D01*
X261880D01*
G01X1145540Y-662940D02*
Y604520D01*
X1767840D01*
Y-662940D01*
X1145540D01*
G01X1148080Y-175260D02*
X1770380D01*
X1778000Y-167640D01*
G01X1150620Y81280D02*
X1767840D01*
X1775460Y73660D01*
G01X1140460Y-419100D02*
X1765300D01*
G01X698810Y296030D02*
X688230Y283160D01*
X681880Y268680D01*
Y255820D01*
X688230Y242950D01*
X698810Y233300D01*
X713630Y228470D01*
X728440Y231690D01*
X741150Y239730D01*
X749610Y254210D01*
X753850Y273510D01*
X762310Y284770D01*
X777130Y289590D01*
X791950Y286370D01*
X802530Y278330D01*
X808880Y267080D01*
Y255820D01*
X804650Y244560D01*
X794060Y234910D01*
G01X808880Y181000D02*
X681880Y158490D01*
X808880Y132750D01*
X681880Y107020D01*
X808880Y84500D01*
G01X681880Y3250D02*
X808880D01*
X783480Y22550D01*
G01X681880D02*
Y-16050D01*
G01X1151470Y718820D02*
X1159510Y706120D01*
X1169160Y697650D01*
X1180420Y693420D01*
X1193290Y697650D01*
X1202940Y706120D01*
X1212600Y718820D01*
X1215810Y735750D01*
Y820420D01*
G01X1313180D02*
Y693420D01*
G01X1276180Y820420D02*
X1350180D01*
G01X1402500Y693420D02*
X1442720Y820420D01*
X1482940Y693420D01*
G01X1468460Y737870D02*
X1416980D01*
G01X1581910Y756920D02*
X1614090D01*
Y718820D01*
X1604430Y706120D01*
X1593170Y697650D01*
X1577090Y693420D01*
X1561000Y697650D01*
X1549740Y706120D01*
X1540090Y718820D01*
X1533650Y733640D01*
X1530430Y750570D01*
Y765390D01*
X1533650Y778080D01*
X1540090Y792910D01*
X1549740Y805600D01*
X1559390Y814070D01*
X1572260Y820420D01*
X1583520D01*
X1596390Y816190D01*
X1606040Y807720D01*
G01X1672840Y689190D02*
X1730760Y820420D01*
G01X1797560Y710350D02*
X1810430Y699770D01*
X1824910Y693420D01*
X1837770D01*
X1850640Y699770D01*
X1860300Y710350D01*
X1865120Y725170D01*
X1861910Y739980D01*
X1853860Y752690D01*
X1839380Y761150D01*
X1820080Y765390D01*
X1808820Y773850D01*
X1803990Y788670D01*
X1807210Y803490D01*
X1815250Y814070D01*
X1826510Y820420D01*
X1837770D01*
X1849040Y816190D01*
X1858690Y805600D01*
G01X1912620Y820420D02*
X1935140Y693420D01*
X1960880Y820420D01*
X1986620Y693420D01*
X2009140Y820420D01*
G01X2055030Y693420D02*
Y820420D01*
X2087200D01*
X2100070Y814070D01*
X2109720Y805600D01*
X2117770Y792910D01*
X2124200Y778080D01*
X2125810Y756920D01*
X2124200Y735750D01*
X2117770Y720930D01*
X2109720Y708230D01*
X2100070Y699770D01*
X2087200Y693420D01*
X2055030D01*
G01X1127760Y358140D02*
X1762760D01*
G01X1230630Y-513080D02*
Y-591820D01*
G01X1208240Y-513080D02*
X1253020D01*
G01X1288920Y-591820D02*
X1329820Y-513080D01*
G01X1288920D02*
X1329820Y-591820D01*
G01X1366690D02*
Y-513080D01*
X1386160D01*
X1393950Y-517020D01*
X1399790Y-522270D01*
X1404660Y-530140D01*
X1408560Y-539330D01*
X1409530Y-552450D01*
X1408560Y-565570D01*
X1404660Y-574760D01*
X1399790Y-582640D01*
X1393950Y-587880D01*
X1386160Y-591820D01*
X1366690D01*
G01X1511470Y-568450D02*
X1517310Y-577640D01*
X1525100Y-582890D01*
X1533860Y-584200D01*
X1541650Y-582890D01*
X1549440Y-576330D01*
X1554310Y-568450D01*
X1555280Y-560580D01*
X1553340Y-551390D01*
X1546520Y-544830D01*
X1539710Y-542200D01*
X1530940D01*
G01X1539710D02*
X1545550Y-538270D01*
X1550420Y-531710D01*
X1552360Y-523830D01*
X1550420Y-515960D01*
X1545550Y-509400D01*
X1536780Y-505460D01*
X1528020Y-506770D01*
X1519260Y-512020D01*
G01X1587290Y-505460D02*
X1611630Y-584200D01*
X1635970Y-505460D01*
G01X1668950Y-568450D02*
X1674790Y-577640D01*
X1682580Y-582890D01*
X1691340Y-584200D01*
X1699130Y-582890D01*
X1706920Y-576330D01*
X1711790Y-568450D01*
X1712760Y-560580D01*
X1710820Y-551390D01*
X1704000Y-544830D01*
X1697190Y-542200D01*
X1688420D01*
G01X1697190D02*
X1703030Y-538270D01*
X1707900Y-531710D01*
X1709840Y-523830D01*
X1707900Y-515960D01*
X1703030Y-509400D01*
X1694260Y-505460D01*
X1685500Y-506770D01*
X1676740Y-512020D01*
G01X1457960Y599440D02*
Y-650240D01*
X1465580Y-657860D01*
G01X1798980Y-710560D02*
X2198980D01*
Y639440D01*
X1798980D01*
Y-710560D01*
G01X1225550Y256540D02*
Y177800D01*
G01X1203160Y256540D02*
X1247940D01*
G01X1282870Y177800D02*
Y256540D01*
X1302340D01*
X1310130Y252600D01*
X1315970Y247350D01*
X1320840Y239480D01*
X1324740Y230290D01*
X1325710Y217170D01*
X1324740Y204050D01*
X1320840Y194860D01*
X1315970Y186980D01*
X1310130Y181740D01*
X1302340Y177800D01*
X1282870D01*
G01X1383030D02*
X1375240Y179110D01*
X1368430Y184360D01*
X1362580Y192230D01*
X1358690Y201420D01*
X1356740Y211920D01*
Y222420D01*
X1358690Y232920D01*
X1362580Y242110D01*
X1368430Y249980D01*
X1375240Y255230D01*
X1383030Y256540D01*
X1390820Y255230D01*
X1397630Y249980D01*
X1403480Y242110D01*
X1407370Y232920D01*
X1409320Y222420D01*
Y211920D01*
X1407370Y201420D01*
X1403480Y192230D01*
X1397630Y184360D01*
X1390820Y179110D01*
X1383030Y177800D01*
G01X1535430Y261620D02*
Y182880D01*
G01X1513040Y261620D02*
X1557820D01*
G01X1635590Y255060D02*
X1629750Y259000D01*
X1622930Y261620D01*
X1615140D01*
X1606380Y257680D01*
X1599570Y251120D01*
X1594700Y243250D01*
X1590800Y230120D01*
X1589830Y218310D01*
X1591780Y206500D01*
X1594700Y198630D01*
X1600540Y190750D01*
X1607350Y185500D01*
X1614170Y182880D01*
X1620990D01*
X1627800Y185500D01*
X1633640Y189440D01*
X1638510Y194690D01*
G01X1671490Y182880D02*
Y261620D01*
G01X1708490D02*
X1671490Y213060D01*
G01X1714330Y182880D02*
X1688040Y235370D01*
G01X1541270Y-36830D02*
X1560750D01*
Y-60450D01*
X1554900Y-68330D01*
X1548090Y-73580D01*
X1538350Y-76200D01*
X1528610Y-73580D01*
X1521800Y-68330D01*
X1515960Y-60450D01*
X1512060Y-51270D01*
X1510110Y-40770D01*
Y-31580D01*
X1512060Y-23710D01*
X1515960Y-14520D01*
X1521800Y-6650D01*
X1527640Y-1400D01*
X1535430Y2540D01*
X1542250D01*
X1550030Y-80D01*
X1555880Y-5330D01*
G01X1591780Y-76200D02*
Y2540D01*
X1636560Y-76200D01*
Y2540D01*
G01X1671490Y-76200D02*
Y2540D01*
X1690960D01*
X1698750Y-1400D01*
X1704590Y-6650D01*
X1709460Y-14520D01*
X1713360Y-23710D01*
X1714330Y-36830D01*
X1713360Y-49950D01*
X1709460Y-59140D01*
X1704590Y-67020D01*
X1698750Y-72260D01*
X1690960Y-76200D01*
X1671490D01*
G01X1203540Y-330200D02*
Y-251460D01*
X1227880D01*
X1235670Y-255400D01*
X1240540Y-260650D01*
X1242480Y-271150D01*
X1240540Y-281640D01*
X1234690Y-288200D01*
X1227880Y-292140D01*
X1203540D01*
G01X1227880D02*
X1242480Y-330200D01*
G01X1281300D02*
X1322200Y-251460D01*
G01X1281300D02*
X1322200Y-330200D01*
G01X1359070D02*
Y-251460D01*
X1378540D01*
X1386330Y-255400D01*
X1392170Y-260650D01*
X1397040Y-268520D01*
X1400940Y-277710D01*
X1401910Y-290830D01*
X1400940Y-303950D01*
X1397040Y-313140D01*
X1392170Y-321020D01*
X1386330Y-326260D01*
X1378540Y-330200D01*
X1359070D01*
G01X1535430Y-251460D02*
Y-330200D01*
G01X1513040Y-251460D02*
X1557820D01*
G01X1588850Y-330200D02*
Y-251460D01*
X1614170Y-317080D01*
X1639490Y-251460D01*
Y-330200D01*
G01X1672460Y-319700D02*
X1680250Y-326260D01*
X1689020Y-330200D01*
X1696800D01*
X1704590Y-326260D01*
X1710440Y-319700D01*
X1713360Y-310510D01*
X1711410Y-301330D01*
X1706540Y-293460D01*
X1697780Y-288200D01*
X1686090Y-285580D01*
X1679280Y-280330D01*
X1676360Y-271150D01*
X1678310Y-261960D01*
X1683170Y-255400D01*
X1689990Y-251460D01*
X1696800D01*
X1703620Y-254080D01*
X1709460Y-260650D01*
G01X1224450Y-72010D02*
X1230290Y-78570D01*
X1237110Y-82510D01*
X1245870Y-83820D01*
X1254630Y-81200D01*
X1261450Y-75950D01*
X1266320Y-66760D01*
X1267290Y-56260D01*
X1265340Y-45760D01*
X1260470Y-39200D01*
X1253660Y-33950D01*
X1246840Y-32640D01*
X1240030Y-33950D01*
X1231270Y-39200D01*
X1234190Y-5080D01*
X1260470D01*
G01X1300270D02*
X1324610Y-83820D01*
X1348950Y-5080D01*
G01X1230630Y518160D02*
Y439420D01*
G01X1208240Y518160D02*
X1253020D01*
G01X1287950Y439420D02*
Y518160D01*
X1307420D01*
X1315210Y514220D01*
X1321050Y508970D01*
X1325920Y501100D01*
X1329820Y491910D01*
X1330790Y478790D01*
X1329820Y465670D01*
X1325920Y456480D01*
X1321050Y448600D01*
X1315210Y443360D01*
X1307420Y439420D01*
X1287950D01*
G01X1376430Y518160D02*
X1399790D01*
G01X1388110D02*
Y439420D01*
G01X1376430D02*
X1399790D01*
G01X1521040Y444500D02*
Y523240D01*
X1545380D01*
X1553170Y519300D01*
X1558040Y514050D01*
X1559980Y503550D01*
X1558040Y493060D01*
X1552190Y486500D01*
X1545380Y482560D01*
X1521040D01*
G01X1545380D02*
X1559980Y444500D01*
G01X1598800Y455000D02*
X1606590Y448440D01*
X1615360Y444500D01*
X1623140D01*
X1630930Y448440D01*
X1636780Y455000D01*
X1639700Y464190D01*
X1637750Y473370D01*
X1632880Y481240D01*
X1624120Y486500D01*
X1612430Y489120D01*
X1605620Y494370D01*
X1602700Y503550D01*
X1604650Y512740D01*
X1609510Y519300D01*
X1616330Y523240D01*
X1623140D01*
X1629960Y520620D01*
X1635800Y514050D01*
G01X1697990Y523240D02*
Y444500D01*
G01X1675600Y523240D02*
X1720380D01*
M02*
