G04 ================== begin FILE IDENTIFICATION RECORD ==================*
G04 Layout Name:  cmsis_dap_receive.brd*
G04 Film Name:    TOP*
G04 File Format:  Gerber RS274X*
G04 File Origin:  Cadence Allegro -unreleased*
G04 Origin Date:  Mon May 18 05:33:54 2020*
G04 *
G04 Layer:  ETCH/TOP*
G04 Layer:  PIN/TOP*
G04 Layer:  VIA CLASS/TOP*
G04 *
G04 Offset:    (0.0000 0.0000)*
G04 Mirror:    No*
G04 Mode:      Positive*
G04 Rotation:  0*
G04 FullContactRelief:  No*
G04 UndefLineWidth:     0.2000*
G04 ================== end FILE IDENTIFICATION RECORD ====================*
%FSLAX25Y25*MOMM*%
%IR0*IPPOS*OFA0.00000B0.00000*MIA0B0*SFA1.00000B1.00000*%
%ADD14R,.25X1.52*%
%ADD15R,1.52X.25*%
%ADD16C,.65*%
%ADD11C,.6096*%
%ADD10R,1.X1.5*%
%ADD17R,1.016X1.524*%
%ADD12C,1.6*%
%ADD13R,1.6X1.6*%
%ADD18C,.254*%
%ADD19C,2.2544*%
G75*
%LPD*%
G75*
G36*
G01X-2288540Y-452120D02*
X-2143760D01*
Y-522690D01*
X-2173940Y-552870D01*
Y-777240D01*
X-2268220D01*
X-2273610Y-779470D01*
X-2319020Y-734060D01*
Y-482600D01*
X-2288540Y-452120D01*
G37*
G36*
G01X-1994280Y-732620D02*
G03X-1964420Y-765210I32715J0D01*
G01X-1962580Y-765380D01*
X-1953260Y-774700D01*
Y-835660D01*
X-1967590Y-849990D01*
X-2141220D01*
Y-758250D01*
G03X-2128840Y-732620I-20341J25630D01*
G01Y-582620D01*
G03X-2134050Y-564910I-32719J-4D01*
G01X-2136260Y-561460D01*
X-2113280Y-538480D01*
X-2011680D01*
X-1993900Y-556260D01*
Y-577630D01*
X-1993950Y-577990D01*
G03X-1994280Y-582620I32390J-4635D01*
G01Y-732620D01*
G37*
G36*
G01X-998220Y879990D02*
X2379990D01*
Y-879990D01*
X-998220D01*
Y262830D01*
G03X-968560Y317500I-35555J54670D01*
G03X-975280Y346330I-65219J-4D01*
G02X-966160Y360980I9114J4490D01*
G01X-904040D01*
X-903050Y360540D01*
G03X-895680Y357980I18533J41466D01*
G01X-891850Y357010D01*
Y339490D01*
G03X-889370Y327000I32719J5D01*
G03X-891850Y314510I30239J-12495D01*
G01Y289510D01*
G03X-889360Y277000I32718J9D01*
G03X-891850Y264490I30228J-12519D01*
G01Y239490D01*
G03X-889370Y227000I32719J5D01*
G03X-891850Y214510I30239J-12495D01*
G01Y189510D01*
G03X-889360Y177000I32718J9D01*
G03X-891850Y164490I30228J-12519D01*
G01Y139490D01*
G03X-889370Y127000I32719J5D01*
G03X-891850Y114510I30239J-12495D01*
G01Y89510D01*
G03X-875000Y60900I32714J0D01*
G02Y43120I-4925J-8890D01*
G03X-891850Y14510I15864J-28610D01*
G01Y-10490D01*
G03X-889360Y-23000I32718J9D01*
G03X-891850Y-35510I30228J-12519D01*
G01Y-60510D01*
G03X-881550Y-84340I32716J0D01*
G02X-888510Y-101900I-6962J-7400D01*
G01X-944580D01*
Y-785710D01*
X-902550Y-827740D01*
X-659550D01*
X-599740Y-767930D01*
Y-762760D01*
G02X-582420Y-755550I10160J3D01*
G03X-502920Y-788360I79500J79911D01*
G03Y-562920I0J112720D01*
G03X-582420Y-595730I0J-112721D01*
G02X-599740Y-588520I-7160J7207D01*
G01Y-532550D01*
X-663240Y-469050D01*
Y-416220D01*
G02X-651320Y-406220I10158J-4D01*
G03X-645650Y-406710I5642J32232D01*
G01X-570630D01*
G03X-558140Y-404230I-5J32719D01*
G03X-545650Y-406710I12495J30239D01*
G01X-470630D01*
G03X-458140Y-404230I-5J32719D01*
G03X-445650Y-406710I12495J30239D01*
G01X-428550D01*
Y-518160D01*
G03X-415250Y-550280I45422J-5D01*
G01X-384770Y-580760D01*
G03X-352650Y-594060I32115J32122D01*
G01X-348910D01*
G02X-340650Y-610120I-7J-10158D01*
G03X-361640Y-675640I91733J-65510D01*
G03X-136200I112720J0D01*
G03X-157190Y-610120I-112723J10D01*
G02X-148930Y-594060I8267J5902D01*
G01X1761500D01*
G03X1770740Y-593110I0J45411D01*
G03X1871980Y-656280I101240J49542D01*
G03Y-430840I0J112720D01*
G03X1768790Y-498190I0J-112726D01*
G03X1766580Y-498140I-2132J-45372D01*
G03X1745710Y-503220I0J-45410D01*
G01X1635320D01*
G02X1628140Y-485880I4J10158D01*
G01X1762920Y-351090D01*
G02X1778530Y-352590I7187J-7183D01*
G03X1871980Y-402280I93450J63029D01*
G03Y-176840I0J112720D01*
G03X1770140Y-241240I0J-112723D01*
G01X1768770Y-244140D01*
X1760220D01*
G03X1728100Y-257440I-5J-45422D01*
G01X1535670Y-449880D01*
X92060D01*
G02X83760Y-433860I-3J10159D01*
G03X95700Y-396240I-53281J37615D01*
G03X75900Y-349440I-65209J0D01*
G01Y-241090D01*
X98970Y-218030D01*
G03X110880Y-197060I-32124J32112D01*
G01X111850Y-193230D01*
X142850D01*
G03X175570Y-160510I0J32720D01*
G01Y-135510D01*
G03X173080Y-123000I-32718J-9D01*
G03X175570Y-110490I-30228J12519D01*
G01Y-85490D01*
G03X173090Y-73000I-32719J-5D01*
G03X175570Y-60510I-30239J12495D01*
G01Y-35510D01*
G03X173080Y-23000I-32718J-9D01*
G03X175570Y-10490I-30228J12519D01*
G01Y6570D01*
X1451530D01*
G03X1483650Y19870I5J45422D01*
G01X1831110Y367340D01*
X1834140Y366260D01*
G03X1871980Y359720I37837J106181D01*
G03X1984700Y472440I0J112720D01*
G03X1966860Y533300I-112730J0D01*
G02X1975410Y548940I8554J5481D01*
G01X1985250D01*
X2020880Y513310D01*
X2019800Y510280D01*
G03X2013260Y472440I106181J-37837D01*
G03X2125980Y359720I112720J0D01*
G03X2207810Y394910I6J112723D01*
G02X2225340Y387930I7372J-6988D01*
G01Y382030D01*
X2166810Y323500D01*
G03X2125980Y331160I-40843J-105058D01*
G03X2238700Y218440I0J-112720D01*
G03X2232160Y256280I-112721J3D01*
G01X2231080Y259310D01*
X2261340Y289560D01*
G02X2278680Y282380I7182J-7184D01*
G01Y-72630D01*
X2166850Y-184460D01*
X2163820Y-183380D01*
G03X2125980Y-176840I-37837J-106181D01*
G03X2238700Y-289560I0J-112720D01*
G03X2232160Y-251720I-112721J3D01*
G01X2231080Y-248690D01*
X2356220Y-123560D01*
G03X2369520Y-91440I-32122J32115D01*
G01Y599440D01*
G03X2356220Y631560I-45422J5D01*
G01X2224140Y763640D01*
G03X2192020Y776940I-32115J-32122D01*
G01X1338580D01*
G03X1306460Y763640I-5J-45422D01*
G01X890260Y347430D01*
X189630D01*
G02X182450Y364770I4J10158D01*
G01X205440Y387770D01*
Y463130D01*
X171030Y497540D01*
X-37910D01*
Y627990D01*
G03X-70630Y660710I-32720J0D01*
G01X-80690D01*
G02X-89670Y675620I0J10159D01*
G03X-82100Y706120I-57658J30500D01*
G03X-147320Y771340I-65220J0D01*
G03X-194120Y751540I0J-65209D01*
G01X-230400D01*
G03X-262520Y738240I-5J-45422D01*
G01X-308140Y692610D01*
X-353760Y738240D01*
G03X-385880Y751540I-32115J-32122D01*
G01X-504380D01*
G03X-551180Y771340I-46800J-45409D01*
G03X-616400Y706120I0J-65220D01*
G03X-608830Y675620I65228J0D01*
G02X-617810Y660710I-8980J-4751D01*
G01X-645650D01*
G03X-678370Y627990I0J-32720D01*
G01Y596990D01*
X-682200Y596020D01*
G03X-693420Y591520I11147J-44031D01*
G01X-941260D01*
G03X-988060Y611320I-46800J-45409D01*
G02X-998220Y621480I0J10160D01*
G01Y879990D01*
G37*
G36*
G01X-707090Y-143210D02*
G03X-701190Y-142670I-20J32722D01*
G01X-698560Y-142180D01*
X-690880Y-149860D01*
X-695960Y-154940D01*
Y-482600D01*
X-632460Y-546100D01*
Y-754380D01*
X-673100Y-795020D01*
X-889000D01*
X-911860Y-772160D01*
Y-162710D01*
X-907800Y-161870D01*
G03X-871670Y-140710I-13151J63880D01*
G03X-859130Y-143210I12544J30219D01*
G01X-707090D01*
G37*
G36*
G01X-514770Y-108920D02*
X-174450D01*
X-137060Y-178100D01*
X-137250Y-186190D01*
G02X-152910Y-194490I-10157J241D01*
G03X-170630Y-189270I-17729J-27497D01*
G01X-245650D01*
G03X-258140Y-191750I5J-32719D01*
G03X-270630Y-189270I-12495J-30239D01*
G01X-345650D01*
G03X-358140Y-191750I5J-32719D01*
G03X-370630Y-189270I-12495J-30239D01*
G01X-445650D01*
G03X-458140Y-191750I5J-32719D01*
G03X-470630Y-189270I-12495J-30239D01*
G01X-545650D01*
G03X-558140Y-191750I5J-32719D01*
G03X-570630Y-189270I-12495J-30239D01*
G01X-582850D01*
G02X-586450Y-180600I-4J5081D01*
G01X-514770Y-108920D01*
G37*
G36*
G01X-451010Y361660D02*
G03X-446830Y366480I-32140J32095D01*
G02X-428550Y360370I8120J-6106D01*
G01Y329100D01*
X-458730Y298920D01*
X-460790Y298890D01*
G03X-524960Y233680I1048J-65210D01*
G03X-485700Y173850I65219J0D01*
G02X-482430Y157480I-4043J-9319D01*
G01X-526390Y111890D01*
G02X-543860Y118940I-7311J7053D01*
G01Y268820D01*
X-451010Y361660D01*
G37*
G36*
G01X-25400Y464820D02*
X157480D01*
X172720Y449580D01*
Y428050D01*
G03X147650Y397410I35560J-54672D01*
G01X66850D01*
G03X62810Y397230I0J-45428D01*
G01X62590Y397210D01*
X-9150D01*
G03X-41870Y364490I0J-32720D01*
G01Y359450D01*
X-58420Y342900D01*
Y279400D01*
X-73430Y227360D01*
X-100700Y200100D01*
G03X-114000Y167980I32122J-32115D01*
G01Y105220D01*
G03X-133800Y58420I45409J-46800D01*
G03X-129740Y35760I65221J-8D01*
G01X-129150Y34190D01*
X-134620Y15240D01*
X-119380Y-20320D01*
X-50800Y-22860D01*
X-41750Y-31910D01*
X-41840Y-34140D01*
G03X-41870Y-35510I32689J-1401D01*
G01Y-60510D01*
G03X-39390Y-73000I32719J5D01*
G03X-41870Y-85490I30239J-12495D01*
G01Y-110490D01*
G03X-39380Y-123000I32718J9D01*
G03X-41870Y-135510I30228J-12519D01*
G01Y-160510D01*
G03X-26040Y-188530I32713J0D01*
G01X-23670Y-189960D01*
X-18820Y-353500D01*
X-20020Y-354970D01*
G03X-33670Y-384460I50496J-41277D01*
G01X-34430Y-388620D01*
X-71120D01*
X-78630Y-388120D01*
G02X-88070Y-377040I675J10137D01*
G03X-87930Y-373990I-32581J3024D01*
G01Y-302250D01*
X-87910Y-302030D01*
G03X-87730Y-297990I-45248J4040D01*
G01Y-166570D01*
G03X-101030Y-134450I-45422J5D01*
G01X-112560Y-122930D01*
X-112590Y-120870D01*
G03X-177800Y-56700I-65210J-1048D01*
G03X-224310Y-76200I0J-65216D01*
G01X-528320D01*
X-624840Y-172720D01*
X-744220D01*
X-749900Y-167040D01*
X-726920Y-143210D01*
X-707130D01*
G03X-674410Y-110490I0J32720D01*
G01Y-88760D01*
X-459370Y134250D01*
X-447040Y129540D01*
X-246380D01*
X-200660Y347980D01*
X-91440D01*
X-25400Y414020D01*
Y464820D01*
G37*
G36*
G01X-44900Y208200D02*
G02X-28980Y213470I9763J-2812D01*
G03X-25020Y210880I19841J26014D01*
G02Y193100I-4925J-8890D01*
G03X-41870Y164490I15864J-28610D01*
G01Y139490D01*
G03X-39390Y127000I32719J5D01*
G03X-41870Y114510I30239J-12495D01*
G01Y89510D01*
G03X-39380Y77000I32718J9D01*
G03X-41870Y64490I30228J-12519D01*
G01Y39490D01*
G03X-39390Y27000I32719J5D01*
G03X-41590Y18760I30241J-12488D01*
G02X-52040Y9930I-10074J1323D01*
G01X-97470Y11610D01*
X-99940Y17390D01*
X-44900Y208200D01*
G37*
%LPC*%
G75*
G36*
G01X353360Y-230200D02*
Y-77800D01*
G02X386080Y-45080I32720J0D01*
G01X487680D01*
G02X520400Y-77800I0J-32720D01*
G01Y-230200D01*
G02X500010Y-260510I-32723J0D01*
G03X494130Y-272910I3830J-9410D01*
G02X497020Y-292100I-62329J-19199D01*
G02X366580I-65220J0D01*
G02X372330Y-265320I65221J4D01*
G03X370170Y-258790I-4629J2091D01*
G02X353360Y-230200I15908J28590D01*
G37*
G54D19*
X2125980Y-543560D03*
X1871980Y-35560D03*
Y218440D03*
%LPD*%
G75*
G54D10*
X-1911560Y-657620D03*
X-2061560D03*
X-2211560D03*
Y642380D03*
X-2061560D03*
X-1911560D03*
X-1161560Y-657620D03*
X-1311560D03*
X-1461560D03*
X-1611560D03*
X-1761560D03*
Y642380D03*
X-1611560D03*
X-1461560D03*
X-1311560D03*
X-1161560D03*
G54D11*
X-2011680Y-810260D03*
X-2085340D03*
X-2209800Y-528320D03*
X-2283460D03*
X-149860Y139700D03*
G54D12*
X-502920Y-675640D03*
X5080D03*
X-248920D03*
X1871980Y-543560D03*
Y-289560D03*
Y-35560D03*
Y218440D03*
Y472440D03*
X2125980Y-543560D03*
Y218440D03*
Y-35560D03*
Y-289560D03*
Y472440D03*
G54D13*
X-756920Y-675640D03*
G54D14*
X-383130Y-297990D03*
X-433150D03*
X-483130D03*
X-533150D03*
X-583130D03*
X-633150D03*
Y551990D03*
X-583130D03*
X-533150D03*
X-483130D03*
X-433150D03*
X-383130D03*
X-83130Y-297990D03*
X-133150D03*
X-183130D03*
X-233150D03*
X-283130D03*
X-333150D03*
Y551990D03*
X-283130D03*
X-233150D03*
X-183130D03*
X-133150D03*
X-83130D03*
G54D15*
X-783130Y-148010D03*
Y-97990D03*
Y-48010D03*
Y2010D03*
Y51990D03*
Y102010D03*
Y151990D03*
Y202010D03*
Y251990D03*
Y302010D03*
Y351990D03*
Y402010D03*
X66850Y151990D03*
Y102010D03*
Y51990D03*
Y2010D03*
Y-48010D03*
Y-97990D03*
Y-148010D03*
Y402010D03*
Y351990D03*
Y302010D03*
Y251990D03*
Y202010D03*
G54D16*
X-920950Y-97990D03*
X-920670Y51990D03*
X-462280Y332740D03*
X-551180Y706120D03*
X-459740Y233680D03*
X-1033780Y317500D03*
X-988060Y546100D03*
X-68580Y58420D03*
X-177800Y-121920D03*
X431800Y-292100D03*
X-259080Y-431800D03*
X30480Y-396240D03*
X-133150Y421640D03*
X208280Y373380D03*
X-147320Y706120D03*
X1198880Y226060D03*
G54D17*
X436880Y-154000D03*
Y535000D03*
G54D18*
G01X-783130Y402010D02*
X-884530D01*
X-888920Y406400D01*
X-1371600D01*
X-1911560Y-133560D01*
Y-657620D01*
G01X-1033780Y317500D02*
X-1328420D01*
X-1761560Y-115640D01*
Y-657620D01*
G01X-783130Y-97990D02*
X-920950D01*
G01X-783130Y51990D02*
X-920670D01*
G01X-571500Y-58420D02*
X-589280Y-40640D01*
G01D02*
Y287630D01*
X-483130Y393780D01*
Y551990D01*
G01X1871980Y-543560D02*
X1766580D01*
X1761500Y-548640D01*
X-352650D01*
X-383130Y-518160D01*
Y-297990D01*
G01X-462280Y332740D02*
X-433150Y361870D01*
G01D02*
Y551990D01*
G01X-551180Y706120D02*
X-385880D01*
X-333150Y653390D01*
Y551990D01*
G01X-459740Y233680D02*
X-383130Y310290D01*
Y551990D01*
G01X-988060Y546100D02*
X-676940D01*
X-671050Y551990D01*
X-633150D01*
G01X-133150Y-297990D02*
Y-166570D01*
X-177800Y-121920D01*
G01X-68580Y58420D02*
Y167980D01*
X-34550Y202010D01*
G01X-259080Y-431800D02*
X-248920Y-421640D01*
X-232370D01*
X-183130Y-372400D01*
Y-297990D01*
G01X30480Y-396240D02*
Y-222280D01*
X66850Y-185910D01*
Y-148010D01*
G01X2125980Y472440D02*
X2004060Y594360D01*
X1778000D01*
X1285650Y102010D01*
X66850D01*
G01Y51990D02*
X1451530D01*
X1871980Y472440D01*
G01X-333150Y-297990D02*
Y-469900D01*
X-307750Y-495300D01*
X1554480D01*
X1760220Y-289560D01*
X1871980D01*
G01X66850Y151990D02*
X1124810D01*
X1198880Y226060D01*
G01X-133150Y551990D02*
Y421640D01*
G01X66850Y351990D02*
X186890D01*
G01X-34550Y202010D02*
X66850D01*
G01X186890Y351990D02*
X208280Y373380D01*
G01X-147320Y706120D02*
X-230400D01*
X-283130Y653390D01*
Y551990D01*
G01X2125980Y218440D02*
X2270760Y363220D01*
Y546100D01*
X2157730Y659130D01*
X1410970D01*
X1003830Y251990D01*
X66850D01*
G01X2125980Y-289560D02*
X2324100Y-91440D01*
Y599440D01*
X2192020Y731520D01*
X1338580D01*
X909070Y302010D01*
X66850D01*
G01X426720Y-292100D02*
X431800D01*
G01X436880Y-154000D02*
Y-287020D01*
X431800Y-292100D01*
M02*
