G04 ================== begin FILE IDENTIFICATION RECORD ==================*
G04 Layout Name:  wireless_cmsis_dap_sent_V2.brd*
G04 Film Name:    BOTTOM*
G04 File Format:  Gerber RS274X*
G04 File Origin:  Cadence Allegro -unreleased*
G04 Origin Date:  Mon May 18 05:54:35 2020*
G04 *
G04 Layer:  BOARD GEOMETRY/DESIGN_OUTLINE*
G04 Layer:  ETCH/BOTTOM*
G04 Layer:  PIN/BOTTOM*
G04 Layer:  VIA CLASS/BOTTOM*
G04 *
G04 Offset:    (0.0000 0.0000)*
G04 Mirror:    No*
G04 Mode:      Positive*
G04 Rotation:  0*
G04 FullContactRelief:  No*
G04 UndefLineWidth:     0.1500*
G04 ================== end FILE IDENTIFICATION RECORD ====================*
%FSLAX25Y25*MOIN*%
%IR0*IPPOS*OFA0.00000B0.00000*MIA0B0*SFA1.00000B1.00000*%
%ADD14R,.047244X.035433*%
%ADD15R,.035433X.047244*%
%ADD16R,.041732X.025591*%
%ADD13R,.031496X.031496*%
%ADD10C,.024*%
%ADD20R,.03937X.043307*%
%ADD19R,.086614X.07874*%
%ADD12O,.137795X.07874*%
%ADD11C,.047244*%
%ADD22C,.055118*%
%ADD18C,.062992*%
%ADD17R,.062992X.062992*%
%ADD21R,.070866X.070866*%
%ADD23C,.01*%
%ADD24C,.006*%
%ADD25C,.013937*%
%ADD26C,.005906*%
%ADD28C,.075606*%
%ADD27C,.127339*%
G75*
%LPD*%
G75*
G36*
G01X-98425Y39370D02*
X98425D01*
Y-39370D01*
X33336D01*
G02X33053Y-38687I0J400D01*
G01X34269Y-37471D01*
Y-37432D01*
X37103Y-34597D01*
Y6605D01*
X28062Y15646D01*
X8670D01*
X7154Y14130D01*
X7014Y14247D01*
G03X6317Y14505I-715J-861D01*
G03X5869Y15357I-1592J-292D01*
G01X3698Y17528D01*
X3696Y17609D01*
G03X1378Y19878I-2319J-50D01*
G03X-941Y17559I0J-2319D01*
G03X-928Y17310I2319J0D01*
G02X-1325Y16867I-398J-43D01*
G01X-1551D01*
Y17082D01*
X-1548Y17096D01*
G03X-1531Y17335I-1601J239D01*
G01Y18948D01*
X-1368Y18979D01*
G03X-456Y20079I-207J1100D01*
G01Y23228D01*
G03X-1575Y24347I-1119J0D01*
G01X-4724D01*
G03X-5843Y23228I0J-1119D01*
G01Y20079D01*
G03X-4931Y18979I1119J0D01*
G01X-4769Y18948D01*
Y18006D01*
X-5082Y17693D01*
G03X-5489Y17010I1145J-1144D01*
G01X-5531Y16867D01*
X-8268D01*
G03X-9387Y15748I0J-1119D01*
G01Y7874D01*
G03X-8268Y6755I1119J0D01*
G01X-8264D01*
G02X-7865Y6328I0J-400D01*
G03X-7870Y6174I2314J-154D01*
G03X-5551Y3855I2319J0D01*
G03X-3233Y6124I0J2319D01*
G01X-3231Y6205D01*
X-2792Y6643D01*
G03X-2691Y6755I-1146J1143D01*
G01X394D01*
G03X1513Y7874I0J1119D01*
G01Y14169D01*
G02X2195Y14452I400J0D01*
G01X2406Y14242D01*
X2289Y14101D01*
G03X2031Y13386I860J-715D01*
G01Y10236D01*
G03X3150Y9117I1119J0D01*
G01X6299D01*
G03X6485Y9133I-1J1119D01*
G02X6952Y8739I67J-394D01*
G01Y4104D01*
X8315Y2740D01*
X8178Y2599D01*
G03X7524Y984I1665J-1615D01*
G03X9843Y-1335I2319J0D01*
G03X11503Y-635I0J2319D01*
G01X14330D01*
X15968Y-2273D01*
Y-5433D01*
G03X17087Y-6552I1119J0D01*
G01X21024D01*
G03X22143Y-5433I0J1119D01*
G01Y1036D01*
G02X22668Y1416I400J0D01*
G03X22857Y1366I507J1537D01*
G03X23976Y259I1119J12D01*
G01X27126D01*
G03X28245Y1378I0J1119D01*
G01Y4528D01*
G03X27126Y5646I-1119J0D01*
G01X23976D01*
G03X22972Y5022I0J-1119D01*
G03X22704Y5044I-269J-1596D01*
G01X22143D01*
Y5591D01*
G03X21024Y6709I-1119J0D01*
G01X17087D01*
G03X16900Y6694I0J-1119D01*
G01X16798Y6676D01*
X16583Y6891D01*
X17353Y7661D01*
X28119D01*
X29865Y5915D01*
Y4325D01*
G03Y2368I1027J-978D01*
G01Y-12765D01*
X17056Y-25574D01*
X15183D01*
G03X15042Y-25915I0J-200D01*
G01X15878Y-26752D01*
X15499Y-27131D01*
G02X14941Y-27139I-283J283D01*
G03X14173Y-26834I-768J-813D01*
G01X11024D01*
G03X9905Y-27953I0J-1119D01*
G01Y-31102D01*
G03X9920Y-31289I1119J1D01*
G02X9526Y-31755I-394J-67D01*
G01X6222D01*
G02X5828Y-31289I0J400D01*
G03X5843Y-31102I-1103J187D01*
G01Y-27953D01*
G03X4724Y-26834I-1119J0D01*
G01X1575D01*
G03X837Y-27111I0J-1119D01*
G02X174Y-26810I-263J301D01*
G01Y-26046D01*
X-5581D01*
X-7353Y-27818D01*
X-20590D01*
G02X-20822Y-27093I0J400D01*
G03X-19039Y-23622I-2485J3471D01*
G03X-27576I-4269J0D01*
G03X-25792Y-27093I4269J0D01*
G02X-26024Y-27818I-233J-325D01*
G01X-30590D01*
G02X-30822Y-27093I0J400D01*
G03X-29039Y-23622I-2485J3471D01*
G03X-33307Y-19354I-4269J0D01*
G03X-36994Y-21471I0J-4269D01*
G02X-37739Y-21269I-345J202D01*
G01Y-6119D01*
X-19458D01*
X-18054Y-4715D01*
Y-836D01*
X-20560Y1670D01*
X-35034D01*
G02X-35317Y2353I0J400D01*
G01X-29261Y8409D01*
X-20757D01*
X-18999Y10167D01*
Y12826D01*
X-20127Y13954D01*
X-34576D01*
X-40048Y19426D01*
X-42117D01*
X-44190Y17353D01*
Y15363D01*
X-39515Y10689D01*
X-52411Y-2206D01*
G02X-53094Y-1924I-283J283D01*
G01Y472D01*
G03X-54213Y1591I-1119J0D01*
G01X-57362D01*
G03X-58481Y472I0J-1119D01*
G01Y-2677D01*
G03X-57569Y-3777I1119J0D01*
G01X-57406Y-3807D01*
Y-5164D01*
G02X-58089Y-5446I-400J0D01*
G01X-59576Y-3960D01*
X-59959D01*
Y-3656D01*
X-59873Y-3596D01*
G03X-59393Y-2677I-639J919D01*
G01Y472D01*
G03X-60512Y1591I-1119J0D01*
G01X-63661D01*
G03X-64780Y472I0J-1119D01*
G01Y-2677D01*
G03X-64337Y-3569I1119J0D01*
G02X-64296Y-4170I-242J-319D01*
G01X-65489Y-5363D01*
Y-20528D01*
X-59269D01*
Y-22700D01*
X-65739D01*
X-65778Y-22739D01*
X-70009D01*
X-70377Y-22371D01*
Y-16794D01*
X-70668D01*
G03X-72795Y-15398I-2128J-922D01*
G03X-74698Y-16391I0J-2319D01*
G02X-75358Y-16385I-328J229D01*
G03X-77283Y-15358I-1926J-1292D01*
G03X-79585Y-17391I0J-2319D01*
G01X-79593Y-17459D01*
X-81985Y-19852D01*
Y-30975D01*
X-80306Y-32654D01*
X-67568D01*
X-64261Y-29347D01*
X-58337D01*
X-58110Y-29574D01*
X-57883Y-29347D01*
X-57765D01*
X-57641Y-29224D01*
G02X-57300Y-29365I141J-142D01*
G01Y-36505D01*
X-57842Y-37047D01*
X-56203Y-38687D01*
G02X-56485Y-39370I-283J-283D01*
G01X-98425D01*
Y39370D01*
G37*
G36*
G01X-78465Y-17913D02*
X-71496D01*
Y-22835D01*
X-70472Y-23858D01*
X-65315D01*
X-65276Y-23819D01*
X-64187D01*
G03X-63504Y-24052I683J886D01*
G01X-59331D01*
G03X-58647Y-23819I0J1119D01*
G01X-57874D01*
Y-27874D01*
X-58228Y-28228D01*
X-64724D01*
X-68031Y-31535D01*
X-79843D01*
X-80866Y-30512D01*
Y-20315D01*
X-78465Y-17913D01*
G37*
G36*
G01X-54213Y-11513D02*
G03X-53094Y-10394I0J1119D01*
G01Y-7244D01*
G03X-54006Y-6144I-1119J0D01*
G01X-54169Y-6114D01*
Y-5546D01*
X-38268Y10354D01*
Y11024D01*
X-43071Y15827D01*
Y16890D01*
X-41654Y18307D01*
X-40512D01*
X-35039Y12835D01*
X-20591D01*
X-20118Y12362D01*
Y10630D01*
X-21220Y9528D01*
X-29724D01*
X-31414Y7838D01*
G03X-31831Y7423I1414J-1838D01*
G01X-31839Y7413D01*
X-38858Y394D01*
Y-24724D01*
X-34646Y-28937D01*
X-6890D01*
X-5118Y-27165D01*
X-945D01*
Y-31654D01*
X276Y-32874D01*
X22992D01*
X26654Y-29213D01*
X32638D01*
X33150Y-29724D01*
Y-37008D01*
X30906Y-39252D01*
X-54055D01*
X-56260Y-37047D01*
X-56181Y-36969D01*
Y-27645D01*
X-55535Y-26999D01*
Y-20683D01*
G02X-55058Y-20291I400J0D01*
G03X-54843Y-20312I215J1098D01*
G01X-50669D01*
G03X-49550Y-19193I0J1119D01*
G01Y-16634D01*
G03X-50669Y-15515I-1119J0D01*
G01X-54843D01*
G03X-55534Y-15754I0J-1119D01*
G02X-56181Y-15440I-247J315D01*
G01Y-11513D01*
X-54213D01*
G37*
G36*
G01X-63622Y-5079D02*
X-60039D01*
X-58858Y-6260D01*
Y-16339D01*
X-56654Y-18543D01*
Y-26535D01*
X-57467Y-27349D01*
G02X-58150Y-27066I-283J283D01*
G01Y-19882D01*
X-58622Y-19409D01*
X-58761D01*
X-58806Y-19386D01*
G03X-59331Y-19255I-526J-988D01*
G01X-63504D01*
G03X-64029Y-19386I0J-1119D01*
G01X-64073Y-19409D01*
X-64370D01*
Y-5827D01*
X-63622Y-5079D01*
G37*
G36*
G01X-40591Y-709D02*
X-39331Y551D01*
X-21024D01*
X-19173Y-1299D01*
Y-4252D01*
X-19921Y-5000D01*
X-40591D01*
Y-709D01*
G37*
G36*
G01X21378Y-34213D02*
X16024D01*
Y-28189D01*
X17638Y-26575D01*
X21969D01*
X22520Y-27126D01*
Y-33071D01*
X21378Y-34213D01*
G37*
G36*
G01X29173Y-38465D02*
X17461Y-26752D01*
X30984Y-13228D01*
Y6378D01*
X28583Y8780D01*
X16890D01*
X13780Y5669D01*
Y4449D01*
X12717Y3386D01*
X9252D01*
X8071Y4567D01*
Y13465D01*
X9134Y14528D01*
X27598D01*
X35984Y6142D01*
Y-34134D01*
X31654Y-38465D01*
X29173D01*
G37*
%LPC*%
G75*
G36*
G01X-64780Y4803D02*
Y7953D01*
G02X-63661Y9072I1119J0D01*
G01X-60512D01*
G02X-59393Y7953I0J-1119D01*
G01Y4803D01*
G02X-60512Y3684I-1119J0D01*
G01X-63661D01*
G02X-64780Y4803I0J1119D01*
G37*
G36*
G01X-58481D02*
Y7953D01*
G02X-57362Y9072I1119J0D01*
G01X-54213D01*
G02X-53094Y7953I0J-1119D01*
G01Y4803D01*
G02X-54213Y3684I-1119J0D01*
G01X-57362D01*
G02X-58481Y4803I0J1119D01*
G37*
G36*
G01X-5556Y-2818D02*
Y-2459D01*
X-5609Y-2402D01*
G02X-6224Y-829I1703J1573D01*
G02X-1587I2319J0D01*
G02X-2260Y-2463I-2319J0D01*
G01X-2318Y-2521D01*
Y-2818D01*
X394D01*
G02X1513Y-3937I0J-1119D01*
G01Y-11811D01*
G02X394Y-12930I-1119J0D01*
G01X-1132D01*
G03X-1531Y-13343I0J-400D01*
G02X-1531Y-13398I-1618J-51D01*
G01Y-15011D01*
X-1368Y-15042D01*
G02X-456Y-16142I-207J-1100D01*
G01Y-19291D01*
G02X-1575Y-20410I-1119J0D01*
G01X-4724D01*
G02X-5843Y-19291I0J1119D01*
G01Y-16142D01*
G02X-4931Y-15042I1119J0D01*
G01X-4769Y-15011D01*
Y-14069D01*
X-5082Y-13756D01*
G02X-5489Y-13073I1145J1144D01*
G01X-5531Y-12930D01*
X-8268D01*
G02X-9387Y-11811I0J1119D01*
G01Y-3937D01*
G02X-8268Y-2818I1119J0D01*
G01X-5556D01*
G37*
G36*
G01X-39764Y-38127D02*
G02X-40883Y-37008I0J1119D01*
G01Y-33858D01*
G02X-39764Y-32739I1119J0D01*
G01X-36614D01*
G02X-35495Y-33858I0J-1119D01*
G01Y-37008D01*
G02X-36614Y-38127I-1119J0D01*
G01X-39764D01*
G37*
G54D28*
X-88976Y8858D03*
Y-8858D03*
G54D27*
X84606Y18622D03*
%LPD*%
G75*
G54D10*
X-96000Y-36000D03*
Y-30000D03*
X-90000Y-36000D03*
X-96000Y0D03*
Y6000D03*
Y12000D03*
X-90000Y36000D03*
X-96000Y30000D03*
Y36000D03*
X-77520Y-22165D03*
X-72795Y-17717D03*
X-77283Y-17677D03*
X-72913Y-22205D03*
X-61417Y-21654D03*
X-48228Y-7284D03*
X-62126Y6575D03*
X-61870Y-728D03*
X-55787Y6378D03*
Y-1102D03*
X-60000Y36000D03*
X-38189Y-35433D03*
X-24000Y6000D03*
X-30000D03*
X-39677Y14323D03*
X-24015Y10826D03*
X-21693Y-1811D03*
X-24000Y36000D03*
X-30000D03*
X-36000D03*
X-3906Y-829D03*
X-5551Y6174D03*
X0Y36000D03*
X-6000D03*
X-12000D03*
X-18000D03*
X21575Y-35039D03*
X21535Y-37992D03*
X3150Y-29528D03*
X12598D03*
X9843Y984D03*
X18000Y36000D03*
X12000D03*
X6000D03*
X1378Y17559D03*
X24474Y-35051D03*
X24435Y-37951D03*
X42000Y36000D03*
X36000D03*
X30000D03*
X24000D03*
X66000Y-30000D03*
Y-36000D03*
Y-24000D03*
Y12000D03*
Y18000D03*
Y24000D03*
Y30000D03*
Y36000D03*
X60000D03*
X54000D03*
X48000D03*
X72000Y-30000D03*
X78000D03*
X84000D03*
X90000D03*
X72000Y-36000D03*
X78000D03*
X84000D03*
X90000D03*
X72000Y-24000D03*
X78000D03*
Y-18000D03*
X84000D03*
Y-24000D03*
X90000Y-18000D03*
X84000Y-12000D03*
X90000D03*
Y-24000D03*
Y-6000D03*
X72000Y18000D03*
Y36000D03*
X78000D03*
X84000D03*
Y30000D03*
X90000Y36000D03*
X96000Y-30000D03*
Y-36000D03*
Y-12000D03*
Y-18000D03*
Y-24000D03*
Y-6000D03*
Y0D03*
Y36000D03*
Y18000D03*
G54D11*
X-88976Y-8858D03*
Y8858D03*
G54D20*
X19055Y-3268D03*
Y3425D03*
G54D21*
X74764Y8780D03*
Y28465D03*
X94449Y8780D03*
Y28465D03*
G54D12*
X-88976Y-22835D03*
Y22835D03*
G54D22*
X84606Y18622D03*
G54D13*
X-78740Y-34646D03*
Y-28346D03*
X-55787Y-8819D03*
X-62087D03*
X-55787Y6378D03*
X-62087D03*
X-55787Y-1102D03*
X-62087D03*
X-44488Y-35433D03*
X-38189D03*
X-3150Y-17717D03*
Y-29528D03*
Y21654D03*
X3150Y-17717D03*
Y-29528D03*
X12598D03*
X18898D03*
X11024Y5906D03*
X4724D03*
X11024Y11811D03*
X4724D03*
X3150Y21654D03*
X25551Y2953D03*
Y-3346D03*
G54D23*
G01X-61417Y-21654D02*
Y-21693D01*
G01X-55787Y-8819D02*
Y-1102D01*
G01X-3150Y-17717D02*
Y-13398D01*
X-3937Y-12611D01*
Y-7874D01*
G01X-3906Y-829D02*
X-3937Y-860D01*
Y-7874D01*
G01X-3150Y21654D02*
Y17335D01*
X-3937Y16548D01*
Y11811D01*
G01D02*
Y7788D01*
X-5551Y6174D01*
G01X21457Y-35118D02*
Y-35000D01*
X21535D01*
X21575Y-35039D01*
G01X9843Y984D02*
X15000D01*
X19055Y-3071D01*
Y-3268D01*
G01Y3425D02*
X22704D01*
X23176Y2953D01*
X25551D01*
G01X4724Y11811D02*
Y14213D01*
X1378Y17559D01*
G54D14*
X-70866Y-35827D03*
Y-27165D03*
G54D24*
G01X31090Y3150D02*
X30893Y3346D01*
G54D15*
X-52756Y-35433D03*
X-61417D03*
G54D25*
G01X-67638Y-3937D02*
X-71142D01*
G54D16*
X-52756Y-25394D03*
Y-17913D03*
X-61417D03*
Y-21654D03*
Y-25394D03*
G54D26*
G01X-98425Y-39370D02*
Y39370D01*
X98425D01*
Y-39370D01*
X-98425D01*
G54D17*
X-43307Y-23622D03*
G54D18*
X-23307D03*
X-33307D03*
X-13307D03*
G54D19*
X-3937Y-7874D03*
Y11811D03*
M02*
