G04 ================== begin FILE IDENTIFICATION RECORD ==================*
G04 Layout Name:  wireless_cmsis_dap_sent_V2.brd*
G04 Film Name:    DRILL*
G04 File Format:  Gerber RS274X*
G04 File Origin:  Cadence Allegro -unreleased*
G04 Origin Date:  Mon May 18 05:54:35 2020*
G04 *
G04 Layer:  MANUFACTURING/NCDRILL_LEGEND*
G04 Layer:  MANUFACTURING/NCDRILL_FIGURE*
G04 Layer:  BOARD GEOMETRY/DIMENSION*
G04 Layer:  MANUFACTURING/NCLEGEND-1-2*
G04 Layer:  BOARD GEOMETRY/DESIGN_OUTLINE*
G04 *
G04 Offset:    (0.0000 0.0000)*
G04 Mirror:    No*
G04 Mode:      Positive*
G04 Rotation:  0*
G04 FullContactRelief:  No*
G04 UndefLineWidth:     0.1500*
G04 ================== end FILE IDENTIFICATION RECORD ====================*
%FSLAX25Y25*MOIN*%
%IR0*IPPOS*OFA0.00000B0.00000*MIA0B0*SFA1.00000B1.00000*%
%AMMACRO11*
1,1,.005906,.023622,0.0*
20,1,.005906,.023622,0.0,0.0,-.023622,0.0*
1,1,.005906,0.0,-.023622*
20,1,.005906,0.0,-.023622,-.023622,0.0,0.0*
1,1,.005906,-.023622,0.0*
20,1,.005906,-.023622,0.0,0.0,.023622,0.0*
1,1,.005906,0.0,.023622*
20,1,.005906,0.0,.023622,.023622,0.0,0.0*
1,1,.005906,.023622,0.0*
%
%ADD11MACRO11*%
%AMMACRO12*
1,1,.005906,.012231,-.029528*
20,1,.005906,.012231,-.029528,-.012231,-.029528,0.0*
1,1,.005906,-.012231,-.029528*
20,1,.005906,-.012231,-.029528,-.029528,-.012231,0.0*
1,1,.005906,-.029528,-.012231*
20,1,.005906,-.029528,-.012231,-.029528,.012231,0.0*
1,1,.005906,-.029528,.012231*
20,1,.005906,-.029528,.012231,-.012231,.029528,0.0*
1,1,.005906,-.012231,.029528*
20,1,.005906,-.012231,.029528,.012231,.029528,0.0*
1,1,.005906,.012231,.029528*
20,1,.005906,.012231,.029528,.029528,.012231,0.0*
1,1,.005906,.029528,.012231*
20,1,.005906,.029528,.012231,.029528,-.012231,0.0*
1,1,.005906,.029528,-.012231*
20,1,.005906,.029528,-.012231,.012231,-.029528,0.0*
1,1,.005906,.012231,-.029528*
%
%ADD12MACRO12*%
%AMMACRO16*
1,1,.005906,.0065,0.0*
20,1,.005906,.0065,0.0,-.0065,0.0,0.0*
1,1,.005906,-.0065,0.0*
1,1,.005906,0.0,.0065*
20,1,.005906,0.0,.0065,0.0,-.0065,0.0*
1,1,.005906,0.0,-.0065*
%
%ADD16MACRO16*%
%AMMACRO15*
1,1,.005906,.017717,.017717*
20,1,.005906,.017717,.017717,.017717,-.017717,0.0*
1,1,.005906,.017717,-.017717*
20,1,.005906,.017717,-.017717,-.017717,-.017717,0.0*
1,1,.005906,-.017717,-.017717*
20,1,.005906,-.017717,-.017717,-.017717,.017717,0.0*
1,1,.005906,-.017717,.017717*
20,1,.005906,-.017717,.017717,.017717,.017717,0.0*
1,1,.005906,.017717,.017717*
%
%ADD15MACRO15*%
%AMMACRO13*
1,1,.005906,0.0,.019685*
20,1,.005906,0.0,.019685,-.017048,.009843,0.0*
1,1,.005906,-.017048,.009843*
20,1,.005906,-.017048,.009843,-.017048,-.009843,0.0*
1,1,.005906,-.017048,-.009843*
20,1,.005906,-.017048,-.009843,0.0,-.019685,0.0*
1,1,.005906,0.0,-.019685*
20,1,.005906,0.0,-.019685,.017048,-.009843,0.0*
1,1,.005906,.017048,-.009843*
20,1,.005906,.017048,-.009843,.017048,.009843,0.0*
1,1,.005906,.017048,.009843*
20,1,.005906,.017048,.009843,0.0,.019685,0.0*
1,1,.005906,0.0,.019685*
%
%ADD13MACRO13*%
%AMMACRO10*
1,1,.005906,-.029528,.019685*
20,1,.005906,-.029528,.019685,.029528,.019685,0.0*
1,1,.005906,.029528,.019685*
20,1,.005906,.029528,.019685,.032946,.019386,0.0*
1,1,.005906,.032946,.019386*
20,1,.005906,.032946,.019386,.03626,.018498,0.0*
1,1,.005906,.03626,.018498*
20,1,.005906,.03626,.018498,.03937,.017048,0.0*
1,1,.005906,.03937,.017048*
20,1,.005906,.03937,.017048,.042181,.01508,0.0*
1,1,.005906,.042181,.01508*
20,1,.005906,.042181,.01508,.044607,.012653,0.0*
1,1,.005906,.044607,.012653*
20,1,.005906,.044607,.012653,.046575,.009843,0.0*
1,1,.005906,.046575,.009843*
20,1,.005906,.046575,.009843,.048025,.006733,0.0*
1,1,.005906,.048025,.006733*
20,1,.005906,.048025,.006733,.048914,.003418,0.0*
1,1,.005906,.048914,.003418*
20,1,.005906,.048914,.003418,.049213,0.0,0.0*
1,1,.005906,.049213,0.0*
20,1,.005906,.049213,0.0,.048914,-.003418,0.0*
1,1,.005906,.048914,-.003418*
20,1,.005906,.048914,-.003418,.048025,-.006733,0.0*
1,1,.005906,.048025,-.006733*
20,1,.005906,.048025,-.006733,.046575,-.009843,0.0*
1,1,.005906,.046575,-.009843*
20,1,.005906,.046575,-.009843,.044607,-.012653,0.0*
1,1,.005906,.044607,-.012653*
20,1,.005906,.044607,-.012653,.042181,-.01508,0.0*
1,1,.005906,.042181,-.01508*
20,1,.005906,.042181,-.01508,.03937,-.017048,0.0*
1,1,.005906,.03937,-.017048*
20,1,.005906,.03937,-.017048,.03626,-.018498,0.0*
1,1,.005906,.03626,-.018498*
20,1,.005906,.03626,-.018498,.032946,-.019386,0.0*
1,1,.005906,.032946,-.019386*
20,1,.005906,.032946,-.019386,.029528,-.019685,0.0*
1,1,.005906,.029528,-.019685*
20,1,.005906,.029528,-.019685,-.029528,-.019685,0.0*
1,1,.005906,-.029528,-.019685*
20,1,.005906,-.029528,-.019685,-.032946,-.019386,0.0*
1,1,.005906,-.032946,-.019386*
20,1,.005906,-.032946,-.019386,-.03626,-.018498,0.0*
1,1,.005906,-.03626,-.018498*
20,1,.005906,-.03626,-.018498,-.03937,-.017048,0.0*
1,1,.005906,-.03937,-.017048*
20,1,.005906,-.03937,-.017048,-.042181,-.01508,0.0*
1,1,.005906,-.042181,-.01508*
20,1,.005906,-.042181,-.01508,-.044607,-.012653,0.0*
1,1,.005906,-.044607,-.012653*
20,1,.005906,-.044607,-.012653,-.046575,-.009843,0.0*
1,1,.005906,-.046575,-.009843*
20,1,.005906,-.046575,-.009843,-.048025,-.006733,0.0*
1,1,.005906,-.048025,-.006733*
20,1,.005906,-.048025,-.006733,-.048914,-.003418,0.0*
1,1,.005906,-.048914,-.003418*
20,1,.005906,-.048914,-.003418,-.049213,0.0,0.0*
1,1,.005906,-.049213,0.0*
20,1,.005906,-.049213,0.0,-.048914,.003418,0.0*
1,1,.005906,-.048914,.003418*
20,1,.005906,-.048914,.003418,-.048025,.006733,0.0*
1,1,.005906,-.048025,.006733*
20,1,.005906,-.048025,.006733,-.046575,.009843,0.0*
1,1,.005906,-.046575,.009843*
20,1,.005906,-.046575,.009843,-.044607,.012653,0.0*
1,1,.005906,-.044607,.012653*
20,1,.005906,-.044607,.012653,-.042181,.01508,0.0*
1,1,.005906,-.042181,.01508*
20,1,.005906,-.042181,.01508,-.03937,.017048,0.0*
1,1,.005906,-.03937,.017048*
20,1,.005906,-.03937,.017048,-.03626,.018498,0.0*
1,1,.005906,-.03626,.018498*
20,1,.005906,-.03626,.018498,-.032946,.019386,0.0*
1,1,.005906,-.032946,.019386*
20,1,.005906,-.032946,.019386,-.029528,.019685,0.0*
1,1,.005906,-.029528,.019685*
1,1,.005906,-.009843,-.009843*
20,1,.005906,-.009843,-.009843,-.012469,-.009516,0.0*
1,1,.005906,-.012469,-.009516*
20,1,.005906,-.012469,-.009516,-.014764,-.008201,0.0*
1,1,.005906,-.014764,-.008201*
20,1,.005906,-.014764,-.008201,-.016732,-.006232,0.0*
1,1,.005906,-.016732,-.006232*
20,1,.005906,-.016732,-.006232,-.018043,-.003937,0.0*
1,1,.005906,-.018043,-.003937*
20,1,.005906,-.018043,-.003937,-.018701,-.001311,0.0*
1,1,.005906,-.018701,-.001311*
20,1,.005906,-.018701,-.001311,-.018701,.001311,0.0*
1,1,.005906,-.018701,.001311*
20,1,.005906,-.018701,.001311,-.018043,.003937,0.0*
1,1,.005906,-.018043,.003937*
20,1,.005906,-.018043,.003937,-.016732,.006232,0.0*
1,1,.005906,-.016732,.006232*
20,1,.005906,-.016732,.006232,-.014764,.008201,0.0*
1,1,.005906,-.014764,.008201*
20,1,.005906,-.014764,.008201,-.012469,.009516,0.0*
1,1,.005906,-.012469,.009516*
20,1,.005906,-.012469,.009516,-.009843,.009843,0.0*
1,1,.005906,-.009843,.009843*
20,1,.005906,-.009843,.009843,-.007217,.009516,0.0*
1,1,.005906,-.007217,.009516*
20,1,.005906,-.007217,.009516,-.004921,.008201,0.0*
1,1,.005906,-.004921,.008201*
20,1,.005906,-.004921,.008201,-.002953,.006232,0.0*
1,1,.005906,-.002953,.006232*
20,1,.005906,-.002953,.006232,-.001642,.003937,0.0*
1,1,.005906,-.001642,.003937*
20,1,.005906,-.001642,.003937,-.000984,.001311,0.0*
1,1,.005906,-.000984,.001311*
20,1,.005906,-.000984,.001311,-.000984,-.001311,0.0*
1,1,.005906,-.000984,-.001311*
20,1,.005906,-.000984,-.001311,-.001642,-.003937,0.0*
1,1,.005906,-.001642,-.003937*
20,1,.005906,-.001642,-.003937,-.002953,-.006232,0.0*
1,1,.005906,-.002953,-.006232*
20,1,.005906,-.002953,-.006232,-.004921,-.008201,0.0*
1,1,.005906,-.004921,-.008201*
20,1,.005906,-.004921,-.008201,-.007217,-.009516,0.0*
1,1,.005906,-.007217,-.009516*
20,1,.005906,-.007217,-.009516,-.009843,-.009843,0.0*
1,1,.005906,-.009843,-.009843*
1,1,.005906,.001646,-.009843*
20,1,.005906,.001646,-.009843,.009846,.009843,0.0*
1,1,.005906,.009846,.009843*
20,1,.005906,.009846,.009843,.018047,-.009843,0.0*
1,1,.005906,.018047,-.009843*
1,1,.005906,.015094,-.002953*
20,1,.005906,.015094,-.002953,.004598,-.002953,0.0*
1,1,.005906,.004598,-.002953*
%
%ADD10MACRO10*%
%AMMACRO14*
1,1,.005906,.017717,0.0*
20,1,.005906,.017717,0.0,.008858,.015343,0.0*
1,1,.005906,.008858,.015343*
20,1,.005906,.008858,.015343,-.008858,.015343,0.0*
1,1,.005906,-.008858,.015343*
20,1,.005906,-.008858,.015343,-.017717,0.0,0.0*
1,1,.005906,-.017717,0.0*
20,1,.005906,-.017717,0.0,-.008858,-.015343,0.0*
1,1,.005906,-.008858,-.015343*
20,1,.005906,-.008858,-.015343,.008858,-.015343,0.0*
1,1,.005906,.008858,-.015343*
20,1,.005906,.008858,-.015343,.017717,0.0,0.0*
1,1,.005906,.017717,0.0*
%
%ADD14MACRO14*%
%ADD17C,.005906*%
G75*
%LPD*%
G75*
G54D10*
X-171752Y-298642D03*
X-88976Y-22835D03*
Y22835D03*
G54D11*
X-171752Y-273642D03*
X-88976Y-8858D03*
Y8858D03*
G54D12*
X-171752Y-248642D03*
X74764Y8780D03*
Y28465D03*
X94449Y8780D03*
Y28465D03*
G54D13*
X-171752Y-223642D03*
X84606Y18622D03*
G54D14*
X-171752Y-198642D03*
X-43307Y-23622D03*
G54D15*
X-171752Y-173642D03*
X-23307Y-23622D03*
X-33307D03*
X-13307D03*
G54D16*
X-171752Y-148642D03*
X-96000Y-36000D03*
Y-30000D03*
X-90000Y-36000D03*
X-96000Y0D03*
Y6000D03*
Y12000D03*
X-90000Y36000D03*
X-96000Y30000D03*
Y36000D03*
X-77520Y-22165D03*
X-72795Y-17717D03*
X-77283Y-17677D03*
X-72913Y-22205D03*
X-61417Y-21654D03*
X-48228Y-7284D03*
X-62126Y6575D03*
X-61870Y-728D03*
X-55787Y6378D03*
Y-1102D03*
X-60000Y36000D03*
X-38189Y-35433D03*
X-24000Y6000D03*
X-30000D03*
X-39677Y14323D03*
X-24015Y10826D03*
X-21693Y-1811D03*
X-24000Y36000D03*
X-30000D03*
X-36000D03*
X-3906Y-829D03*
X-5551Y6174D03*
X0Y36000D03*
X-6000D03*
X-12000D03*
X-18000D03*
X21575Y-35039D03*
X21535Y-37992D03*
X3150Y-29528D03*
X12598D03*
X9843Y984D03*
X18000Y36000D03*
X12000D03*
X6000D03*
X1378Y17559D03*
X24474Y-35051D03*
X24435Y-37951D03*
X42000Y36000D03*
X36000D03*
X30000D03*
X24000D03*
X66000Y-30000D03*
Y-36000D03*
Y-24000D03*
Y12000D03*
Y18000D03*
Y24000D03*
Y30000D03*
Y36000D03*
X60000D03*
X54000D03*
X48000D03*
X72000Y-30000D03*
X78000D03*
X84000D03*
X90000D03*
X72000Y-36000D03*
X78000D03*
X84000D03*
X90000D03*
X72000Y-24000D03*
X78000D03*
Y-18000D03*
X84000D03*
Y-24000D03*
X90000Y-18000D03*
X84000Y-12000D03*
X90000D03*
Y-24000D03*
Y-6000D03*
X72000Y18000D03*
Y36000D03*
X78000D03*
X84000D03*
Y30000D03*
X90000Y36000D03*
X96000Y-30000D03*
Y-36000D03*
Y-12000D03*
Y-18000D03*
Y-24000D03*
Y-6000D03*
Y0D03*
Y36000D03*
Y18000D03*
G54D17*
G01X-216693Y-311142D02*
Y-60551D01*
X279209D01*
Y-311142D01*
X-216693D01*
G01Y-286142D02*
X279209D01*
G01X-216693Y-261142D02*
X279209D01*
G01X-216693Y-236142D02*
X279209D01*
G01X-216693Y-211142D02*
X279209D01*
G01X-216693Y-186142D02*
X279209D01*
G01X-216693Y-161142D02*
X279209D01*
G01X-205691Y-129892D02*
Y-117392D01*
X-199801D01*
G01X-201971Y-123433D02*
X-205691D01*
G01X-192208Y-117392D02*
X-188489D01*
G01X-190348D02*
Y-129892D01*
G01X-192208D02*
X-188489D01*
G01X-177021Y-123642D02*
X-173921D01*
Y-127392D01*
X-174851Y-128642D01*
X-175936Y-129475D01*
X-177486Y-129892D01*
X-179035Y-129475D01*
X-180120Y-128642D01*
X-181050Y-127392D01*
X-181671Y-125933D01*
X-181981Y-124267D01*
Y-122808D01*
X-181671Y-121559D01*
X-181050Y-120100D01*
X-180120Y-118850D01*
X-179191Y-118017D01*
X-177951Y-117392D01*
X-176866D01*
X-175626Y-117808D01*
X-174696Y-118642D01*
G01X-168963Y-117392D02*
Y-126350D01*
X-168343Y-128226D01*
X-167103Y-129475D01*
X-165553Y-129892D01*
X-164003Y-129475D01*
X-162763Y-128226D01*
X-162143Y-126350D01*
Y-117392D01*
G01X-156255Y-129892D02*
Y-117392D01*
X-152381D01*
X-151141Y-118017D01*
X-150366Y-118850D01*
X-150056Y-120517D01*
X-150366Y-122183D01*
X-151296Y-123225D01*
X-152381Y-123850D01*
X-156255D01*
G01X-152381D02*
X-150056Y-129892D01*
G01X-137658D02*
X-143857D01*
Y-117392D01*
X-137658D01*
G01X-140138Y-123433D02*
X-143857D01*
G01X-216693Y-136142D02*
X279209D01*
G01X-216693Y-111142D02*
X279209D01*
G01X-216693Y-86142D02*
X279209D01*
G01X-139985Y-104892D02*
X-136110Y-92392D01*
X-132235Y-104892D01*
G01X-133631Y-100517D02*
X-138590D01*
G01X-126812Y-92392D02*
Y-104892D01*
X-120613D01*
G01X-114415Y-92392D02*
Y-104892D01*
X-108215D01*
G01X-89930Y-92392D02*
Y-101350D01*
X-89309Y-103226D01*
X-88070Y-104475D01*
X-86520Y-104892D01*
X-84970Y-104475D01*
X-83730Y-103226D01*
X-83110Y-101350D01*
Y-92392D01*
G01X-77687Y-104892D02*
Y-92392D01*
X-70557Y-104892D01*
Y-92392D01*
G01X-63584D02*
X-59865D01*
G01X-61724D02*
Y-104892D01*
G01X-63584D02*
X-59865D01*
G01X-49327Y-92392D02*
Y-104892D01*
G01X-52891Y-92392D02*
X-45762D01*
G01X-40184Y-103226D02*
X-38944Y-104267D01*
X-37549Y-104892D01*
X-36309D01*
X-35069Y-104267D01*
X-34139Y-103226D01*
X-33674Y-101767D01*
X-33984Y-100309D01*
X-34759Y-99059D01*
X-36154Y-98225D01*
X-38014Y-97808D01*
X-39099Y-96975D01*
X-39564Y-95517D01*
X-39254Y-94058D01*
X-38479Y-93017D01*
X-37394Y-92392D01*
X-36309D01*
X-35224Y-92808D01*
X-34294Y-93850D01*
G01X-16009Y-104892D02*
X-12134Y-92392D01*
X-8259Y-104892D01*
G01X-9654Y-100517D02*
X-14614D01*
G01X-2836Y-104892D02*
Y-92392D01*
X1039D01*
X2279Y-93017D01*
X3054Y-93850D01*
X3363Y-95517D01*
X3054Y-97183D01*
X2124Y-98225D01*
X1039Y-98850D01*
X-2836D01*
G01X1039D02*
X3363Y-104892D01*
G01X15761D02*
X9562D01*
Y-92392D01*
X15761D01*
G01X13281Y-98433D02*
X9562D01*
G01X35597Y-92392D02*
X39316D01*
G01X37457D02*
Y-104892D01*
G01X35597D02*
X39316D01*
G01X46290D02*
Y-92392D01*
X53419Y-104892D01*
Y-92392D01*
G01X70620Y-104892D02*
Y-92392D01*
X74650Y-102808D01*
X78680Y-92392D01*
Y-104892D01*
G01X85187Y-92392D02*
X88907D01*
G01X87047D02*
Y-104892D01*
G01X85187D02*
X88907D01*
G01X96345Y-92392D02*
Y-104892D01*
X102544D01*
G01X108743Y-92392D02*
Y-104892D01*
X114942D01*
G01X122380Y-92392D02*
X126100D01*
G01X124240D02*
Y-104892D01*
G01X122380D02*
X126100D01*
G01X132608D02*
Y-92392D01*
X136638Y-102808D01*
X140668Y-92392D01*
Y-104892D01*
G01X152135D02*
X145936D01*
Y-92392D01*
X152135D01*
G01X149656Y-98433D02*
X145936D01*
G01X161433Y-92392D02*
Y-104892D01*
G01X157869Y-92392D02*
X164998D01*
G01X176930Y-104892D02*
X170731D01*
Y-92392D01*
X176930D01*
G01X174451Y-98433D02*
X170731D01*
G01X183129Y-104892D02*
Y-92392D01*
X187003D01*
X188243Y-93017D01*
X189018Y-93850D01*
X189328Y-95517D01*
X189018Y-97183D01*
X188088Y-98225D01*
X187003Y-98850D01*
X183129D01*
G01X187003D02*
X189328Y-104892D01*
G01X195371Y-103226D02*
X196611Y-104267D01*
X198006Y-104892D01*
X199246D01*
X200486Y-104267D01*
X201416Y-103226D01*
X201881Y-101767D01*
X201571Y-100309D01*
X200796Y-99059D01*
X199401Y-98225D01*
X197541Y-97808D01*
X196456Y-96975D01*
X195991Y-95517D01*
X196301Y-94058D01*
X197076Y-93017D01*
X198161Y-92392D01*
X199246D01*
X200331Y-92808D01*
X201261Y-93850D01*
G01X-126811Y-111142D02*
Y-311142D01*
G01X-127122Y-79301D02*
Y-66801D01*
X-124023D01*
X-122783Y-67426D01*
X-121853Y-68259D01*
X-121078Y-69509D01*
X-120458Y-70968D01*
X-120303Y-73051D01*
X-120458Y-75135D01*
X-121078Y-76593D01*
X-121853Y-77843D01*
X-122783Y-78676D01*
X-124023Y-79301D01*
X-127122D01*
G01X-114415D02*
Y-66801D01*
X-110540D01*
X-109300Y-67426D01*
X-108525Y-68259D01*
X-108215Y-69926D01*
X-108525Y-71593D01*
X-109455Y-72634D01*
X-110540Y-73260D01*
X-114415D01*
G01X-110540D02*
X-108215Y-79301D01*
G01X-100777Y-66801D02*
X-97058D01*
G01X-98917D02*
Y-79301D01*
G01X-100777D02*
X-97058D01*
G01X-89619Y-66801D02*
Y-79301D01*
X-83420D01*
G01X-77222Y-66801D02*
Y-79301D01*
X-71022D01*
G01X-45917Y-67843D02*
X-46847Y-67218D01*
X-47932Y-66801D01*
X-49172D01*
X-50567Y-67426D01*
X-51652Y-68468D01*
X-52426Y-69718D01*
X-53047Y-71801D01*
X-53202Y-73676D01*
X-52891Y-75551D01*
X-52426Y-76801D01*
X-51496Y-78052D01*
X-50411Y-78885D01*
X-49327Y-79301D01*
X-48242D01*
X-47157Y-78885D01*
X-46227Y-78260D01*
X-45452Y-77427D01*
G01X-40184Y-79301D02*
Y-66801D01*
G01X-33674D02*
Y-79301D01*
G01Y-73051D02*
X-40184D01*
G01X-28406Y-79301D02*
X-24531Y-66801D01*
X-20657Y-79301D01*
G01X-22052Y-74926D02*
X-27011D01*
G01X-15233Y-79301D02*
Y-66801D01*
X-11359D01*
X-10119Y-67426D01*
X-9344Y-68259D01*
X-9034Y-69926D01*
X-9344Y-71593D01*
X-10274Y-72634D01*
X-11359Y-73260D01*
X-15233D01*
G01X-11359D02*
X-9034Y-79301D01*
G01X264Y-66801D02*
Y-79301D01*
G01X-3301Y-66801D02*
X3828D01*
G01X12661Y-79718D02*
X12351Y-79509D01*
Y-79093D01*
X12661Y-78885D01*
X12972Y-79093D01*
Y-79509D01*
X12661Y-79718D01*
G01Y-74093D02*
X12351Y-73885D01*
Y-73468D01*
X12661Y-73260D01*
X12972Y-73468D01*
Y-73885D01*
X12661Y-74093D01*
G01X37457Y-66801D02*
Y-79301D01*
G01X33892Y-66801D02*
X41021D01*
G01X49854Y-79301D02*
X48614Y-79093D01*
X47530Y-78260D01*
X46600Y-77009D01*
X45980Y-75551D01*
X45670Y-73885D01*
Y-72218D01*
X45980Y-70551D01*
X46600Y-69093D01*
X47530Y-67843D01*
X48614Y-67009D01*
X49854Y-66801D01*
X51094Y-67009D01*
X52179Y-67843D01*
X53109Y-69093D01*
X53729Y-70551D01*
X54039Y-72218D01*
Y-73885D01*
X53729Y-75551D01*
X53109Y-77009D01*
X52179Y-78260D01*
X51094Y-79093D01*
X49854Y-79301D01*
G01X59152D02*
Y-66801D01*
X62872D01*
X64112Y-67426D01*
X65042Y-68885D01*
X65352Y-70551D01*
X65042Y-72218D01*
X64267Y-73468D01*
X62872Y-74093D01*
X59152D01*
G01X87047Y-66801D02*
Y-79301D01*
G01X84878Y-70968D02*
X89217D01*
G01X99445Y-79301D02*
X98515Y-79093D01*
X97585Y-78260D01*
X96965Y-76801D01*
X96655Y-75135D01*
X96965Y-73468D01*
X97585Y-72009D01*
X98515Y-71176D01*
X99445Y-70968D01*
X100375Y-71176D01*
X101305Y-72009D01*
X101924Y-73468D01*
X102080Y-75135D01*
X101924Y-76801D01*
X101305Y-78260D01*
X100375Y-79093D01*
X99445Y-79301D01*
G01X125480Y-72634D02*
X126100Y-72009D01*
X126565Y-70968D01*
X126875Y-69509D01*
X126565Y-68259D01*
X125945Y-67426D01*
X124860Y-66801D01*
X120676D01*
Y-79301D01*
X125790D01*
X126875Y-78468D01*
X127495Y-77218D01*
X127805Y-75759D01*
X127495Y-74302D01*
X126565Y-73051D01*
X125480Y-72634D01*
X120676D01*
G01X136638Y-79301D02*
X135398Y-79093D01*
X134313Y-78260D01*
X133383Y-77009D01*
X132763Y-75551D01*
X132453Y-73885D01*
Y-72218D01*
X132763Y-70551D01*
X133383Y-69093D01*
X134313Y-67843D01*
X135398Y-67009D01*
X136638Y-66801D01*
X137878Y-67009D01*
X138963Y-67843D01*
X139893Y-69093D01*
X140513Y-70551D01*
X140822Y-72218D01*
Y-73885D01*
X140513Y-75551D01*
X139893Y-77009D01*
X138963Y-78260D01*
X137878Y-79093D01*
X136638Y-79301D01*
G01X149035Y-66801D02*
Y-79301D01*
G01X145471Y-66801D02*
X152600D01*
G01X161433D02*
Y-79301D01*
G01X157869Y-66801D02*
X164998D01*
G01X173831Y-79301D02*
X172591Y-79093D01*
X171506Y-78260D01*
X170576Y-77009D01*
X169956Y-75551D01*
X169646Y-73885D01*
Y-72218D01*
X169956Y-70551D01*
X170576Y-69093D01*
X171506Y-67843D01*
X172591Y-67009D01*
X173831Y-66801D01*
X175070Y-67009D01*
X176156Y-67843D01*
X177085Y-69093D01*
X177706Y-70551D01*
X178015Y-72218D01*
Y-73885D01*
X177706Y-75551D01*
X177085Y-77009D01*
X176156Y-78260D01*
X175070Y-79093D01*
X173831Y-79301D01*
G01X182198D02*
Y-66801D01*
X186228Y-77218D01*
X190258Y-66801D01*
Y-79301D01*
G01X-103411Y-129892D02*
Y-117392D01*
X-97522D01*
G01X-99692Y-123433D02*
X-103411D01*
G01X-89929Y-117392D02*
X-86209D01*
G01X-88069D02*
Y-129892D01*
G01X-89929D02*
X-86209D01*
G01X-79236D02*
Y-117392D01*
X-72107Y-129892D01*
Y-117392D01*
G01X-65133D02*
X-61414D01*
G01X-63274D02*
Y-129892D01*
G01X-65133D02*
X-61414D01*
G01X-54131Y-128226D02*
X-52891Y-129267D01*
X-51496Y-129892D01*
X-50256D01*
X-49016Y-129267D01*
X-48086Y-128226D01*
X-47621Y-126767D01*
X-47931Y-125309D01*
X-48706Y-124059D01*
X-50101Y-123225D01*
X-51961Y-122808D01*
X-53046Y-121975D01*
X-53511Y-120517D01*
X-53201Y-119058D01*
X-52426Y-118017D01*
X-51341Y-117392D01*
X-50256D01*
X-49171Y-117808D01*
X-48241Y-118850D01*
G01X-41733Y-129892D02*
Y-117392D01*
G01X-35224D02*
Y-129892D01*
G01Y-123642D02*
X-41733D01*
G01X-22981Y-129892D02*
X-29180D01*
Y-117392D01*
X-22981D01*
G01X-25461Y-123433D02*
X-29180D01*
G01X-17093Y-129892D02*
Y-117392D01*
X-13993D01*
X-12753Y-118017D01*
X-11823Y-118850D01*
X-11048Y-120100D01*
X-10428Y-121559D01*
X-10273Y-123642D01*
X-10428Y-125725D01*
X-11048Y-127183D01*
X-11823Y-128434D01*
X-12753Y-129267D01*
X-13993Y-129892D01*
X-17093D01*
G01X-5935Y-134058D02*
X3364D01*
G01X7857Y-128226D02*
X9097Y-129267D01*
X10492Y-129892D01*
X11732D01*
X12972Y-129267D01*
X13902Y-128226D01*
X14367Y-126767D01*
X14057Y-125309D01*
X13282Y-124059D01*
X11887Y-123225D01*
X10028Y-122808D01*
X8943Y-121975D01*
X8477Y-120517D01*
X8787Y-119058D01*
X9562Y-118017D01*
X10647Y-117392D01*
X11732D01*
X12817Y-117808D01*
X13747Y-118850D01*
G01X21650Y-117392D02*
X25369D01*
G01X23510D02*
Y-129892D01*
G01X21650D02*
X25369D01*
G01X32963Y-117392D02*
X38852D01*
X32963Y-129892D01*
X38852D01*
G01X51405D02*
X45206D01*
Y-117392D01*
X51405D01*
G01X48925Y-123433D02*
X45206D01*
G01X-98425Y-39370D02*
Y39370D01*
X98425D01*
Y-39370D01*
X-98425D01*
G01X-66219Y-294475D02*
X-65289Y-293225D01*
X-64204Y-292600D01*
X-62963Y-292392D01*
X-61414Y-292808D01*
X-60329Y-293850D01*
X-60019Y-295100D01*
X-60174Y-296350D01*
X-60794Y-297392D01*
X-63894Y-299475D01*
X-65289Y-300933D01*
X-66219Y-303017D01*
X-66528Y-304892D01*
X-60019D01*
G01X-50876Y-305308D02*
X-51186Y-305100D01*
Y-304683D01*
X-50876Y-304475D01*
X-50566Y-304683D01*
Y-305100D01*
X-50876Y-305308D01*
G01X-41888Y-303017D02*
X-40958Y-304059D01*
X-39873Y-304683D01*
X-38478Y-304892D01*
X-37083Y-304475D01*
X-35999Y-303642D01*
X-35224Y-302183D01*
X-35069Y-300517D01*
X-35379Y-298850D01*
X-36154Y-297808D01*
X-37239Y-296975D01*
X-38323Y-296767D01*
X-39408Y-296975D01*
X-40803Y-297808D01*
X-40338Y-292392D01*
X-36154D01*
G01X-28406Y-296559D02*
X-23756Y-304892D01*
G01Y-296559D02*
X-28406Y-304892D01*
G01X-13683D02*
Y-292392D01*
X-15543Y-294892D01*
G01Y-304892D02*
X-11824D01*
G01X-1285Y-305308D02*
X-1596Y-305100D01*
Y-304683D01*
X-1285Y-304475D01*
X-975Y-304683D01*
Y-305100D01*
X-1285Y-305308D01*
G01X11112Y-292392D02*
X9872Y-292808D01*
X8943Y-293850D01*
X8322Y-295100D01*
X7857Y-296767D01*
X7702Y-298642D01*
X7857Y-300517D01*
X8322Y-302183D01*
X8943Y-303434D01*
X9872Y-304475D01*
X11112Y-304892D01*
X12352Y-304475D01*
X13282Y-303434D01*
X13902Y-302183D01*
X14367Y-300517D01*
X14522Y-298642D01*
X14367Y-296767D01*
X13902Y-295100D01*
X13282Y-293850D01*
X12352Y-292808D01*
X11112Y-292392D01*
G01X-57075Y-142392D02*
X-58315Y-142808D01*
X-59244Y-143850D01*
X-59865Y-145100D01*
X-60330Y-146767D01*
X-60485Y-148642D01*
X-60330Y-150517D01*
X-59865Y-152183D01*
X-59244Y-153434D01*
X-58315Y-154475D01*
X-57075Y-154892D01*
X-55835Y-154475D01*
X-54905Y-153434D01*
X-54285Y-152183D01*
X-53820Y-150517D01*
X-53665Y-148642D01*
X-53820Y-146767D01*
X-54285Y-145100D01*
X-54905Y-143850D01*
X-55835Y-142808D01*
X-57075Y-142392D01*
G01X-44677Y-155308D02*
X-44987Y-155100D01*
Y-154683D01*
X-44677Y-154475D01*
X-44367Y-154683D01*
Y-155100D01*
X-44677Y-155308D01*
G01X-35689Y-152392D02*
X-34759Y-153850D01*
X-33520Y-154683D01*
X-32124Y-154892D01*
X-30885Y-154683D01*
X-29644Y-153642D01*
X-28870Y-152392D01*
X-28715Y-151142D01*
X-29025Y-149684D01*
X-30110Y-148642D01*
X-31195Y-148225D01*
X-32590D01*
G01X-31195D02*
X-30265Y-147600D01*
X-29490Y-146559D01*
X-29180Y-145309D01*
X-29490Y-144058D01*
X-30265Y-143017D01*
X-31659Y-142392D01*
X-33054Y-142600D01*
X-34449Y-143433D01*
G01X-23292Y-152392D02*
X-22362Y-153850D01*
X-21122Y-154683D01*
X-19727Y-154892D01*
X-18487Y-154683D01*
X-17247Y-153642D01*
X-16472Y-152392D01*
X-16317Y-151142D01*
X-16627Y-149684D01*
X-17712Y-148642D01*
X-18797Y-148225D01*
X-20192D01*
G01X-18797D02*
X-17867Y-147600D01*
X-17092Y-146559D01*
X-16782Y-145309D01*
X-17092Y-144058D01*
X-17867Y-143017D01*
X-19262Y-142392D01*
X-20657Y-142600D01*
X-22052Y-143433D01*
G01X-7484Y-142392D02*
X-8724Y-142808D01*
X-9654Y-143850D01*
X-10274Y-145100D01*
X-10739Y-146767D01*
X-10894Y-148642D01*
X-10739Y-150517D01*
X-10274Y-152183D01*
X-9654Y-153434D01*
X-8724Y-154475D01*
X-7484Y-154892D01*
X-6244Y-154475D01*
X-5315Y-153434D01*
X-4694Y-152183D01*
X-4230Y-150517D01*
X-4074Y-148642D01*
X-4230Y-146767D01*
X-4694Y-145100D01*
X-5315Y-143850D01*
X-6244Y-142808D01*
X-7484Y-142392D01*
G01X1969Y-144475D02*
X2898Y-143225D01*
X3983Y-142600D01*
X5224Y-142392D01*
X6773Y-142808D01*
X7858Y-143850D01*
X8168Y-145100D01*
X8013Y-146350D01*
X7393Y-147392D01*
X4293Y-149475D01*
X2898Y-150933D01*
X1969Y-153017D01*
X1659Y-154892D01*
X8168D01*
G01X-38478Y-279892D02*
Y-267392D01*
X-40338Y-269892D01*
G01Y-279892D02*
X-36619D01*
G01X-26081Y-280308D02*
X-26391Y-280100D01*
Y-279683D01*
X-26081Y-279475D01*
X-25770Y-279683D01*
Y-280100D01*
X-26081Y-280308D01*
G01X-16628Y-269475D02*
X-15698Y-268225D01*
X-14613Y-267600D01*
X-13373Y-267392D01*
X-11823Y-267808D01*
X-10738Y-268850D01*
X-10428Y-270100D01*
X-10583Y-271350D01*
X-11204Y-272392D01*
X-14303Y-274475D01*
X-15698Y-275933D01*
X-16628Y-278017D01*
X-16938Y-279892D01*
X-10428D01*
G01X-38478Y-254892D02*
Y-242392D01*
X-40338Y-244892D01*
G01Y-254892D02*
X-36619D01*
G01X-26081Y-255308D02*
X-26391Y-255100D01*
Y-254683D01*
X-26081Y-254475D01*
X-25770Y-254683D01*
Y-255100D01*
X-26081Y-255308D01*
G01X-17093Y-253017D02*
X-16163Y-254059D01*
X-15078Y-254683D01*
X-13683Y-254892D01*
X-12288Y-254475D01*
X-11204Y-253642D01*
X-10428Y-252183D01*
X-10273Y-250517D01*
X-10583Y-248850D01*
X-11358Y-247808D01*
X-12443Y-246975D01*
X-13528Y-246767D01*
X-14613Y-246975D01*
X-16008Y-247808D01*
X-15543Y-242392D01*
X-11358D01*
G01X-38478Y-229892D02*
Y-217392D01*
X-40338Y-219892D01*
G01Y-229892D02*
X-36619D01*
G01X-26081Y-230308D02*
X-26391Y-230100D01*
Y-229683D01*
X-26081Y-229475D01*
X-25770Y-229683D01*
Y-230100D01*
X-26081Y-230308D01*
G01X-13683Y-217392D02*
X-14923Y-217808D01*
X-15853Y-218850D01*
X-16473Y-220100D01*
X-16938Y-221767D01*
X-17093Y-223642D01*
X-16938Y-225517D01*
X-16473Y-227183D01*
X-15853Y-228434D01*
X-14923Y-229475D01*
X-13683Y-229892D01*
X-12443Y-229475D01*
X-11513Y-228434D01*
X-10893Y-227183D01*
X-10428Y-225517D01*
X-10273Y-223642D01*
X-10428Y-221767D01*
X-10893Y-220100D01*
X-11513Y-218850D01*
X-12443Y-217808D01*
X-13683Y-217392D01*
G01X-38478Y-192392D02*
X-39719Y-192808D01*
X-40648Y-193850D01*
X-41268Y-195100D01*
X-41733Y-196767D01*
X-41888Y-198642D01*
X-41733Y-200517D01*
X-41268Y-202183D01*
X-40648Y-203434D01*
X-39719Y-204475D01*
X-38478Y-204892D01*
X-37239Y-204475D01*
X-36309Y-203434D01*
X-35689Y-202183D01*
X-35224Y-200517D01*
X-35069Y-198642D01*
X-35224Y-196767D01*
X-35689Y-195100D01*
X-36309Y-193850D01*
X-37239Y-192808D01*
X-38478Y-192392D01*
G01X-26081Y-205308D02*
X-26391Y-205100D01*
Y-204683D01*
X-26081Y-204475D01*
X-25770Y-204683D01*
Y-205100D01*
X-26081Y-205308D01*
G01X-16318Y-203434D02*
X-15233Y-204475D01*
X-13993Y-204892D01*
X-12753Y-204475D01*
X-11668Y-203226D01*
X-10893Y-201350D01*
X-10583Y-199475D01*
Y-197183D01*
X-10893Y-195309D01*
X-11668Y-193642D01*
X-12598Y-192808D01*
X-13683Y-192392D01*
X-14923Y-192808D01*
X-15853Y-193642D01*
X-16473Y-194892D01*
X-16783Y-196559D01*
X-16473Y-198017D01*
X-15698Y-199475D01*
X-14768Y-200309D01*
X-13683Y-200517D01*
X-12443Y-200100D01*
X-11513Y-199059D01*
X-10583Y-197183D01*
G01X-38478Y-167392D02*
X-39719Y-167808D01*
X-40648Y-168850D01*
X-41268Y-170100D01*
X-41733Y-171767D01*
X-41888Y-173642D01*
X-41733Y-175517D01*
X-41268Y-177183D01*
X-40648Y-178434D01*
X-39719Y-179475D01*
X-38478Y-179892D01*
X-37239Y-179475D01*
X-36309Y-178434D01*
X-35689Y-177183D01*
X-35224Y-175517D01*
X-35069Y-173642D01*
X-35224Y-171767D01*
X-35689Y-170100D01*
X-36309Y-168850D01*
X-37239Y-167808D01*
X-38478Y-167392D01*
G01X-26081Y-180308D02*
X-26391Y-180100D01*
Y-179683D01*
X-26081Y-179475D01*
X-25770Y-179683D01*
Y-180100D01*
X-26081Y-180308D01*
G01X-16318Y-178434D02*
X-15233Y-179475D01*
X-13993Y-179892D01*
X-12753Y-179475D01*
X-11668Y-178226D01*
X-10893Y-176350D01*
X-10583Y-174475D01*
Y-172183D01*
X-10893Y-170309D01*
X-11668Y-168642D01*
X-12598Y-167808D01*
X-13683Y-167392D01*
X-14923Y-167808D01*
X-15853Y-168642D01*
X-16473Y-169892D01*
X-16783Y-171559D01*
X-16473Y-173017D01*
X-15698Y-174475D01*
X-14768Y-175309D01*
X-13683Y-175517D01*
X-12443Y-175100D01*
X-11513Y-174059D01*
X-10583Y-172183D01*
G01X74650Y-111142D02*
Y-311142D01*
G01X78833Y-279892D02*
Y-267392D01*
X85962Y-279892D01*
Y-267392D01*
G01X94795Y-279892D02*
X93555Y-279683D01*
X92470Y-278850D01*
X91541Y-277600D01*
X90920Y-276142D01*
X90611Y-274475D01*
Y-272808D01*
X90920Y-271142D01*
X91541Y-269683D01*
X92470Y-268433D01*
X93555Y-267600D01*
X94795Y-267392D01*
X96035Y-267600D01*
X97120Y-268433D01*
X98050Y-269683D01*
X98670Y-271142D01*
X98980Y-272808D01*
Y-274475D01*
X98670Y-276142D01*
X98050Y-277600D01*
X97120Y-278850D01*
X96035Y-279683D01*
X94795Y-279892D01*
G01X103628D02*
Y-267392D01*
X110757Y-279892D01*
Y-267392D01*
G01X117576Y-275725D02*
X121606D01*
G01X128889Y-279892D02*
Y-267392D01*
X132608D01*
X133848Y-268017D01*
X134778Y-269475D01*
X135088Y-271142D01*
X134778Y-272808D01*
X134003Y-274059D01*
X132608Y-274684D01*
X128889D01*
G01X141286Y-267392D02*
Y-279892D01*
X147485D01*
G01X152909D02*
X156783Y-267392D01*
X160658Y-279892D01*
G01X159263Y-275517D02*
X154304D01*
G01X169181Y-267392D02*
Y-279892D01*
G01X165617Y-267392D02*
X172746D01*
G01X184678Y-279892D02*
X178479D01*
Y-267392D01*
X184678D01*
G01X182199Y-273433D02*
X178479D01*
G01X190567Y-279892D02*
Y-267392D01*
X193666D01*
X194906Y-268017D01*
X195836Y-268850D01*
X196611Y-270100D01*
X197231Y-271559D01*
X197386Y-273642D01*
X197231Y-275725D01*
X196611Y-277183D01*
X195836Y-278434D01*
X194906Y-279267D01*
X193666Y-279892D01*
X190567D01*
G01X104093Y-304892D02*
Y-292392D01*
X107813D01*
X109053Y-293017D01*
X109983Y-294475D01*
X110293Y-296142D01*
X109983Y-297808D01*
X109208Y-299059D01*
X107813Y-299684D01*
X104093D01*
G01X116491Y-292392D02*
Y-304892D01*
X122690D01*
G01X128113D02*
X131988Y-292392D01*
X135863Y-304892D01*
G01X134468Y-300517D02*
X129508D01*
G01X144386Y-292392D02*
Y-304892D01*
G01X140821Y-292392D02*
X147950D01*
G01X159883Y-304892D02*
X153684D01*
Y-292392D01*
X159883D01*
G01X157404Y-298433D02*
X153684D01*
G01X165771Y-304892D02*
Y-292392D01*
X168871D01*
X170111Y-293017D01*
X171041Y-293850D01*
X171816Y-295100D01*
X172436Y-296559D01*
X172591Y-298642D01*
X172436Y-300725D01*
X171816Y-302183D01*
X171041Y-303434D01*
X170111Y-304267D01*
X168871Y-304892D01*
X165771D01*
G01X104093Y-254892D02*
Y-242392D01*
X107813D01*
X109053Y-243017D01*
X109983Y-244475D01*
X110293Y-246142D01*
X109983Y-247808D01*
X109208Y-249059D01*
X107813Y-249684D01*
X104093D01*
G01X116491Y-242392D02*
Y-254892D01*
X122690D01*
G01X128113D02*
X131988Y-242392D01*
X135863Y-254892D01*
G01X134468Y-250517D02*
X129508D01*
G01X144386Y-242392D02*
Y-254892D01*
G01X140821Y-242392D02*
X147950D01*
G01X159883Y-254892D02*
X153684D01*
Y-242392D01*
X159883D01*
G01X157404Y-248433D02*
X153684D01*
G01X165771Y-254892D02*
Y-242392D01*
X168871D01*
X170111Y-243017D01*
X171041Y-243850D01*
X171816Y-245100D01*
X172436Y-246559D01*
X172591Y-248642D01*
X172436Y-250725D01*
X171816Y-252183D01*
X171041Y-253434D01*
X170111Y-254267D01*
X168871Y-254892D01*
X165771D01*
G01X104093Y-229892D02*
Y-217392D01*
X107813D01*
X109053Y-218017D01*
X109983Y-219475D01*
X110293Y-221142D01*
X109983Y-222808D01*
X109208Y-224059D01*
X107813Y-224684D01*
X104093D01*
G01X116491Y-217392D02*
Y-229892D01*
X122690D01*
G01X128113D02*
X131988Y-217392D01*
X135863Y-229892D01*
G01X134468Y-225517D02*
X129508D01*
G01X144386Y-217392D02*
Y-229892D01*
G01X140821Y-217392D02*
X147950D01*
G01X159883Y-229892D02*
X153684D01*
Y-217392D01*
X159883D01*
G01X157404Y-223433D02*
X153684D01*
G01X165771Y-229892D02*
Y-217392D01*
X168871D01*
X170111Y-218017D01*
X171041Y-218850D01*
X171816Y-220100D01*
X172436Y-221559D01*
X172591Y-223642D01*
X172436Y-225725D01*
X171816Y-227183D01*
X171041Y-228434D01*
X170111Y-229267D01*
X168871Y-229892D01*
X165771D01*
G01X104093Y-204892D02*
Y-192392D01*
X107813D01*
X109053Y-193017D01*
X109983Y-194475D01*
X110293Y-196142D01*
X109983Y-197808D01*
X109208Y-199059D01*
X107813Y-199684D01*
X104093D01*
G01X116491Y-192392D02*
Y-204892D01*
X122690D01*
G01X128113D02*
X131988Y-192392D01*
X135863Y-204892D01*
G01X134468Y-200517D02*
X129508D01*
G01X144386Y-192392D02*
Y-204892D01*
G01X140821Y-192392D02*
X147950D01*
G01X159883Y-204892D02*
X153684D01*
Y-192392D01*
X159883D01*
G01X157404Y-198433D02*
X153684D01*
G01X165771Y-204892D02*
Y-192392D01*
X168871D01*
X170111Y-193017D01*
X171041Y-193850D01*
X171816Y-195100D01*
X172436Y-196559D01*
X172591Y-198642D01*
X172436Y-200725D01*
X171816Y-202183D01*
X171041Y-203434D01*
X170111Y-204267D01*
X168871Y-204892D01*
X165771D01*
G01X104093Y-179892D02*
Y-167392D01*
X107813D01*
X109053Y-168017D01*
X109983Y-169475D01*
X110293Y-171142D01*
X109983Y-172808D01*
X109208Y-174059D01*
X107813Y-174684D01*
X104093D01*
G01X116491Y-167392D02*
Y-179892D01*
X122690D01*
G01X128113D02*
X131988Y-167392D01*
X135863Y-179892D01*
G01X134468Y-175517D02*
X129508D01*
G01X144386Y-167392D02*
Y-179892D01*
G01X140821Y-167392D02*
X147950D01*
G01X159883Y-179892D02*
X153684D01*
Y-167392D01*
X159883D01*
G01X157404Y-173433D02*
X153684D01*
G01X165771Y-179892D02*
Y-167392D01*
X168871D01*
X170111Y-168017D01*
X171041Y-168850D01*
X171816Y-170100D01*
X172436Y-171559D01*
X172591Y-173642D01*
X172436Y-175725D01*
X171816Y-177183D01*
X171041Y-178434D01*
X170111Y-179267D01*
X168871Y-179892D01*
X165771D01*
G01X104093Y-154892D02*
Y-142392D01*
X107813D01*
X109053Y-143017D01*
X109983Y-144475D01*
X110293Y-146142D01*
X109983Y-147808D01*
X109208Y-149059D01*
X107813Y-149684D01*
X104093D01*
G01X116491Y-142392D02*
Y-154892D01*
X122690D01*
G01X128113D02*
X131988Y-142392D01*
X135863Y-154892D01*
G01X134468Y-150517D02*
X129508D01*
G01X144386Y-142392D02*
Y-154892D01*
G01X140821Y-142392D02*
X147950D01*
G01X159883Y-154892D02*
X153684D01*
Y-142392D01*
X159883D01*
G01X157404Y-148433D02*
X153684D01*
G01X165771Y-154892D02*
Y-142392D01*
X168871D01*
X170111Y-143017D01*
X171041Y-143850D01*
X171816Y-145100D01*
X172436Y-146559D01*
X172591Y-148642D01*
X172436Y-150725D01*
X171816Y-152183D01*
X171041Y-153434D01*
X170111Y-154267D01*
X168871Y-154892D01*
X165771D01*
G01X104093Y-129892D02*
Y-117392D01*
X107813D01*
X109053Y-118017D01*
X109983Y-119475D01*
X110293Y-121142D01*
X109983Y-122808D01*
X109208Y-124059D01*
X107813Y-124684D01*
X104093D01*
G01X116491Y-117392D02*
Y-129892D01*
X122690D01*
G01X128113D02*
X131988Y-117392D01*
X135863Y-129892D01*
G01X134468Y-125517D02*
X129508D01*
G01X144386Y-117392D02*
Y-129892D01*
G01X140821Y-117392D02*
X147950D01*
G01X159883Y-129892D02*
X153684D01*
Y-117392D01*
X159883D01*
G01X157404Y-123433D02*
X153684D01*
G01X165771Y-129892D02*
Y-117392D01*
X168871D01*
X170111Y-118017D01*
X171041Y-118850D01*
X171816Y-120100D01*
X172436Y-121559D01*
X172591Y-123642D01*
X172436Y-125725D01*
X171816Y-127183D01*
X171041Y-128434D01*
X170111Y-129267D01*
X168871Y-129892D01*
X165771D01*
G01X201724Y-111142D02*
Y-311142D01*
G01X237522Y-294475D02*
X238452Y-293225D01*
X239537Y-292600D01*
X240777Y-292392D01*
X242326Y-292808D01*
X243411Y-293850D01*
X243721Y-295100D01*
X243566Y-296350D01*
X242946Y-297392D01*
X239846Y-299475D01*
X238452Y-300933D01*
X237522Y-303017D01*
X237212Y-304892D01*
X243721D01*
G01X237522Y-269475D02*
X238452Y-268225D01*
X239537Y-267600D01*
X240777Y-267392D01*
X242326Y-267808D01*
X243411Y-268850D01*
X243721Y-270100D01*
X243566Y-271350D01*
X242946Y-272392D01*
X239846Y-274475D01*
X238452Y-275933D01*
X237522Y-278017D01*
X237212Y-279892D01*
X243721D01*
G01X242326Y-254892D02*
Y-242392D01*
X236592Y-251350D01*
X244341D01*
G01X240467Y-229892D02*
Y-217392D01*
X238607Y-219892D01*
G01Y-229892D02*
X242326D01*
G01X240467Y-204892D02*
Y-192392D01*
X238607Y-194892D01*
G01Y-204892D02*
X242326D01*
G01X237057Y-177392D02*
X237987Y-178850D01*
X239226Y-179683D01*
X240622Y-179892D01*
X241861Y-179683D01*
X243102Y-178642D01*
X243876Y-177392D01*
X244031Y-176142D01*
X243721Y-174684D01*
X242636Y-173642D01*
X241551Y-173225D01*
X240156D01*
G01X241551D02*
X242481Y-172600D01*
X243256Y-171559D01*
X243566Y-170309D01*
X243256Y-169058D01*
X242481Y-168017D01*
X241087Y-167392D01*
X239692Y-167600D01*
X238297Y-168433D01*
G01X231633Y-153434D02*
X232718Y-154475D01*
X233957Y-154892D01*
X235198Y-154475D01*
X236283Y-153226D01*
X237057Y-151350D01*
X237367Y-149475D01*
Y-147183D01*
X237057Y-145309D01*
X236283Y-143642D01*
X235352Y-142808D01*
X234268Y-142392D01*
X233028Y-142808D01*
X232098Y-143642D01*
X231478Y-144892D01*
X231168Y-146559D01*
X231478Y-148017D01*
X232253Y-149475D01*
X233183Y-150309D01*
X234268Y-150517D01*
X235507Y-150100D01*
X236437Y-149059D01*
X237367Y-147183D01*
G01X248525Y-154892D02*
Y-142392D01*
X242791Y-151350D01*
X250540D01*
G01X228069Y-129892D02*
X226829Y-129683D01*
X225744Y-128850D01*
X224814Y-127600D01*
X224194Y-126142D01*
X223884Y-124475D01*
Y-122808D01*
X224194Y-121142D01*
X224814Y-119683D01*
X225744Y-118433D01*
X226829Y-117600D01*
X228069Y-117392D01*
X229309Y-117600D01*
X230394Y-118433D01*
X231324Y-119683D01*
X231944Y-121142D01*
X232254Y-122808D01*
Y-124475D01*
X231944Y-126142D01*
X231324Y-127600D01*
X230394Y-128850D01*
X229309Y-129683D01*
X228069Y-129892D01*
G01X229309Y-126558D02*
X231169Y-129892D01*
G01X240467Y-117392D02*
Y-129892D01*
G01X236902Y-117392D02*
X244031D01*
G01X252864Y-129892D02*
Y-124267D01*
X249765Y-117392D01*
G01X255964D02*
X252864Y-124267D01*
M02*
