G04 ================== begin FILE IDENTIFICATION RECORD ==================*
G04 Layout Name:  wireless_cmsis_dap_sent_V2.brd*
G04 Film Name:    DRILL*
G04 File Format:  Gerber RS274X*
G04 File Origin:  Cadence Allegro -unreleased*
G04 Origin Date:  Tue May 19 00:31:34 2020*
G04 *
G04 Layer:  MANUFACTURING/NCDRILL_LEGEND*
G04 Layer:  MANUFACTURING/NCDRILL_FIGURE*
G04 Layer:  BOARD GEOMETRY/DIMENSION*
G04 Layer:  MANUFACTURING/NCLEGEND-1-2*
G04 Layer:  BOARD GEOMETRY/DESIGN_OUTLINE*
G04 *
G04 Offset:    (0.0000 0.0000)*
G04 Mirror:    No*
G04 Mode:      Positive*
G04 Rotation:  0*
G04 FullContactRelief:  No*
G04 UndefLineWidth:     0.1500*
G04 ================== end FILE IDENTIFICATION RECORD ====================*
%FSLAX25Y25*MOIN*%
%IR0*IPPOS*OFA0.00000B0.00000*MIA0B0*SFA1.00000B1.00000*%
%AMMACRO11*
1,1,.005906,.023622,0.0*
20,1,.005906,.023622,0.0,0.0,-.023622,0.0*
1,1,.005906,0.0,-.023622*
20,1,.005906,0.0,-.023622,-.023622,0.0,0.0*
1,1,.005906,-.023622,0.0*
20,1,.005906,-.023622,0.0,0.0,.023622,0.0*
1,1,.005906,0.0,.023622*
20,1,.005906,0.0,.023622,.023622,0.0,0.0*
1,1,.005906,.023622,0.0*
%
%ADD11MACRO11*%
%AMMACRO12*
1,1,.005906,.012231,-.029528*
20,1,.005906,.012231,-.029528,-.012231,-.029528,0.0*
1,1,.005906,-.012231,-.029528*
20,1,.005906,-.012231,-.029528,-.029528,-.012231,0.0*
1,1,.005906,-.029528,-.012231*
20,1,.005906,-.029528,-.012231,-.029528,.012231,0.0*
1,1,.005906,-.029528,.012231*
20,1,.005906,-.029528,.012231,-.012231,.029528,0.0*
1,1,.005906,-.012231,.029528*
20,1,.005906,-.012231,.029528,.012231,.029528,0.0*
1,1,.005906,.012231,.029528*
20,1,.005906,.012231,.029528,.029528,.012231,0.0*
1,1,.005906,.029528,.012231*
20,1,.005906,.029528,.012231,.029528,-.012231,0.0*
1,1,.005906,.029528,-.012231*
20,1,.005906,.029528,-.012231,.012231,-.029528,0.0*
1,1,.005906,.012231,-.029528*
%
%ADD12MACRO12*%
%AMMACRO16*
1,1,.005906,.0065,0.0*
20,1,.005906,.0065,0.0,-.0065,0.0,0.0*
1,1,.005906,-.0065,0.0*
1,1,.005906,0.0,.0065*
20,1,.005906,0.0,.0065,0.0,-.0065,0.0*
1,1,.005906,0.0,-.0065*
%
%ADD16MACRO16*%
%AMMACRO15*
1,1,.005906,.017717,.017717*
20,1,.005906,.017717,.017717,.017717,-.017717,0.0*
1,1,.005906,.017717,-.017717*
20,1,.005906,.017717,-.017717,-.017717,-.017717,0.0*
1,1,.005906,-.017717,-.017717*
20,1,.005906,-.017717,-.017717,-.017717,.017717,0.0*
1,1,.005906,-.017717,.017717*
20,1,.005906,-.017717,.017717,.017717,.017717,0.0*
1,1,.005906,.017717,.017717*
%
%ADD15MACRO15*%
%AMMACRO13*
1,1,.005906,0.0,.019685*
20,1,.005906,0.0,.019685,-.017048,.009843,0.0*
1,1,.005906,-.017048,.009843*
20,1,.005906,-.017048,.009843,-.017048,-.009843,0.0*
1,1,.005906,-.017048,-.009843*
20,1,.005906,-.017048,-.009843,0.0,-.019685,0.0*
1,1,.005906,0.0,-.019685*
20,1,.005906,0.0,-.019685,.017048,-.009843,0.0*
1,1,.005906,.017048,-.009843*
20,1,.005906,.017048,-.009843,.017048,.009843,0.0*
1,1,.005906,.017048,.009843*
20,1,.005906,.017048,.009843,0.0,.019685,0.0*
1,1,.005906,0.0,.019685*
%
%ADD13MACRO13*%
%AMMACRO10*
1,1,.005906,-.029528,.019685*
20,1,.005906,-.029528,.019685,.029528,.019685,0.0*
1,1,.005906,.029528,.019685*
20,1,.005906,.029528,.019685,.032946,.019386,0.0*
1,1,.005906,.032946,.019386*
20,1,.005906,.032946,.019386,.03626,.018498,0.0*
1,1,.005906,.03626,.018498*
20,1,.005906,.03626,.018498,.03937,.017048,0.0*
1,1,.005906,.03937,.017048*
20,1,.005906,.03937,.017048,.042181,.01508,0.0*
1,1,.005906,.042181,.01508*
20,1,.005906,.042181,.01508,.044607,.012653,0.0*
1,1,.005906,.044607,.012653*
20,1,.005906,.044607,.012653,.046575,.009843,0.0*
1,1,.005906,.046575,.009843*
20,1,.005906,.046575,.009843,.048025,.006733,0.0*
1,1,.005906,.048025,.006733*
20,1,.005906,.048025,.006733,.048914,.003418,0.0*
1,1,.005906,.048914,.003418*
20,1,.005906,.048914,.003418,.049213,0.0,0.0*
1,1,.005906,.049213,0.0*
20,1,.005906,.049213,0.0,.048914,-.003418,0.0*
1,1,.005906,.048914,-.003418*
20,1,.005906,.048914,-.003418,.048025,-.006733,0.0*
1,1,.005906,.048025,-.006733*
20,1,.005906,.048025,-.006733,.046575,-.009843,0.0*
1,1,.005906,.046575,-.009843*
20,1,.005906,.046575,-.009843,.044607,-.012653,0.0*
1,1,.005906,.044607,-.012653*
20,1,.005906,.044607,-.012653,.042181,-.01508,0.0*
1,1,.005906,.042181,-.01508*
20,1,.005906,.042181,-.01508,.03937,-.017048,0.0*
1,1,.005906,.03937,-.017048*
20,1,.005906,.03937,-.017048,.03626,-.018498,0.0*
1,1,.005906,.03626,-.018498*
20,1,.005906,.03626,-.018498,.032946,-.019386,0.0*
1,1,.005906,.032946,-.019386*
20,1,.005906,.032946,-.019386,.029528,-.019685,0.0*
1,1,.005906,.029528,-.019685*
20,1,.005906,.029528,-.019685,-.029528,-.019685,0.0*
1,1,.005906,-.029528,-.019685*
20,1,.005906,-.029528,-.019685,-.032946,-.019386,0.0*
1,1,.005906,-.032946,-.019386*
20,1,.005906,-.032946,-.019386,-.03626,-.018498,0.0*
1,1,.005906,-.03626,-.018498*
20,1,.005906,-.03626,-.018498,-.03937,-.017048,0.0*
1,1,.005906,-.03937,-.017048*
20,1,.005906,-.03937,-.017048,-.042181,-.01508,0.0*
1,1,.005906,-.042181,-.01508*
20,1,.005906,-.042181,-.01508,-.044607,-.012653,0.0*
1,1,.005906,-.044607,-.012653*
20,1,.005906,-.044607,-.012653,-.046575,-.009843,0.0*
1,1,.005906,-.046575,-.009843*
20,1,.005906,-.046575,-.009843,-.048025,-.006733,0.0*
1,1,.005906,-.048025,-.006733*
20,1,.005906,-.048025,-.006733,-.048914,-.003418,0.0*
1,1,.005906,-.048914,-.003418*
20,1,.005906,-.048914,-.003418,-.049213,0.0,0.0*
1,1,.005906,-.049213,0.0*
20,1,.005906,-.049213,0.0,-.048914,.003418,0.0*
1,1,.005906,-.048914,.003418*
20,1,.005906,-.048914,.003418,-.048025,.006733,0.0*
1,1,.005906,-.048025,.006733*
20,1,.005906,-.048025,.006733,-.046575,.009843,0.0*
1,1,.005906,-.046575,.009843*
20,1,.005906,-.046575,.009843,-.044607,.012653,0.0*
1,1,.005906,-.044607,.012653*
20,1,.005906,-.044607,.012653,-.042181,.01508,0.0*
1,1,.005906,-.042181,.01508*
20,1,.005906,-.042181,.01508,-.03937,.017048,0.0*
1,1,.005906,-.03937,.017048*
20,1,.005906,-.03937,.017048,-.03626,.018498,0.0*
1,1,.005906,-.03626,.018498*
20,1,.005906,-.03626,.018498,-.032946,.019386,0.0*
1,1,.005906,-.032946,.019386*
20,1,.005906,-.032946,.019386,-.029528,.019685,0.0*
1,1,.005906,-.029528,.019685*
1,1,.005906,-.009843,-.009843*
20,1,.005906,-.009843,-.009843,-.012469,-.009516,0.0*
1,1,.005906,-.012469,-.009516*
20,1,.005906,-.012469,-.009516,-.014764,-.008201,0.0*
1,1,.005906,-.014764,-.008201*
20,1,.005906,-.014764,-.008201,-.016732,-.006232,0.0*
1,1,.005906,-.016732,-.006232*
20,1,.005906,-.016732,-.006232,-.018043,-.003937,0.0*
1,1,.005906,-.018043,-.003937*
20,1,.005906,-.018043,-.003937,-.018701,-.001311,0.0*
1,1,.005906,-.018701,-.001311*
20,1,.005906,-.018701,-.001311,-.018701,.001311,0.0*
1,1,.005906,-.018701,.001311*
20,1,.005906,-.018701,.001311,-.018043,.003937,0.0*
1,1,.005906,-.018043,.003937*
20,1,.005906,-.018043,.003937,-.016732,.006232,0.0*
1,1,.005906,-.016732,.006232*
20,1,.005906,-.016732,.006232,-.014764,.008201,0.0*
1,1,.005906,-.014764,.008201*
20,1,.005906,-.014764,.008201,-.012469,.009516,0.0*
1,1,.005906,-.012469,.009516*
20,1,.005906,-.012469,.009516,-.009843,.009843,0.0*
1,1,.005906,-.009843,.009843*
20,1,.005906,-.009843,.009843,-.007217,.009516,0.0*
1,1,.005906,-.007217,.009516*
20,1,.005906,-.007217,.009516,-.004921,.008201,0.0*
1,1,.005906,-.004921,.008201*
20,1,.005906,-.004921,.008201,-.002953,.006232,0.0*
1,1,.005906,-.002953,.006232*
20,1,.005906,-.002953,.006232,-.001642,.003937,0.0*
1,1,.005906,-.001642,.003937*
20,1,.005906,-.001642,.003937,-.000984,.001311,0.0*
1,1,.005906,-.000984,.001311*
20,1,.005906,-.000984,.001311,-.000984,-.001311,0.0*
1,1,.005906,-.000984,-.001311*
20,1,.005906,-.000984,-.001311,-.001642,-.003937,0.0*
1,1,.005906,-.001642,-.003937*
20,1,.005906,-.001642,-.003937,-.002953,-.006232,0.0*
1,1,.005906,-.002953,-.006232*
20,1,.005906,-.002953,-.006232,-.004921,-.008201,0.0*
1,1,.005906,-.004921,-.008201*
20,1,.005906,-.004921,-.008201,-.007217,-.009516,0.0*
1,1,.005906,-.007217,-.009516*
20,1,.005906,-.007217,-.009516,-.009843,-.009843,0.0*
1,1,.005906,-.009843,-.009843*
1,1,.005906,.001646,-.009843*
20,1,.005906,.001646,-.009843,.009846,.009843,0.0*
1,1,.005906,.009846,.009843*
20,1,.005906,.009846,.009843,.018047,-.009843,0.0*
1,1,.005906,.018047,-.009843*
1,1,.005906,.015094,-.002953*
20,1,.005906,.015094,-.002953,.004598,-.002953,0.0*
1,1,.005906,.004598,-.002953*
%
%ADD10MACRO10*%
%AMMACRO14*
1,1,.005906,.017717,0.0*
20,1,.005906,.017717,0.0,.008858,.015343,0.0*
1,1,.005906,.008858,.015343*
20,1,.005906,.008858,.015343,-.008858,.015343,0.0*
1,1,.005906,-.008858,.015343*
20,1,.005906,-.008858,.015343,-.017717,0.0,0.0*
1,1,.005906,-.017717,0.0*
20,1,.005906,-.017717,0.0,-.008858,-.015343,0.0*
1,1,.005906,-.008858,-.015343*
20,1,.005906,-.008858,-.015343,.008858,-.015343,0.0*
1,1,.005906,.008858,-.015343*
20,1,.005906,.008858,-.015343,.017717,0.0,0.0*
1,1,.005906,.017717,0.0*
%
%ADD14MACRO14*%
%ADD17C,.005906*%
G75*
%LPD*%
G75*
G54D10*
X-183799Y-320059D03*
X-88976Y-22835D03*
Y22835D03*
G54D11*
X-183799Y-295059D03*
X-88976Y-8858D03*
Y8858D03*
G54D12*
X-183799Y-270059D03*
X74764Y8780D03*
Y28465D03*
X94449Y8780D03*
Y28465D03*
G54D13*
X-183799Y-245059D03*
X84606Y18622D03*
G54D14*
X-183799Y-220059D03*
X-43307Y-23622D03*
G54D15*
X-183799Y-195059D03*
X-23307Y-23622D03*
X-33307D03*
X-13307D03*
G54D16*
X-183799Y-170059D03*
X-96000Y-36000D03*
Y-30000D03*
X-90000Y-36000D03*
X-96000Y0D03*
Y6000D03*
Y12000D03*
X-90000Y36000D03*
X-96000Y30000D03*
Y36000D03*
X-77520Y-22165D03*
X-72795Y-17717D03*
X-77283Y-17677D03*
X-72913Y-22205D03*
X-61417Y-21654D03*
X-48228Y-7284D03*
X-55787Y-1102D03*
X-60000Y36000D03*
X-38189Y-35433D03*
X-24000Y6000D03*
X-30000D03*
X-39677Y14323D03*
X-24015Y10826D03*
X-21693Y-1811D03*
X-24000Y36000D03*
X-30000D03*
X-36000D03*
X-3906Y-829D03*
X-5551Y6174D03*
X0Y36000D03*
X-6000D03*
X-12000D03*
X-18000D03*
X21575Y-35039D03*
X21535Y-37992D03*
X3150Y-29528D03*
X12598D03*
X9843Y984D03*
X18000Y36000D03*
X12000D03*
X6000D03*
X1378Y17559D03*
X24474Y-35051D03*
X24435Y-37951D03*
X42000Y36000D03*
X36000D03*
X30000D03*
X24000D03*
X66000Y-30000D03*
Y-36000D03*
Y-24000D03*
Y12000D03*
Y18000D03*
Y24000D03*
Y30000D03*
Y36000D03*
X60000D03*
X54000D03*
X48000D03*
X72000Y-30000D03*
X78000D03*
X84000D03*
X90000D03*
X72000Y-36000D03*
X78000D03*
X84000D03*
X90000D03*
X72000Y-24000D03*
X78000D03*
Y-18000D03*
X84000D03*
Y-24000D03*
X90000Y-18000D03*
X84000Y-12000D03*
X90000D03*
Y-24000D03*
Y-6000D03*
X72000Y18000D03*
Y36000D03*
X78000D03*
X84000D03*
Y30000D03*
X90000Y36000D03*
X96000Y-30000D03*
Y-36000D03*
Y-12000D03*
Y-18000D03*
Y-24000D03*
Y-6000D03*
Y0D03*
Y36000D03*
Y18000D03*
G54D17*
G01X-228740Y-332559D02*
Y-81969D01*
X267161D01*
Y-332559D01*
X-228740D01*
G01Y-307559D02*
X267161D01*
G01X-228740Y-282559D02*
X267161D01*
G01X-228740Y-257559D02*
X267161D01*
G01X-228740Y-232559D02*
X267161D01*
G01X-228740Y-207559D02*
X267161D01*
G01X-228740Y-182559D02*
X267161D01*
G01X-228740Y-157559D02*
X267161D01*
G01X-228740Y-132559D02*
X267161D01*
G01X-228740Y-107559D02*
X267161D01*
G01X-217738Y-151309D02*
Y-138809D01*
X-211848D01*
G01X-214019Y-144850D02*
X-217738D01*
G01X-204256Y-138809D02*
X-200536D01*
G01X-202396D02*
Y-151309D01*
G01X-204256D02*
X-200536D01*
G01X-189068Y-145059D02*
X-185968D01*
Y-148809D01*
X-186898Y-150059D01*
X-187983Y-150893D01*
X-189533Y-151309D01*
X-191083Y-150893D01*
X-192168Y-150059D01*
X-193098Y-148809D01*
X-193718Y-147351D01*
X-194028Y-145684D01*
Y-144226D01*
X-193718Y-142976D01*
X-193098Y-141517D01*
X-192168Y-140267D01*
X-191238Y-139434D01*
X-189998Y-138809D01*
X-188913D01*
X-187673Y-139226D01*
X-186743Y-140059D01*
G01X-181010Y-138809D02*
Y-147767D01*
X-180390Y-149643D01*
X-179150Y-150893D01*
X-177600Y-151309D01*
X-176050Y-150893D01*
X-174811Y-149643D01*
X-174191Y-147767D01*
Y-138809D01*
G01X-168302Y-151309D02*
Y-138809D01*
X-164428D01*
X-163188Y-139434D01*
X-162413Y-140267D01*
X-162103Y-141934D01*
X-162413Y-143601D01*
X-163343Y-144642D01*
X-164428Y-145268D01*
X-168302D01*
G01X-164428D02*
X-162103Y-151309D01*
G01X-149706D02*
X-155905D01*
Y-138809D01*
X-149706D01*
G01X-152185Y-144850D02*
X-155905D01*
G01X-138858Y-132559D02*
Y-332559D01*
G01X-152032Y-126309D02*
X-148157Y-113809D01*
X-144283Y-126309D01*
G01X-145678Y-121934D02*
X-150637D01*
G01X-138859Y-113809D02*
Y-126309D01*
X-132660D01*
G01X-126462Y-113809D02*
Y-126309D01*
X-120263D01*
G01X-101977Y-113809D02*
Y-122767D01*
X-101357Y-124643D01*
X-100117Y-125893D01*
X-98567Y-126309D01*
X-97017Y-125893D01*
X-95777Y-124643D01*
X-95157Y-122767D01*
Y-113809D01*
G01X-89734Y-126309D02*
Y-113809D01*
X-82605Y-126309D01*
Y-113809D01*
G01X-75631D02*
X-71912D01*
G01X-73772D02*
Y-126309D01*
G01X-75631D02*
X-71912D01*
G01X-61374Y-113809D02*
Y-126309D01*
G01X-64939Y-113809D02*
X-57809D01*
G01X-52231Y-124643D02*
X-50991Y-125684D01*
X-49596Y-126309D01*
X-48356D01*
X-47117Y-125684D01*
X-46187Y-124643D01*
X-45722Y-123184D01*
X-46031Y-121726D01*
X-46807Y-120476D01*
X-48202Y-119642D01*
X-50061Y-119226D01*
X-51146Y-118393D01*
X-51611Y-116934D01*
X-51301Y-115476D01*
X-50526Y-114434D01*
X-49441Y-113809D01*
X-48356D01*
X-47272Y-114226D01*
X-46341Y-115267D01*
G01X-28056Y-126309D02*
X-24181Y-113809D01*
X-20306Y-126309D01*
G01X-21702Y-121934D02*
X-26661D01*
G01X-14883Y-126309D02*
Y-113809D01*
X-11009D01*
X-9769Y-114434D01*
X-8994Y-115267D01*
X-8684Y-116934D01*
X-8994Y-118601D01*
X-9924Y-119642D01*
X-11009Y-120268D01*
X-14883D01*
G01X-11009D02*
X-8684Y-126309D01*
G01X3714D02*
X-2485D01*
Y-113809D01*
X3714D01*
G01X1234Y-119850D02*
X-2485D01*
G01X23550Y-113809D02*
X27269D01*
G01X25409D02*
Y-126309D01*
G01X23550D02*
X27269D01*
G01X34243D02*
Y-113809D01*
X41372Y-126309D01*
Y-113809D01*
G01X58572Y-126309D02*
Y-113809D01*
X62602Y-124226D01*
X66632Y-113809D01*
Y-126309D01*
G01X73140Y-113809D02*
X76859D01*
G01X75000D02*
Y-126309D01*
G01X73140D02*
X76859D01*
G01X84298Y-113809D02*
Y-126309D01*
X90497D01*
G01X96696Y-113809D02*
Y-126309D01*
X102895D01*
G01X110333Y-113809D02*
X114052D01*
G01X112193D02*
Y-126309D01*
G01X110333D02*
X114052D01*
G01X120561D02*
Y-113809D01*
X124591Y-124226D01*
X128620Y-113809D01*
Y-126309D01*
G01X140088D02*
X133889D01*
Y-113809D01*
X140088D01*
G01X137608Y-119850D02*
X133889D01*
G01X149386Y-113809D02*
Y-126309D01*
G01X145821Y-113809D02*
X152950D01*
G01X164883Y-126309D02*
X158684D01*
Y-113809D01*
X164883D01*
G01X162404Y-119850D02*
X158684D01*
G01X171081Y-126309D02*
Y-113809D01*
X174956D01*
X176196Y-114434D01*
X176971Y-115267D01*
X177281Y-116934D01*
X176971Y-118601D01*
X176041Y-119642D01*
X174956Y-120268D01*
X171081D01*
G01X174956D02*
X177281Y-126309D01*
G01X183324Y-124643D02*
X184564Y-125684D01*
X185959Y-126309D01*
X187199D01*
X188439Y-125684D01*
X189369Y-124643D01*
X189833Y-123184D01*
X189524Y-121726D01*
X188748Y-120476D01*
X187354Y-119642D01*
X185494Y-119226D01*
X184409Y-118393D01*
X183944Y-116934D01*
X184254Y-115476D01*
X185029Y-114434D01*
X186114Y-113809D01*
X187199D01*
X188283Y-114226D01*
X189214Y-115267D01*
G01X-139170Y-100719D02*
Y-88219D01*
X-136070D01*
X-134830Y-88844D01*
X-133900Y-89677D01*
X-133125Y-90927D01*
X-132505Y-92385D01*
X-132350Y-94469D01*
X-132505Y-96552D01*
X-133125Y-98010D01*
X-133900Y-99261D01*
X-134830Y-100094D01*
X-136070Y-100719D01*
X-139170D01*
G01X-126462D02*
Y-88219D01*
X-122587D01*
X-121347Y-88844D01*
X-120572Y-89677D01*
X-120263Y-91344D01*
X-120572Y-93010D01*
X-121502Y-94052D01*
X-122587Y-94677D01*
X-126462D01*
G01X-122587D02*
X-120263Y-100719D01*
G01X-112824Y-88219D02*
X-109105D01*
G01X-110965D02*
Y-100719D01*
G01X-112824D02*
X-109105D01*
G01X-101667Y-88219D02*
Y-100719D01*
X-95467D01*
G01X-89269Y-88219D02*
Y-100719D01*
X-83070D01*
G01X-57964Y-89260D02*
X-58894Y-88635D01*
X-59979Y-88219D01*
X-61219D01*
X-62614Y-88844D01*
X-63699Y-89885D01*
X-64474Y-91135D01*
X-65094Y-93219D01*
X-65249Y-95094D01*
X-64939Y-96969D01*
X-64474Y-98219D01*
X-63544Y-99469D01*
X-62459Y-100302D01*
X-61374Y-100719D01*
X-60289D01*
X-59204Y-100302D01*
X-58274Y-99677D01*
X-57499Y-98844D01*
G01X-52231Y-100719D02*
Y-88219D01*
G01X-45722D02*
Y-100719D01*
G01Y-94469D02*
X-52231D01*
G01X-40454Y-100719D02*
X-36579Y-88219D01*
X-32704Y-100719D01*
G01X-34099Y-96344D02*
X-39059D01*
G01X-27281Y-100719D02*
Y-88219D01*
X-23406D01*
X-22166Y-88844D01*
X-21391Y-89677D01*
X-21081Y-91344D01*
X-21391Y-93010D01*
X-22321Y-94052D01*
X-23406Y-94677D01*
X-27281D01*
G01X-23406D02*
X-21081Y-100719D01*
G01X-11783Y-88219D02*
Y-100719D01*
G01X-15348Y-88219D02*
X-8219D01*
G01X614Y-101135D02*
X304Y-100927D01*
Y-100510D01*
X614Y-100302D01*
X924Y-100510D01*
Y-100927D01*
X614Y-101135D01*
G01Y-95511D02*
X304Y-95302D01*
Y-94885D01*
X614Y-94677D01*
X924Y-94885D01*
Y-95302D01*
X614Y-95511D01*
G01X25409Y-88219D02*
Y-100719D01*
G01X21845Y-88219D02*
X28974D01*
G01X37807Y-100719D02*
X36567Y-100510D01*
X35482Y-99677D01*
X34552Y-98427D01*
X33932Y-96969D01*
X33622Y-95302D01*
Y-93635D01*
X33932Y-91969D01*
X34552Y-90510D01*
X35482Y-89260D01*
X36567Y-88427D01*
X37807Y-88219D01*
X39047Y-88427D01*
X40132Y-89260D01*
X41062Y-90510D01*
X41682Y-91969D01*
X41992Y-93635D01*
Y-95302D01*
X41682Y-96969D01*
X41062Y-98427D01*
X40132Y-99677D01*
X39047Y-100510D01*
X37807Y-100719D01*
G01X47105D02*
Y-88219D01*
X50825D01*
X52065Y-88844D01*
X52994Y-90302D01*
X53304Y-91969D01*
X52994Y-93635D01*
X52220Y-94885D01*
X50825Y-95511D01*
X47105D01*
G01X75000Y-88219D02*
Y-100719D01*
G01X72830Y-92385D02*
X77170D01*
G01X87398Y-100719D02*
X86468Y-100510D01*
X85538Y-99677D01*
X84918Y-98219D01*
X84608Y-96552D01*
X84918Y-94885D01*
X85538Y-93427D01*
X86468Y-92594D01*
X87398Y-92385D01*
X88328Y-92594D01*
X89257Y-93427D01*
X89877Y-94885D01*
X90033Y-96552D01*
X89877Y-98219D01*
X89257Y-99677D01*
X88328Y-100510D01*
X87398Y-100719D01*
G01X113433Y-94052D02*
X114053Y-93427D01*
X114518Y-92385D01*
X114828Y-90927D01*
X114518Y-89677D01*
X113898Y-88844D01*
X112813Y-88219D01*
X108628D01*
Y-100719D01*
X113743D01*
X114828Y-99885D01*
X115448Y-98635D01*
X115757Y-97177D01*
X115448Y-95719D01*
X114518Y-94469D01*
X113433Y-94052D01*
X108628D01*
G01X124591Y-100719D02*
X123350Y-100510D01*
X122266Y-99677D01*
X121336Y-98427D01*
X120716Y-96969D01*
X120406Y-95302D01*
Y-93635D01*
X120716Y-91969D01*
X121336Y-90510D01*
X122266Y-89260D01*
X123350Y-88427D01*
X124591Y-88219D01*
X125830Y-88427D01*
X126915Y-89260D01*
X127845Y-90510D01*
X128465Y-91969D01*
X128775Y-93635D01*
Y-95302D01*
X128465Y-96969D01*
X127845Y-98427D01*
X126915Y-99677D01*
X125830Y-100510D01*
X124591Y-100719D01*
G01X136988Y-88219D02*
Y-100719D01*
G01X133424Y-88219D02*
X140553D01*
G01X149386D02*
Y-100719D01*
G01X145821Y-88219D02*
X152950D01*
G01X161783Y-100719D02*
X160543Y-100510D01*
X159459Y-99677D01*
X158529Y-98427D01*
X157909Y-96969D01*
X157599Y-95302D01*
Y-93635D01*
X157909Y-91969D01*
X158529Y-90510D01*
X159459Y-89260D01*
X160543Y-88427D01*
X161783Y-88219D01*
X163023Y-88427D01*
X164108Y-89260D01*
X165038Y-90510D01*
X165658Y-91969D01*
X165968Y-93635D01*
Y-95302D01*
X165658Y-96969D01*
X165038Y-98427D01*
X164108Y-99677D01*
X163023Y-100510D01*
X161783Y-100719D01*
G01X170151D02*
Y-88219D01*
X174181Y-98635D01*
X178211Y-88219D01*
Y-100719D01*
G01X-115459Y-151309D02*
Y-138809D01*
X-109569D01*
G01X-111739Y-144850D02*
X-115459D01*
G01X-101976Y-138809D02*
X-98257D01*
G01X-100116D02*
Y-151309D01*
G01X-101976D02*
X-98257D01*
G01X-91283D02*
Y-138809D01*
X-84154Y-151309D01*
Y-138809D01*
G01X-77181D02*
X-73461D01*
G01X-75321D02*
Y-151309D01*
G01X-77181D02*
X-73461D01*
G01X-66178Y-149643D02*
X-64938Y-150684D01*
X-63543Y-151309D01*
X-62303D01*
X-61063Y-150684D01*
X-60133Y-149643D01*
X-59669Y-148184D01*
X-59978Y-146726D01*
X-60754Y-145476D01*
X-62148Y-144642D01*
X-64008Y-144226D01*
X-65093Y-143393D01*
X-65558Y-141934D01*
X-65248Y-140476D01*
X-64473Y-139434D01*
X-63388Y-138809D01*
X-62303D01*
X-61219Y-139226D01*
X-60288Y-140267D01*
G01X-53780Y-151309D02*
Y-138809D01*
G01X-47271D02*
Y-151309D01*
G01Y-145059D02*
X-53780D01*
G01X-35028Y-151309D02*
X-41228D01*
Y-138809D01*
X-35028D01*
G01X-37508Y-144850D02*
X-41228D01*
G01X-29140Y-151309D02*
Y-138809D01*
X-26041D01*
X-24800Y-139434D01*
X-23870Y-140267D01*
X-23095Y-141517D01*
X-22476Y-142976D01*
X-22320Y-145059D01*
X-22476Y-147143D01*
X-23095Y-148601D01*
X-23870Y-149851D01*
X-24800Y-150684D01*
X-26041Y-151309D01*
X-29140D01*
G01X-17982Y-155476D02*
X-8683D01*
G01X-4190Y-149643D02*
X-2950Y-150684D01*
X-1555Y-151309D01*
X-315D01*
X925Y-150684D01*
X1855Y-149643D01*
X2320Y-148184D01*
X2010Y-146726D01*
X1235Y-145476D01*
X-160Y-144642D01*
X-2020Y-144226D01*
X-3105Y-143393D01*
X-3570Y-141934D01*
X-3260Y-140476D01*
X-2485Y-139434D01*
X-1400Y-138809D01*
X-315D01*
X770Y-139226D01*
X1700Y-140267D01*
G01X9603Y-138809D02*
X13322D01*
G01X11463D02*
Y-151309D01*
G01X9603D02*
X13322D01*
G01X20915Y-138809D02*
X26805D01*
X20915Y-151309D01*
X26805D01*
G01X39357D02*
X33158D01*
Y-138809D01*
X39357D01*
G01X36878Y-144850D02*
X33158D01*
G01X-98425Y-39370D02*
Y39370D01*
X98425D01*
Y-39370D01*
X-98425D01*
G01X-78266Y-315893D02*
X-77336Y-314643D01*
X-76251Y-314017D01*
X-75011Y-313809D01*
X-73461Y-314226D01*
X-72376Y-315267D01*
X-72066Y-316517D01*
X-72221Y-317768D01*
X-72841Y-318809D01*
X-75941Y-320893D01*
X-77336Y-322351D01*
X-78266Y-324435D01*
X-78576Y-326309D01*
X-72066D01*
G01X-62923Y-326726D02*
X-63233Y-326517D01*
Y-326101D01*
X-62923Y-325893D01*
X-62613Y-326101D01*
Y-326517D01*
X-62923Y-326726D01*
G01X-53935Y-324435D02*
X-53006Y-325476D01*
X-51920Y-326101D01*
X-50526Y-326309D01*
X-49131Y-325893D01*
X-48046Y-325059D01*
X-47271Y-323601D01*
X-47116Y-321934D01*
X-47426Y-320268D01*
X-48201Y-319226D01*
X-49286Y-318393D01*
X-50370Y-318184D01*
X-51456Y-318393D01*
X-52850Y-319226D01*
X-52385Y-313809D01*
X-48201D01*
G01X-40453Y-317976D02*
X-35803Y-326309D01*
G01Y-317976D02*
X-40453Y-326309D01*
G01X-25730D02*
Y-313809D01*
X-27590Y-316309D01*
G01Y-326309D02*
X-23871D01*
G01X-13333Y-326726D02*
X-13643Y-326517D01*
Y-326101D01*
X-13333Y-325893D01*
X-13022Y-326101D01*
Y-326517D01*
X-13333Y-326726D01*
G01X-935Y-313809D02*
X-2175Y-314226D01*
X-3105Y-315267D01*
X-3725Y-316517D01*
X-4190Y-318184D01*
X-4345Y-320059D01*
X-4190Y-321934D01*
X-3725Y-323601D01*
X-3105Y-324851D01*
X-2175Y-325893D01*
X-935Y-326309D01*
X305Y-325893D01*
X1235Y-324851D01*
X1855Y-323601D01*
X2320Y-321934D01*
X2475Y-320059D01*
X2320Y-318184D01*
X1855Y-316517D01*
X1235Y-315267D01*
X305Y-314226D01*
X-935Y-313809D01*
G01X-69122Y-163809D02*
X-70362Y-164226D01*
X-71292Y-165267D01*
X-71912Y-166517D01*
X-72377Y-168184D01*
X-72532Y-170059D01*
X-72377Y-171934D01*
X-71912Y-173601D01*
X-71292Y-174851D01*
X-70362Y-175893D01*
X-69122Y-176309D01*
X-67882Y-175893D01*
X-66952Y-174851D01*
X-66332Y-173601D01*
X-65867Y-171934D01*
X-65712Y-170059D01*
X-65867Y-168184D01*
X-66332Y-166517D01*
X-66952Y-165267D01*
X-67882Y-164226D01*
X-69122Y-163809D01*
G01X-56724Y-176726D02*
X-57035Y-176517D01*
Y-176101D01*
X-56724Y-175893D01*
X-56414Y-176101D01*
Y-176517D01*
X-56724Y-176726D01*
G01X-47737Y-173809D02*
X-46807Y-175268D01*
X-45567Y-176101D01*
X-44172Y-176309D01*
X-42932Y-176101D01*
X-41692Y-175059D01*
X-40917Y-173809D01*
X-40762Y-172559D01*
X-41072Y-171101D01*
X-42157Y-170059D01*
X-43242Y-169642D01*
X-44637D01*
G01X-43242D02*
X-42312Y-169017D01*
X-41537Y-167976D01*
X-41227Y-166726D01*
X-41537Y-165476D01*
X-42312Y-164434D01*
X-43707Y-163809D01*
X-45102Y-164017D01*
X-46496Y-164851D01*
G01X-35339Y-173809D02*
X-34409Y-175268D01*
X-33169Y-176101D01*
X-31774Y-176309D01*
X-30534Y-176101D01*
X-29294Y-175059D01*
X-28519Y-173809D01*
X-28365Y-172559D01*
X-28674Y-171101D01*
X-29759Y-170059D01*
X-30844Y-169642D01*
X-32239D01*
G01X-30844D02*
X-29914Y-169017D01*
X-29139Y-167976D01*
X-28830Y-166726D01*
X-29139Y-165476D01*
X-29914Y-164434D01*
X-31309Y-163809D01*
X-32704Y-164017D01*
X-34099Y-164851D01*
G01X-19531Y-163809D02*
X-20772Y-164226D01*
X-21701Y-165267D01*
X-22321Y-166517D01*
X-22786Y-168184D01*
X-22941Y-170059D01*
X-22786Y-171934D01*
X-22321Y-173601D01*
X-21701Y-174851D01*
X-20772Y-175893D01*
X-19531Y-176309D01*
X-18292Y-175893D01*
X-17362Y-174851D01*
X-16742Y-173601D01*
X-16277Y-171934D01*
X-16122Y-170059D01*
X-16277Y-168184D01*
X-16742Y-166517D01*
X-17362Y-165267D01*
X-18292Y-164226D01*
X-19531Y-163809D01*
G01X-10079Y-165893D02*
X-9149Y-164643D01*
X-8064Y-164017D01*
X-6824Y-163809D01*
X-5274Y-164226D01*
X-4189Y-165267D01*
X-3879Y-166517D01*
X-4034Y-167768D01*
X-4654Y-168809D01*
X-7754Y-170893D01*
X-9149Y-172351D01*
X-10079Y-174435D01*
X-10389Y-176309D01*
X-3879D01*
G01X-50526Y-301309D02*
Y-288809D01*
X-52385Y-291309D01*
G01Y-301309D02*
X-48666D01*
G01X-38128Y-301726D02*
X-38438Y-301517D01*
Y-301101D01*
X-38128Y-300893D01*
X-37818Y-301101D01*
Y-301517D01*
X-38128Y-301726D01*
G01X-28675Y-290893D02*
X-27745Y-289643D01*
X-26660Y-289017D01*
X-25420Y-288809D01*
X-23870Y-289226D01*
X-22785Y-290267D01*
X-22476Y-291517D01*
X-22631Y-292768D01*
X-23251Y-293809D01*
X-26350Y-295893D01*
X-27745Y-297351D01*
X-28675Y-299435D01*
X-28985Y-301309D01*
X-22476D01*
G01X-50526Y-276309D02*
Y-263809D01*
X-52385Y-266309D01*
G01Y-276309D02*
X-48666D01*
G01X-38128Y-276726D02*
X-38438Y-276517D01*
Y-276101D01*
X-38128Y-275893D01*
X-37818Y-276101D01*
Y-276517D01*
X-38128Y-276726D01*
G01X-29140Y-274435D02*
X-28210Y-275476D01*
X-27125Y-276101D01*
X-25730Y-276309D01*
X-24335Y-275893D01*
X-23251Y-275059D01*
X-22476Y-273601D01*
X-22320Y-271934D01*
X-22631Y-270268D01*
X-23406Y-269226D01*
X-24491Y-268393D01*
X-25575Y-268184D01*
X-26660Y-268393D01*
X-28055Y-269226D01*
X-27590Y-263809D01*
X-23406D01*
G01X-50526Y-251309D02*
Y-238809D01*
X-52385Y-241309D01*
G01Y-251309D02*
X-48666D01*
G01X-38128Y-251726D02*
X-38438Y-251517D01*
Y-251101D01*
X-38128Y-250893D01*
X-37818Y-251101D01*
Y-251517D01*
X-38128Y-251726D01*
G01X-25730Y-238809D02*
X-26970Y-239226D01*
X-27900Y-240267D01*
X-28520Y-241517D01*
X-28985Y-243184D01*
X-29140Y-245059D01*
X-28985Y-246934D01*
X-28520Y-248601D01*
X-27900Y-249851D01*
X-26970Y-250893D01*
X-25730Y-251309D01*
X-24491Y-250893D01*
X-23561Y-249851D01*
X-22941Y-248601D01*
X-22476Y-246934D01*
X-22320Y-245059D01*
X-22476Y-243184D01*
X-22941Y-241517D01*
X-23561Y-240267D01*
X-24491Y-239226D01*
X-25730Y-238809D01*
G01X-50526Y-213809D02*
X-51766Y-214226D01*
X-52695Y-215267D01*
X-53315Y-216517D01*
X-53780Y-218184D01*
X-53935Y-220059D01*
X-53780Y-221934D01*
X-53315Y-223601D01*
X-52695Y-224851D01*
X-51766Y-225893D01*
X-50526Y-226309D01*
X-49286Y-225893D01*
X-48356Y-224851D01*
X-47736Y-223601D01*
X-47271Y-221934D01*
X-47116Y-220059D01*
X-47271Y-218184D01*
X-47736Y-216517D01*
X-48356Y-215267D01*
X-49286Y-214226D01*
X-50526Y-213809D01*
G01X-38128Y-226726D02*
X-38438Y-226517D01*
Y-226101D01*
X-38128Y-225893D01*
X-37818Y-226101D01*
Y-226517D01*
X-38128Y-226726D01*
G01X-28365Y-224851D02*
X-27280Y-225893D01*
X-26041Y-226309D01*
X-24800Y-225893D01*
X-23715Y-224643D01*
X-22941Y-222767D01*
X-22631Y-220893D01*
Y-218601D01*
X-22941Y-216726D01*
X-23715Y-215059D01*
X-24646Y-214226D01*
X-25730Y-213809D01*
X-26970Y-214226D01*
X-27900Y-215059D01*
X-28520Y-216309D01*
X-28830Y-217976D01*
X-28520Y-219434D01*
X-27745Y-220893D01*
X-26815Y-221726D01*
X-25730Y-221934D01*
X-24491Y-221518D01*
X-23561Y-220476D01*
X-22631Y-218601D01*
G01X-50526Y-188809D02*
X-51766Y-189226D01*
X-52695Y-190267D01*
X-53315Y-191517D01*
X-53780Y-193184D01*
X-53935Y-195059D01*
X-53780Y-196934D01*
X-53315Y-198601D01*
X-52695Y-199851D01*
X-51766Y-200893D01*
X-50526Y-201309D01*
X-49286Y-200893D01*
X-48356Y-199851D01*
X-47736Y-198601D01*
X-47271Y-196934D01*
X-47116Y-195059D01*
X-47271Y-193184D01*
X-47736Y-191517D01*
X-48356Y-190267D01*
X-49286Y-189226D01*
X-50526Y-188809D01*
G01X-38128Y-201726D02*
X-38438Y-201517D01*
Y-201101D01*
X-38128Y-200893D01*
X-37818Y-201101D01*
Y-201517D01*
X-38128Y-201726D01*
G01X-28365Y-199851D02*
X-27280Y-200893D01*
X-26041Y-201309D01*
X-24800Y-200893D01*
X-23715Y-199643D01*
X-22941Y-197767D01*
X-22631Y-195893D01*
Y-193601D01*
X-22941Y-191726D01*
X-23715Y-190059D01*
X-24646Y-189226D01*
X-25730Y-188809D01*
X-26970Y-189226D01*
X-27900Y-190059D01*
X-28520Y-191309D01*
X-28830Y-192976D01*
X-28520Y-194434D01*
X-27745Y-195893D01*
X-26815Y-196726D01*
X-25730Y-196934D01*
X-24491Y-196518D01*
X-23561Y-195476D01*
X-22631Y-193601D01*
G01X62602Y-132559D02*
Y-332559D01*
G01X66786Y-301309D02*
Y-288809D01*
X73915Y-301309D01*
Y-288809D01*
G01X82748Y-301309D02*
X81508Y-301101D01*
X80423Y-300268D01*
X79493Y-299017D01*
X78873Y-297559D01*
X78563Y-295893D01*
Y-294226D01*
X78873Y-292559D01*
X79493Y-291101D01*
X80423Y-289851D01*
X81508Y-289017D01*
X82748Y-288809D01*
X83988Y-289017D01*
X85073Y-289851D01*
X86003Y-291101D01*
X86623Y-292559D01*
X86933Y-294226D01*
Y-295893D01*
X86623Y-297559D01*
X86003Y-299017D01*
X85073Y-300268D01*
X83988Y-301101D01*
X82748Y-301309D01*
G01X91581D02*
Y-288809D01*
X98710Y-301309D01*
Y-288809D01*
G01X105528Y-297143D02*
X109558D01*
G01X116841Y-301309D02*
Y-288809D01*
X120561D01*
X121801Y-289434D01*
X122731Y-290893D01*
X123041Y-292559D01*
X122731Y-294226D01*
X121956Y-295476D01*
X120561Y-296101D01*
X116841D01*
G01X129239Y-288809D02*
Y-301309D01*
X135438D01*
G01X140861D02*
X144736Y-288809D01*
X148611Y-301309D01*
G01X147216Y-296934D02*
X142256D01*
G01X157134Y-288809D02*
Y-301309D01*
G01X153569Y-288809D02*
X160698D01*
G01X172631Y-301309D02*
X166432D01*
Y-288809D01*
X172631D01*
G01X170152Y-294850D02*
X166432D01*
G01X178519Y-301309D02*
Y-288809D01*
X181619D01*
X182859Y-289434D01*
X183789Y-290267D01*
X184564Y-291517D01*
X185184Y-292976D01*
X185339Y-295059D01*
X185184Y-297143D01*
X184564Y-298601D01*
X183789Y-299851D01*
X182859Y-300684D01*
X181619Y-301309D01*
X178519D01*
G01X92046Y-326309D02*
Y-313809D01*
X95766D01*
X97006Y-314434D01*
X97935Y-315893D01*
X98245Y-317559D01*
X97935Y-319226D01*
X97161Y-320476D01*
X95766Y-321101D01*
X92046D01*
G01X104444Y-313809D02*
Y-326309D01*
X110643D01*
G01X116066D02*
X119941Y-313809D01*
X123816Y-326309D01*
G01X122420Y-321934D02*
X117461D01*
G01X132339Y-313809D02*
Y-326309D01*
G01X128774Y-313809D02*
X135903D01*
G01X147836Y-326309D02*
X141637D01*
Y-313809D01*
X147836D01*
G01X145356Y-319850D02*
X141637D01*
G01X153724Y-326309D02*
Y-313809D01*
X156824D01*
X158064Y-314434D01*
X158994Y-315267D01*
X159769Y-316517D01*
X160389Y-317976D01*
X160544Y-320059D01*
X160389Y-322143D01*
X159769Y-323601D01*
X158994Y-324851D01*
X158064Y-325684D01*
X156824Y-326309D01*
X153724D01*
G01X92046Y-276309D02*
Y-263809D01*
X95766D01*
X97006Y-264434D01*
X97935Y-265893D01*
X98245Y-267559D01*
X97935Y-269226D01*
X97161Y-270476D01*
X95766Y-271101D01*
X92046D01*
G01X104444Y-263809D02*
Y-276309D01*
X110643D01*
G01X116066D02*
X119941Y-263809D01*
X123816Y-276309D01*
G01X122420Y-271934D02*
X117461D01*
G01X132339Y-263809D02*
Y-276309D01*
G01X128774Y-263809D02*
X135903D01*
G01X147836Y-276309D02*
X141637D01*
Y-263809D01*
X147836D01*
G01X145356Y-269850D02*
X141637D01*
G01X153724Y-276309D02*
Y-263809D01*
X156824D01*
X158064Y-264434D01*
X158994Y-265267D01*
X159769Y-266517D01*
X160389Y-267976D01*
X160544Y-270059D01*
X160389Y-272143D01*
X159769Y-273601D01*
X158994Y-274851D01*
X158064Y-275684D01*
X156824Y-276309D01*
X153724D01*
G01X92046Y-251309D02*
Y-238809D01*
X95766D01*
X97006Y-239434D01*
X97935Y-240893D01*
X98245Y-242559D01*
X97935Y-244226D01*
X97161Y-245476D01*
X95766Y-246101D01*
X92046D01*
G01X104444Y-238809D02*
Y-251309D01*
X110643D01*
G01X116066D02*
X119941Y-238809D01*
X123816Y-251309D01*
G01X122420Y-246934D02*
X117461D01*
G01X132339Y-238809D02*
Y-251309D01*
G01X128774Y-238809D02*
X135903D01*
G01X147836Y-251309D02*
X141637D01*
Y-238809D01*
X147836D01*
G01X145356Y-244850D02*
X141637D01*
G01X153724Y-251309D02*
Y-238809D01*
X156824D01*
X158064Y-239434D01*
X158994Y-240267D01*
X159769Y-241517D01*
X160389Y-242976D01*
X160544Y-245059D01*
X160389Y-247143D01*
X159769Y-248601D01*
X158994Y-249851D01*
X158064Y-250684D01*
X156824Y-251309D01*
X153724D01*
G01X92046Y-226309D02*
Y-213809D01*
X95766D01*
X97006Y-214434D01*
X97935Y-215893D01*
X98245Y-217559D01*
X97935Y-219226D01*
X97161Y-220476D01*
X95766Y-221101D01*
X92046D01*
G01X104444Y-213809D02*
Y-226309D01*
X110643D01*
G01X116066D02*
X119941Y-213809D01*
X123816Y-226309D01*
G01X122420Y-221934D02*
X117461D01*
G01X132339Y-213809D02*
Y-226309D01*
G01X128774Y-213809D02*
X135903D01*
G01X147836Y-226309D02*
X141637D01*
Y-213809D01*
X147836D01*
G01X145356Y-219850D02*
X141637D01*
G01X153724Y-226309D02*
Y-213809D01*
X156824D01*
X158064Y-214434D01*
X158994Y-215267D01*
X159769Y-216517D01*
X160389Y-217976D01*
X160544Y-220059D01*
X160389Y-222143D01*
X159769Y-223601D01*
X158994Y-224851D01*
X158064Y-225684D01*
X156824Y-226309D01*
X153724D01*
G01X92046Y-201309D02*
Y-188809D01*
X95766D01*
X97006Y-189434D01*
X97935Y-190893D01*
X98245Y-192559D01*
X97935Y-194226D01*
X97161Y-195476D01*
X95766Y-196101D01*
X92046D01*
G01X104444Y-188809D02*
Y-201309D01*
X110643D01*
G01X116066D02*
X119941Y-188809D01*
X123816Y-201309D01*
G01X122420Y-196934D02*
X117461D01*
G01X132339Y-188809D02*
Y-201309D01*
G01X128774Y-188809D02*
X135903D01*
G01X147836Y-201309D02*
X141637D01*
Y-188809D01*
X147836D01*
G01X145356Y-194850D02*
X141637D01*
G01X153724Y-201309D02*
Y-188809D01*
X156824D01*
X158064Y-189434D01*
X158994Y-190267D01*
X159769Y-191517D01*
X160389Y-192976D01*
X160544Y-195059D01*
X160389Y-197143D01*
X159769Y-198601D01*
X158994Y-199851D01*
X158064Y-200684D01*
X156824Y-201309D01*
X153724D01*
G01X92046Y-176309D02*
Y-163809D01*
X95766D01*
X97006Y-164434D01*
X97935Y-165893D01*
X98245Y-167559D01*
X97935Y-169226D01*
X97161Y-170476D01*
X95766Y-171101D01*
X92046D01*
G01X104444Y-163809D02*
Y-176309D01*
X110643D01*
G01X116066D02*
X119941Y-163809D01*
X123816Y-176309D01*
G01X122420Y-171934D02*
X117461D01*
G01X132339Y-163809D02*
Y-176309D01*
G01X128774Y-163809D02*
X135903D01*
G01X147836Y-176309D02*
X141637D01*
Y-163809D01*
X147836D01*
G01X145356Y-169850D02*
X141637D01*
G01X153724Y-176309D02*
Y-163809D01*
X156824D01*
X158064Y-164434D01*
X158994Y-165267D01*
X159769Y-166517D01*
X160389Y-167976D01*
X160544Y-170059D01*
X160389Y-172143D01*
X159769Y-173601D01*
X158994Y-174851D01*
X158064Y-175684D01*
X156824Y-176309D01*
X153724D01*
G01X92046Y-151309D02*
Y-138809D01*
X95766D01*
X97006Y-139434D01*
X97935Y-140893D01*
X98245Y-142559D01*
X97935Y-144226D01*
X97161Y-145476D01*
X95766Y-146101D01*
X92046D01*
G01X104444Y-138809D02*
Y-151309D01*
X110643D01*
G01X116066D02*
X119941Y-138809D01*
X123816Y-151309D01*
G01X122420Y-146934D02*
X117461D01*
G01X132339Y-138809D02*
Y-151309D01*
G01X128774Y-138809D02*
X135903D01*
G01X147836Y-151309D02*
X141637D01*
Y-138809D01*
X147836D01*
G01X145356Y-144850D02*
X141637D01*
G01X153724Y-151309D02*
Y-138809D01*
X156824D01*
X158064Y-139434D01*
X158994Y-140267D01*
X159769Y-141517D01*
X160389Y-142976D01*
X160544Y-145059D01*
X160389Y-147143D01*
X159769Y-148601D01*
X158994Y-149851D01*
X158064Y-150684D01*
X156824Y-151309D01*
X153724D01*
G01X189677Y-132559D02*
Y-332559D01*
G01X219585Y-174851D02*
X220670Y-175893D01*
X221910Y-176309D01*
X223150Y-175893D01*
X224235Y-174643D01*
X225010Y-172767D01*
X225320Y-170893D01*
Y-168601D01*
X225010Y-166726D01*
X224235Y-165059D01*
X223305Y-164226D01*
X222220Y-163809D01*
X220980Y-164226D01*
X220051Y-165059D01*
X219431Y-166309D01*
X219121Y-167976D01*
X219431Y-169434D01*
X220206Y-170893D01*
X221136Y-171726D01*
X222220Y-171934D01*
X223460Y-171518D01*
X224390Y-170476D01*
X225320Y-168601D01*
G01X234618Y-176309D02*
Y-163809D01*
X232758Y-166309D01*
G01Y-176309D02*
X236478D01*
G01X216022Y-151309D02*
X214781Y-151101D01*
X213697Y-150268D01*
X212767Y-149017D01*
X212147Y-147559D01*
X211837Y-145893D01*
Y-144226D01*
X212147Y-142559D01*
X212767Y-141101D01*
X213697Y-139851D01*
X214781Y-139017D01*
X216022Y-138809D01*
X217261Y-139017D01*
X218346Y-139851D01*
X219276Y-141101D01*
X219896Y-142559D01*
X220206Y-144226D01*
Y-145893D01*
X219896Y-147559D01*
X219276Y-149017D01*
X218346Y-150268D01*
X217261Y-151101D01*
X216022Y-151309D01*
G01X217261Y-147976D02*
X219121Y-151309D01*
G01X228419Y-138809D02*
Y-151309D01*
G01X224855Y-138809D02*
X231984D01*
G01X240817Y-151309D02*
Y-145684D01*
X237717Y-138809D01*
G01X243917D02*
X240817Y-145684D01*
G01X225474Y-315893D02*
X226404Y-314643D01*
X227489Y-314017D01*
X228730Y-313809D01*
X230279Y-314226D01*
X231364Y-315267D01*
X231674Y-316517D01*
X231519Y-317768D01*
X230899Y-318809D01*
X227799Y-320893D01*
X226404Y-322351D01*
X225474Y-324435D01*
X225165Y-326309D01*
X231674D01*
G01X225474Y-290893D02*
X226404Y-289643D01*
X227489Y-289017D01*
X228730Y-288809D01*
X230279Y-289226D01*
X231364Y-290267D01*
X231674Y-291517D01*
X231519Y-292768D01*
X230899Y-293809D01*
X227799Y-295893D01*
X226404Y-297351D01*
X225474Y-299435D01*
X225165Y-301309D01*
X231674D01*
G01X230279Y-276309D02*
Y-263809D01*
X224544Y-272767D01*
X232294D01*
G01X228419Y-251309D02*
Y-238809D01*
X226559Y-241309D01*
G01Y-251309D02*
X230279D01*
G01X228419Y-226309D02*
Y-213809D01*
X226559Y-216309D01*
G01Y-226309D02*
X230279D01*
G01X225009Y-198809D02*
X225939Y-200268D01*
X227179Y-201101D01*
X228574Y-201309D01*
X229814Y-201101D01*
X231054Y-200059D01*
X231829Y-198809D01*
X231984Y-197559D01*
X231674Y-196101D01*
X230589Y-195059D01*
X229504Y-194642D01*
X228109D01*
G01X229504D02*
X230434Y-194017D01*
X231209Y-192976D01*
X231519Y-191726D01*
X231209Y-190476D01*
X230434Y-189434D01*
X229039Y-188809D01*
X227644Y-189017D01*
X226250Y-189851D01*
M02*
