G04 ================== begin FILE IDENTIFICATION RECORD ==================*
G04 Layout Name:  wireless_cmsis_dap_sent_V2.brd*
G04 Film Name:    SILKSCREEN_TOP*
G04 File Format:  Gerber RS274X*
G04 File Origin:  Cadence Allegro -unreleased*
G04 Origin Date:  Tue May 19 00:31:34 2020*
G04 *
G04 Layer:  REF DES/SILKSCREEN_TOP*
G04 Layer:  PACKAGE GEOMETRY/SILKSCREEN_TOP*
G04 Layer:  BOARD GEOMETRY/SILKSCREEN_TOP*
G04 Layer:  BOARD GEOMETRY/DESIGN_OUTLINE*
G04 *
G04 Offset:    (0.0000 0.0000)*
G04 Mirror:    No*
G04 Mode:      Positive*
G04 Rotation:  0*
G04 FullContactRelief:  No*
G04 UndefLineWidth:     0.1500*
G04 ================== end FILE IDENTIFICATION RECORD ====================*
%FSLAX25Y25*MOIN*%
%IR0*IPPOS*OFA0.00000B0.00000*MIA0B0*SFA1.00000B1.00000*%
%ADD10C,.005*%
%ADD11C,.01*%
%ADD12C,.006*%
%ADD13C,.005906*%
G75*
%LPD*%
G75*
G54D10*
G01X-53996Y6906D02*
X-51596D01*
G01X-51396Y-2994D02*
X-52796D01*
G01X-53819Y8740D02*
G02Y4016I-6890J-2362D01*
G01X-64055Y8740D02*
G03Y4016I6890J-2362D01*
G01X-57362Y8740D02*
X-53819D01*
G01X-57362Y4016D02*
X-53819D01*
G01X-60512D02*
X-64055D01*
G01X-60512Y8740D02*
X-64055D01*
G01X-53819Y1260D02*
G02Y-3465I-6890J-2362D01*
G01X-64055Y1260D02*
G03Y-3465I6890J-2362D01*
G01X-57362Y1260D02*
X-53819D01*
G01X-57362Y-3465D02*
X-53819D01*
G01X-60512D02*
X-64055D01*
G01X-60512Y1260D02*
X-64055D01*
G01X-52696Y16706D02*
X-51396D01*
G01X-36396Y-13994D02*
Y-16294D01*
G01X-26596Y-15494D02*
Y-14094D01*
G01X-21496Y-7094D02*
X-44496D01*
Y18906D01*
X-18496D01*
Y-4094D01*
X-21496Y-7094D01*
G01X-34496Y26006D02*
Y28306D01*
G01X-24596Y25906D02*
Y27406D01*
G01X6200Y-26928D02*
X-6200D01*
Y-32128D01*
X6200D01*
Y-26928D01*
G01X-7000Y-29528D02*
X-9000D01*
G01X-8000Y-30528D02*
Y-28528D01*
G01X-13096Y-7794D02*
X-15996D01*
X-14296Y-6094D01*
X-12596Y-7794D01*
X-13096D01*
G01X-11496Y12906D02*
X-9296D01*
G01X-11496Y2906D02*
X-10196D01*
G01X9548Y-32128D02*
X21948D01*
Y-26928D01*
X9548D01*
Y-32128D01*
G01X27165Y-36614D02*
G02Y-30315I12402J3150D01*
G01X39764Y-36614D02*
G03Y-30315I-12402J3150D01*
G01Y-36614D02*
X27165D01*
G01X42520Y-29528D02*
G03Y-37402I9350J-3937D01*
G01D02*
X59843D01*
G01X27165Y-30315D02*
X39764D01*
G01X42913Y-22441D02*
G03Y-28740I12402J-3150D01*
G01X55512D02*
X42913D01*
G01Y-22441D02*
X55512D01*
G01X22748Y-29528D02*
X24748D01*
G01X23748Y-28528D02*
Y-30528D01*
G01X42520Y-29528D02*
X59843D01*
G01D02*
G02Y-37402I-9055J-3937D01*
G01X55512Y-22441D02*
G02Y-28740I-12402J-3150D01*
G01X73681Y-10683D02*
G02X70341Y-7343I3202J6542D01*
G01X76187Y-8178D02*
X73681Y-10683D01*
G01X66955Y-11122D02*
G02X70295Y-7781I6542J-3202D01*
G01X74193Y-18360D02*
G03X77533Y-15020I-3202J6542D01*
G01X69460Y-13628D02*
X66955Y-11122D01*
G01X72801Y-10287D02*
X70295Y-7781D01*
G01X75028Y-12514D02*
X77533Y-15020D01*
G01X71687Y-15855D02*
X74193Y-18360D01*
G01X80919Y-3445D02*
G03X77579Y-104I-6542J-3202D01*
G01X72846Y-4837D02*
X70341Y-7343D01*
G01X75073Y-2610D02*
X77579Y-104D01*
G01X78414Y-5950D02*
X80919Y-3445D01*
G01X78293Y-98D02*
G02X81634Y3242I6542J-3202D01*
G01X85531Y-7337D02*
G03X88872Y-3996I-3202J6542D01*
G01X80799Y-2604D02*
X78293Y-98D01*
G01X84139Y737D02*
X81634Y3242D01*
G01X86367Y-1491D02*
X88872Y-3996D01*
G01X83026Y-4831D02*
X85531Y-7337D01*
G54D11*
G01X-85039Y-18504D02*
Y18504D01*
G01X-48307Y-18622D02*
X-8307D01*
Y-28622D01*
X-48307D01*
Y-18622D01*
G54D12*
G01X-1600Y-26328D02*
X1100Y-24528D01*
X-600Y-24828D01*
G01X12048Y-34328D02*
X12948Y-32928D01*
G01X14748Y-32628D02*
X12048Y-34428D01*
X13748Y-34128D01*
G01X14648Y-34428D02*
X15548Y-33028D01*
G01X17348Y-32728D02*
X14648Y-34528D01*
X16348Y-34228D01*
G01X3700Y-24728D02*
X2800Y-26128D01*
G01X1000Y-26428D02*
X3700Y-24628D01*
X2000Y-24928D01*
G01X1100Y-24628D02*
X200Y-26028D01*
G54D13*
G01X-98425Y-39370D02*
Y39370D01*
X98425D01*
Y-39370D01*
X-98425D01*
G01X-74449Y27835D02*
X-50827D01*
Y37835D01*
X-74449D01*
Y27835D01*
G01X-47156Y-6394D02*
X-47276Y-6161D01*
X-47436Y-6028D01*
X-47616Y-5994D01*
X-47776Y-6028D01*
X-47936Y-6194D01*
X-48036Y-6394D01*
X-48056Y-6594D01*
X-48016Y-6828D01*
X-47876Y-6994D01*
X-47736Y-7061D01*
X-47556D01*
G01X-47736D02*
X-47856Y-7161D01*
X-47956Y-7328D01*
X-47996Y-7528D01*
X-47956Y-7728D01*
X-47856Y-7894D01*
X-47676Y-7994D01*
X-47496Y-7961D01*
X-47316Y-7828D01*
G01X-48516Y-6828D02*
X-48656Y-7061D01*
X-48776Y-7194D01*
X-48936Y-7261D01*
X-49076Y-7194D01*
X-49176Y-7061D01*
X-49256Y-6861D01*
X-49276Y-6628D01*
X-49256Y-6428D01*
X-49176Y-6228D01*
X-49056Y-6061D01*
X-48916Y-5994D01*
X-48756Y-6061D01*
X-48616Y-6261D01*
X-48536Y-6561D01*
X-48516Y-6894D01*
X-48556Y-7328D01*
X-48616Y-7561D01*
X-48716Y-7794D01*
X-48856Y-7961D01*
X-48996Y-7994D01*
X-49136Y-7928D01*
X-49236Y-7761D01*
G01X-51113Y4961D02*
Y8059D01*
X-50155D01*
X-49848Y7904D01*
X-49657Y7698D01*
X-49580Y7284D01*
X-49657Y6871D01*
X-49887Y6613D01*
X-50155Y6458D01*
X-51113D01*
G01X-50155D02*
X-49580Y4961D01*
G01X-47976Y7543D02*
X-47746Y7852D01*
X-47478Y8007D01*
X-47171Y8059D01*
X-46788Y7956D01*
X-46520Y7698D01*
X-46443Y7388D01*
X-46481Y7078D01*
X-46635Y6820D01*
X-47401Y6303D01*
X-47746Y5942D01*
X-47976Y5425D01*
X-48053Y4961D01*
X-46443D01*
G01X-51507Y-2795D02*
Y303D01*
X-50548D01*
X-50242Y148D01*
X-50050Y-58D01*
X-49974Y-472D01*
X-50050Y-885D01*
X-50280Y-1143D01*
X-50548Y-1298D01*
X-51507D01*
G01X-50548D02*
X-49974Y-2795D01*
G01X-48485Y-2176D02*
X-48255Y-2537D01*
X-47948Y-2744D01*
X-47604Y-2795D01*
X-47297Y-2744D01*
X-46990Y-2485D01*
X-46799Y-2176D01*
X-46760Y-1866D01*
X-46837Y-1504D01*
X-47105Y-1246D01*
X-47374Y-1143D01*
X-47719D01*
G01X-47374D02*
X-47144Y-988D01*
X-46952Y-730D01*
X-46875Y-420D01*
X-46952Y-110D01*
X-47144Y148D01*
X-47489Y303D01*
X-47833Y252D01*
X-48178Y45D01*
G01X-47416Y17939D02*
X-47536Y17739D01*
X-47676Y17639D01*
X-47836Y17606D01*
X-48036Y17672D01*
X-48176Y17839D01*
X-48216Y18039D01*
X-48196Y18239D01*
X-48116Y18406D01*
X-47716Y18739D01*
X-47536Y18972D01*
X-47416Y19306D01*
X-47376Y19606D01*
X-48216D01*
G01X-48656Y19306D02*
X-48776Y19472D01*
X-48916Y19572D01*
X-49096Y19606D01*
X-49276Y19539D01*
X-49416Y19406D01*
X-49516Y19172D01*
X-49536Y18906D01*
X-49496Y18639D01*
X-49396Y18472D01*
X-49256Y18339D01*
X-49116Y18306D01*
X-48976Y18339D01*
X-48796Y18472D01*
X-48856Y17606D01*
X-49396D01*
G01X-43256Y-10494D02*
X-43376Y-10261D01*
X-43536Y-10128D01*
X-43716Y-10094D01*
X-43876Y-10128D01*
X-44036Y-10294D01*
X-44136Y-10494D01*
X-44156Y-10694D01*
X-44116Y-10928D01*
X-43976Y-11094D01*
X-43836Y-11161D01*
X-43656D01*
G01X-43836D02*
X-43956Y-11261D01*
X-44056Y-11428D01*
X-44096Y-11628D01*
X-44056Y-11828D01*
X-43956Y-11994D01*
X-43776Y-12094D01*
X-43596Y-12061D01*
X-43416Y-11928D01*
G01X-44956Y-10094D02*
X-44996Y-10528D01*
X-45056Y-10894D01*
X-45136Y-11228D01*
X-45236Y-11594D01*
X-45396Y-12094D01*
X-44596D01*
G01X-43716Y21439D02*
X-43836Y21239D01*
X-43976Y21139D01*
X-44136Y21106D01*
X-44336Y21172D01*
X-44476Y21339D01*
X-44516Y21539D01*
X-44496Y21739D01*
X-44416Y21906D01*
X-44016Y22239D01*
X-43836Y22472D01*
X-43716Y22806D01*
X-43676Y23106D01*
X-44516D01*
G01X-45636D02*
Y21106D01*
X-44896Y22539D01*
X-45896D01*
G01X-18236Y-9894D02*
Y-11894D01*
X-17496Y-10461D01*
X-18496D01*
G01X-19296Y-9894D02*
X-19436Y-9928D01*
X-19596Y-10028D01*
X-19696Y-10194D01*
X-19736Y-10428D01*
X-19696Y-10661D01*
X-19576Y-10861D01*
X-19396Y-10961D01*
X-19196D01*
X-19076Y-11028D01*
X-18976Y-11194D01*
X-18936Y-11428D01*
X-18996Y-11661D01*
X-19136Y-11828D01*
X-19296Y-11894D01*
X-19456Y-11828D01*
X-19596Y-11661D01*
X-19656Y-11428D01*
X-19616Y-11194D01*
X-19516Y-11028D01*
X-19396Y-10961D01*
X-19196D01*
X-19016Y-10861D01*
X-18896Y-10661D01*
X-18856Y-10428D01*
X-18896Y-10194D01*
X-18996Y-10028D01*
X-19156Y-9928D01*
X-19296Y-9894D01*
G01X-14496Y-8494D02*
Y-10494D01*
X-14256Y-10094D01*
G01Y-8494D02*
X-14736D01*
G01X-1307Y-22638D02*
Y-19539D01*
X-541D01*
X-235Y-19694D01*
X-5Y-19901D01*
X187Y-20211D01*
X340Y-20572D01*
X378Y-21089D01*
X340Y-21605D01*
X187Y-21967D01*
X-5Y-22276D01*
X-235Y-22483D01*
X-541Y-22638D01*
X-1307D01*
G01X1906Y-20056D02*
X2136Y-19746D01*
X2404Y-19591D01*
X2711Y-19539D01*
X3094Y-19643D01*
X3362Y-19901D01*
X3439Y-20211D01*
X3400Y-20520D01*
X3247Y-20779D01*
X2481Y-21295D01*
X2136Y-21657D01*
X1906Y-22173D01*
X1829Y-22638D01*
X3439D01*
G01X4921Y-7874D02*
Y15748D01*
X-8858D01*
Y-7874D01*
X4921D01*
G01X-17696Y23006D02*
Y21006D01*
X-17456Y21406D01*
G01Y23006D02*
X-17936D01*
G01X-18556Y22606D02*
X-18676Y22839D01*
X-18836Y22972D01*
X-19016Y23006D01*
X-19176Y22972D01*
X-19336Y22806D01*
X-19436Y22606D01*
X-19456Y22406D01*
X-19416Y22172D01*
X-19276Y22006D01*
X-19136Y21939D01*
X-18956D01*
G01X-19136D02*
X-19256Y21839D01*
X-19356Y21672D01*
X-19396Y21472D01*
X-19356Y21272D01*
X-19256Y21106D01*
X-19076Y21006D01*
X-18896Y21039D01*
X-18716Y21172D01*
G01X-13696Y19706D02*
Y17706D01*
X-13456Y18106D01*
G01Y19706D02*
X-13936D01*
G01X-14616Y18039D02*
X-14736Y17839D01*
X-14876Y17739D01*
X-15036Y17706D01*
X-15236Y17772D01*
X-15376Y17939D01*
X-15416Y18139D01*
X-15396Y18339D01*
X-15316Y18506D01*
X-14916Y18839D01*
X-14736Y19072D01*
X-14616Y19406D01*
X-14576Y19706D01*
X-15416D01*
G01X55118Y29528D02*
X15748D01*
Y-21654D01*
X55118D01*
Y29528D01*
G01X16465Y-23189D02*
Y-26287D01*
X15699D01*
X15392Y-26132D01*
X15162Y-25926D01*
X14970Y-25616D01*
X14817Y-25255D01*
X14779Y-24738D01*
X14817Y-24222D01*
X14970Y-23860D01*
X15162Y-23550D01*
X15392Y-23344D01*
X15699Y-23189D01*
X16465D01*
G01X13367Y-23809D02*
X13137Y-23447D01*
X12830Y-23241D01*
X12485Y-23189D01*
X12179Y-23241D01*
X11872Y-23499D01*
X11681Y-23809D01*
X11642Y-24119D01*
X11719Y-24480D01*
X11987Y-24738D01*
X12256Y-24841D01*
X12600D01*
G01X12256D02*
X12026Y-24996D01*
X11834Y-25255D01*
X11757Y-25565D01*
X11834Y-25874D01*
X12026Y-26132D01*
X12370Y-26287D01*
X12715Y-26236D01*
X13060Y-26029D01*
G01X33357Y-23189D02*
Y-26287D01*
X32399D01*
X32093Y-26132D01*
X31901Y-25926D01*
X31824Y-25513D01*
X31901Y-25100D01*
X32131Y-24841D01*
X32399Y-24687D01*
X33357D01*
G01X32399D02*
X31824Y-23189D01*
G01X29492D02*
X29224Y-23241D01*
X28917Y-23396D01*
X28726Y-23654D01*
X28649Y-24015D01*
X28726Y-24377D01*
X28956Y-24687D01*
X29300Y-24841D01*
X29684D01*
X29914Y-24945D01*
X30105Y-25203D01*
X30182Y-25565D01*
X30067Y-25926D01*
X29799Y-26184D01*
X29492Y-26287D01*
X29185Y-26184D01*
X28917Y-25926D01*
X28802Y-25565D01*
X28879Y-25203D01*
X29070Y-24945D01*
X29300Y-24841D01*
X29684D01*
X30029Y-24687D01*
X30259Y-24377D01*
X30335Y-24015D01*
X30259Y-23654D01*
X30067Y-23396D01*
X29760Y-23241D01*
X29492Y-23189D01*
G01X37268Y-23695D02*
X37038Y-23540D01*
X36770Y-23437D01*
X36463D01*
X36119Y-23592D01*
X35850Y-23850D01*
X35659Y-24160D01*
X35506Y-24676D01*
X35467Y-25141D01*
X35544Y-25606D01*
X35659Y-25916D01*
X35889Y-26226D01*
X36157Y-26432D01*
X36425Y-26535D01*
X36693D01*
X36962Y-26432D01*
X37192Y-26277D01*
X37383Y-26071D01*
G01X39524Y-26535D02*
X39792Y-26484D01*
X40098Y-26329D01*
X40290Y-26071D01*
X40367Y-25709D01*
X40290Y-25348D01*
X40060Y-25038D01*
X39715Y-24883D01*
X39332D01*
X39102Y-24780D01*
X38911Y-24522D01*
X38834Y-24160D01*
X38949Y-23798D01*
X39217Y-23540D01*
X39524Y-23437D01*
X39830Y-23540D01*
X40098Y-23798D01*
X40213Y-24160D01*
X40137Y-24522D01*
X39945Y-24780D01*
X39715Y-24883D01*
X39332D01*
X38987Y-25038D01*
X38757Y-25348D01*
X38681Y-25709D01*
X38757Y-26071D01*
X38949Y-26329D01*
X39256Y-26484D01*
X39524Y-26535D01*
G01X65402Y-16544D02*
X65455Y-16817D01*
X65571Y-17079D01*
X65788Y-17296D01*
X66141Y-17430D01*
X66514Y-17437D01*
X66868Y-17354D01*
X67342Y-17097D01*
X67698Y-16795D01*
X67972Y-16413D01*
X68110Y-16112D01*
X68166Y-15730D01*
X68123Y-15394D01*
X68006Y-15132D01*
X67817Y-14943D01*
X67554Y-14826D01*
X67281Y-14772D01*
X67000Y-14783D01*
G01X65815Y-12941D02*
X63624Y-15132D01*
X64387Y-15019D01*
G01X66140Y-13266D02*
X65490Y-12616D01*
G01X63624Y-10750D02*
X61433Y-12941D01*
X62196Y-12828D01*
G01X63949Y-11075D02*
X63299Y-10425D01*
G01X59315Y-24640D02*
X59085Y-24485D01*
X58817Y-24382D01*
X58511D01*
X58166Y-24537D01*
X57898Y-24795D01*
X57706Y-25105D01*
X57553Y-25621D01*
X57515Y-26086D01*
X57591Y-26551D01*
X57706Y-26861D01*
X57936Y-27170D01*
X58204Y-27377D01*
X58472Y-27480D01*
X58741D01*
X59009Y-27377D01*
X59239Y-27222D01*
X59430Y-27016D01*
G01X60919Y-27119D02*
X61188Y-27377D01*
X61494Y-27480D01*
X61801Y-27377D01*
X62069Y-27067D01*
X62261Y-26602D01*
X62337Y-26138D01*
Y-25570D01*
X62261Y-25105D01*
X62069Y-24692D01*
X61839Y-24485D01*
X61571Y-24382D01*
X61264Y-24485D01*
X61034Y-24692D01*
X60881Y-25002D01*
X60804Y-25415D01*
X60881Y-25776D01*
X61073Y-26138D01*
X61303Y-26344D01*
X61571Y-26396D01*
X61878Y-26293D01*
X62107Y-26034D01*
X62337Y-25570D01*
G01X80241Y-7043D02*
X82432Y-9233D01*
X81754Y-9911D01*
X81428Y-10018D01*
X81146Y-10007D01*
X80800Y-9770D01*
X80562Y-9423D01*
X80542Y-9078D01*
X80622Y-8779D01*
X81300Y-8102D01*
G01X80622Y-8779D02*
X79157Y-8126D01*
G01X78224Y-9570D02*
X77852Y-9578D01*
X77562Y-9721D01*
X77419Y-10011D01*
X77448Y-10420D01*
X77641Y-10884D01*
X77915Y-11267D01*
X78317Y-11669D01*
X78700Y-11943D01*
X79128Y-12100D01*
X79436Y-12083D01*
X79699Y-11967D01*
X79843Y-11677D01*
X79859Y-11368D01*
X79748Y-11041D01*
X79511Y-10694D01*
X79201Y-10493D01*
X78809Y-10372D01*
X78501Y-10389D01*
X78275Y-10542D01*
X78131Y-10832D01*
X78151Y-11177D01*
X78317Y-11669D01*
G01X92409Y-12725D02*
X92463Y-12998D01*
X92579Y-13260D01*
X92796Y-13477D01*
X93149Y-13611D01*
X93522Y-13619D01*
X93876Y-13535D01*
X94350Y-13278D01*
X94706Y-12976D01*
X94980Y-12594D01*
X95118Y-12293D01*
X95174Y-11911D01*
X95131Y-11576D01*
X95014Y-11313D01*
X94824Y-11124D01*
X94561Y-11007D01*
X94289Y-10954D01*
X94008Y-10964D01*
G01X92823Y-9122D02*
X90632Y-11313D01*
X91395Y-11200D01*
G01X93148Y-9447D02*
X92498Y-8797D01*
G01X89321Y-9272D02*
X88939Y-9328D01*
X88640Y-9248D01*
X88387Y-9068D01*
X88189Y-8724D01*
X88182Y-8352D01*
X88347Y-8078D01*
X88593Y-7886D01*
X88884Y-7812D01*
X89791Y-7989D01*
X90291Y-7977D01*
X90818Y-7775D01*
X91201Y-7500D01*
X90063Y-6362D01*
M02*
