G04 ================== begin FILE IDENTIFICATION RECORD ==================*
G04 Layout Name:  wireless_cmsis_dap_sent_V2.brd*
G04 Film Name:    SOLDERMASK_TOP*
G04 File Format:  Gerber RS274X*
G04 File Origin:  Cadence Allegro -unreleased*
G04 Origin Date:  Tue May 19 00:31:34 2020*
G04 *
G04 Layer:  PIN/SOLDERMASK_TOP*
G04 Layer:  PACKAGE GEOMETRY/SOLDERMASK_TOP*
G04 Layer:  BOARD GEOMETRY/SOLDERMASK_TOP*
G04 Layer:  BOARD GEOMETRY/DESIGN_OUTLINE*
G04 *
G04 Offset:    (0.0000 0.0000)*
G04 Mirror:    No*
G04 Mode:      Positive*
G04 Rotation:  0*
G04 FullContactRelief:  No*
G04 UndefLineWidth:     0.1500*
G04 ================== end FILE IDENTIFICATION RECORD ====================*
%FSLAX25Y25*MOIN*%
%IR0*IPPOS*OFA0.00000B0.00000*MIA0B0*SFA1.00000B1.00000*%
%ADD17R,.01378X.06378*%
%ADD15R,.06378X.01378*%
%ADD13R,.074803X.027559*%
%AMMACRO24*
21,1,.035433,.035433,0.0,0.0,45.*%
%ADD24MACRO24*%
%ADD16R,.035433X.035433*%
%ADD12R,.12X.029*%
%ADD22R,.03937X.051181*%
%ADD20R,.047244X.043307*%
%ADD11O,.137795X.07874*%
%ADD21R,.062992X.043307*%
%ADD23R,.055118X.062992*%
%ADD10C,.051181*%
%ADD19R,.06X.08*%
%ADD18C,.066929*%
%ADD26C,.070866*%
%ADD14R,.066929X.066929*%
%ADD25R,.074803X.074803*%
%ADD27C,.059055*%
%ADD28C,.005906*%
G75*
%LPD*%
G75*
G54D10*
X-88976Y-8858D03*
Y8858D03*
G54D11*
Y-22835D03*
Y22835D03*
G54D20*
X-3346Y-29528D03*
X3346D03*
X12402D03*
X19094D03*
G54D21*
X9843Y-10827D03*
Y-4921D03*
Y984D03*
X61024Y-10827D03*
Y-16732D03*
Y984D03*
Y-4921D03*
G54D12*
X-72835Y-13780D03*
Y13780D03*
Y3937D03*
Y-3937D03*
G54D22*
X29134Y-33465D03*
X37795D03*
X44882Y-25591D03*
X53543D03*
G54D13*
X-77008Y30335D03*
Y35335D03*
X-48268D03*
Y30335D03*
G54D14*
X-43307Y-23622D03*
G54D23*
X45276Y-33465D03*
X57087D03*
G54D24*
X73403Y-7621D03*
X70017Y-10844D03*
X74471Y-15298D03*
X77857Y-3167D03*
X81356Y180D03*
X85810Y-4274D03*
G54D15*
X-48228Y-4922D03*
Y-2952D03*
Y-985D03*
Y985D03*
Y2952D03*
Y4922D03*
Y6889D03*
Y8859D03*
Y10826D03*
Y12796D03*
Y14763D03*
Y16733D03*
X-14764Y12796D03*
Y10826D03*
Y8859D03*
Y6889D03*
Y4922D03*
Y2952D03*
Y985D03*
Y-985D03*
Y-2952D03*
Y-4922D03*
Y16733D03*
Y14763D03*
G54D25*
X74764Y8780D03*
Y28465D03*
X94449Y8780D03*
Y28465D03*
G54D16*
X-55787Y6378D03*
X-62087D03*
X-55787Y-1102D03*
X-62087D03*
G54D26*
X84606Y18622D03*
G54D17*
X-24606Y-10826D03*
X-26575D03*
X-28543D03*
X-30512D03*
X-32480D03*
X-34449D03*
X-36417D03*
X-38386D03*
X-40354D03*
X-42323D03*
Y22637D03*
X-40354D03*
X-38386D03*
X-36417D03*
X-34449D03*
X-32480D03*
X-30512D03*
X-28543D03*
X-26575D03*
X-24606D03*
X-20669Y-10826D03*
X-22638D03*
Y22637D03*
X-20669D03*
G54D27*
G01X-90000Y36000D02*
X-96000D01*
Y-36000D01*
X-12000D01*
G01X96000Y36000D02*
X-36000D01*
G01X66000Y-36000D02*
X96000D01*
Y0D01*
G54D18*
X-23307Y-23622D03*
X-33307D03*
X-13307D03*
G54D28*
G01X-98425Y-39370D02*
Y39370D01*
X98425D01*
Y-39370D01*
X-98425D01*
G01X70700Y-29260D02*
X70930Y-29518D01*
X71198Y-29673D01*
X71543Y-29724D01*
X71888Y-29621D01*
X72156Y-29415D01*
X72348Y-29053D01*
X72386Y-28640D01*
X72310Y-28227D01*
X72118Y-27969D01*
X71850Y-27762D01*
X71581Y-27711D01*
X71313Y-27762D01*
X70969Y-27969D01*
X71083Y-26626D01*
X72118D01*
G01X74144Y-28692D02*
X75140D01*
G01X77740Y-29724D02*
Y-26626D01*
X77280Y-27246D01*
G01Y-29724D02*
X78200D01*
G01X80839D02*
X81107Y-29673D01*
X81413Y-29518D01*
X81605Y-29260D01*
X81681Y-28898D01*
X81605Y-28537D01*
X81375Y-28227D01*
X81030Y-28072D01*
X80647D01*
X80417Y-27969D01*
X80226Y-27711D01*
X80149Y-27349D01*
X80264Y-26987D01*
X80532Y-26729D01*
X80839Y-26626D01*
X81145Y-26729D01*
X81413Y-26987D01*
X81528Y-27349D01*
X81452Y-27711D01*
X81260Y-27969D01*
X81030Y-28072D01*
X80647D01*
X80302Y-28227D01*
X80072Y-28537D01*
X79996Y-28898D01*
X80072Y-29260D01*
X80264Y-29518D01*
X80570Y-29673D01*
X80839Y-29724D01*
G01X71417Y-21733D02*
X71570Y-21578D01*
X71685Y-21320D01*
X71762Y-20959D01*
X71685Y-20649D01*
X71532Y-20443D01*
X71263Y-20287D01*
X70229D01*
Y-23386D01*
X71493D01*
X71762Y-23179D01*
X71915Y-22869D01*
X71992Y-22508D01*
X71915Y-22146D01*
X71685Y-21837D01*
X71417Y-21733D01*
X70229D01*
G01X73404Y-24315D02*
X73634Y-24419D01*
X73941Y-24315D01*
X74132Y-24109D01*
X74285Y-23850D01*
X74515Y-23024D01*
X75013Y-21320D01*
G01X73787D02*
X74515Y-23024D01*
G01X79601Y-22973D02*
X79907Y-23231D01*
X80252Y-23386D01*
X80559D01*
X80865Y-23231D01*
X81095Y-22973D01*
X81210Y-22611D01*
X81133Y-22250D01*
X80942Y-21940D01*
X80597Y-21733D01*
X80137Y-21630D01*
X79869Y-21424D01*
X79754Y-21062D01*
X79831Y-20700D01*
X80022Y-20443D01*
X80291Y-20287D01*
X80559D01*
X80827Y-20391D01*
X81057Y-20649D01*
G01X82852Y-21320D02*
Y-22766D01*
X83006Y-23128D01*
X83236Y-23334D01*
X83504Y-23386D01*
X83772Y-23334D01*
X84002Y-23128D01*
X84156Y-22766D01*
G01Y-23386D02*
Y-21320D01*
G01X85951Y-23386D02*
Y-21320D01*
G01Y-21837D02*
X86104Y-21578D01*
X86334Y-21372D01*
X86641Y-21320D01*
X86909Y-21372D01*
X87139Y-21578D01*
X87254Y-21940D01*
Y-23386D01*
G54D19*
X-1969Y-9626D03*
Y17500D03*
M02*
